<?xml version="1.0" encoding="UTF-8"?>
<svg id="Calque_1" data-name="Calque 1" xmlns="http://www.w3.org/2000/svg" xmlns:xlink="http://www.w3.org/1999/xlink" viewBox="0 0 174.82 136.46">
  <defs>
    <style>
      .cls-1 {
        fill: #273366;
      }

      .cls-2 {
        fill: #1c234b;
      }

      .cls-3 {
        fill: #3d4c72;
      }

      .cls-4 {
        fill: #a5cbd5;
      }

      .cls-5 {
        fill: #7c92b1;
      }

      .cls-6 {
        clip-path: url(#clippath);
      }
    </style>
    <clipPath id="clippath">
      <path class="cls-2" d="M94.08,14.79l-7.88-.25s-19.25,1.25-29.3.3c-12.6-1.19-27.88-2.16-39.58,4.31C4.9,26.04-6.13,58.05,3.92,70.62c8.66,10.83,29.58,3.9,41.57,14.33,5.42,4.71,6.63,15.23,13.5,18.71s11.7-.08,19.46,6.32c10.79,8.89,21.32,31.44,40.44,25.5,12.26-3.8,21.47-23.71,29.08-31.81,5.16-5.51,13.05-4.77,17.08-10.44,2.57-3.61.33-8.41,1.77-12.37s4.33-5.52,5.77-8.97c6.27-14.97-2.25-27.73-6.49-42.75C161.17,11.66,157.1-.14,136.69,0c-7.66.05-13.55.39-20.72,3.45-7,2.99-21.88,11.34-21.88,11.34Z"/>
    </clipPath>
  </defs>
  <g>
    <path class="cls-2" d="M94.08,14.79l-7.88-.25s-19.25,1.25-29.3.3c-12.6-1.19-27.88-2.16-39.58,4.31C4.9,26.04-6.13,58.05,3.92,70.62c8.66,10.83,29.58,3.9,41.57,14.33,5.42,4.71,6.63,15.23,13.5,18.71s11.7-.08,19.46,6.32c10.79,8.89,21.32,31.44,40.44,25.5,12.26-3.8,21.47-23.71,29.08-31.81,5.16-5.51,13.05-4.77,17.08-10.44,2.57-3.61.33-8.41,1.77-12.37s4.33-5.52,5.77-8.97c6.27-14.97-2.25-27.73-6.49-42.75C161.17,11.66,157.1-.14,136.69,0c-7.66.05-13.55.39-20.72,3.45-7,2.99-21.88,11.34-21.88,11.34Z"/>
    <g class="cls-6">
      <g>
        <path class="cls-3" d="M159.38,6.87c-3.67-6.71-10.19-15.08-18.09-16.73-10.26-2.14-19.11,1.66-26.47,8.71-2.55,2.45-4.23,4.62-7.78,5.67-3.34.99-4.99-.19-6.08,3.92l-6.95,4.81c7.95-5.16,15.82,1.14,21.89,6.13,8.61,7.09,12.01,16.77,14.11,27.49,1.43,7.29,2.88,16.33,6.61,22.8,3.42,5.93,10.25,5.36,16.32,5.62,6.21.27,7.51,4.05,12.64,6.39,9.38,4.28,15.09-8.59,15.21-15.82.36-20.33-11.91-41.63-21.41-58.99Z"/>
        <path class="cls-3" d="M75.3,88.14c7.79-2.34,13.15,2.22,20.68,2.99,5.42.55,11.28.1,16.08-1.9,27.68-11.47.78-43.26-11.02-55.23-5.26-5.34-10.76-13.98-17.91-16.73-3.95-1.52-8.33-1.37-12.46-2.77-2.25-.76-4.29-1.54-6.39-2.21l5.79.14c-2.71-1.17-5.22-2.32-7.98-3.55-8.88-3.94-18.59-1.46-27.7,2.05-2.08.17-4.16.33-6.24.48l4.73.12c-2.64,1.05-5.22,2.16-7.71,3.21-14.68,6.16-31.93,12.48-35.83,29.61-1.61,7.06-3.36,18.48-.68,25.38,3.9,10.05,15.52,12.79,23.62,18.21,9.91,6.62,24.42,17.13,36.65,13.24,4.33-1.38,6.92-4.82,10.96-6.91,4.35-2.25,10.47-4.63,15.42-6.12Z"/>
        <path class="cls-5" d="M28.15,11.42l-21.6-.53c7.27,1.26,14.45,1.04,21.6.53Z"/>
        <path class="cls-3" d="M164.28,88.1c-7.86-5.98-25.76-17.06-34.05-7.19-4.85,5.77-7.74,10.43-14.66,14.06-7.16,3.76-12.75,1.33-20.21,1.35-8.16.03-13.65,2.96-20.23,7.26-8.72,5.7-14.07,4.3-23.93,2.03l17.42,4.73c-1.2,1.88-.56,3.15-.46,5.04.5,9.39,3.15,18.12,7.68,26.71,10.21,19.35,29.23,27.56,50.6,22.58,19.75-4.6,31.76-33.13,39.68-49.78,2.81-5.91,4.78-9.87,3.85-16.4-.79-5.52-1.64-7.33-5.7-10.41Z"/>
      </g>
      <path class="cls-5" d="M98.57,4.66c5.03-.7,10.46,5.05,14.33,7.65,3.68,2.46,7.74,4.58,10.62,8.15,3.75,4.64,5.32,7.78,11.3,10.15,6.05,2.4,12.76.54,18.44,5.04,5,3.97,3.33,14.01,3.33,19.77,0,9.23,5.44,15.46,8.62,23.35,4.42,10.94,15.35,5.8,19.28-4.01,9.08-22.66-1.51-45.22-12-65.13-4.06-7.7-10.62-13.73-18.2-17.93-6.63-3.67-17.54-7.61-24.88-4.15-3.25,1.53-5.58,4.36-8.6,6.21-2.04,1.25-4.26,2.32-6.11,3.89-1.77,1.51-5.81,5.84-5.94,7.65"/>
      <path class="cls-5" d="M75.57,9.34c-1.83,3.74-2.88,7.62.42,10.44,2.45,2.09,6.06,3.13,8.25,5.24,7.45,7.2-12.11,6.9-15.18,7.33-9.15,1.29-18.39,1.58-27.44,3.03-8.57,1.38-18.39,3-14.34,13.89,3.13,8.43,9.26,13.64,15.4,19.85,5.82,5.88,14.36,13.9,12.68,23.05-.48,2.64-2.16,7.55-3.6,9.95-4.11,6.87-13.73,6.59-20.62,6.63-8.7.05-16.5-2.89-24.55-6-10.51-4.06-20.72-8.31-29.78-15.2-14.36-10.93-23.54-27.72-23.78-45.98-.19-14.43,7.59-24.96,19.05-33.15C-15.24-.63,1.89-10.06,17.81-10.22c16.92-.17,34.81,9.13,47.49,19.67,1.23,1.02,2.47,1.91,3.39,3.2"/>
      <path class="cls-5" d="M71.27,107.98c5.33,3.79,11.41,6.26,18.09,4.57,6.02-1.52,10.29-7.51,16.01-10.19,4.65-2.18,10.89-4.35,15.84-3.33,5.54,1.15,8.67,2.08,14.31-.36,7.75-3.36,24.9-14.9,33.26-7.99,3.42,2.82,1.7,9.43-.18,12.64-4.28,7.28-14.64,12.41-21.18,17.7-8.56,6.92-17.14,13.69-25.56,20.77-8.01,6.74-17.17,10.48-27.61,10.51-13.82.04-23.19-11.12-22.94-24.69.11-5.93,3.38-9.05,6.88-13.4"/>
      <path class="cls-4" d="M105.15,3.3c2.74,2.04,5.21,4.71,8.85,4.53,2.87-.14,6.27-1.43,9.12-2.01,7.28-1.5,12.33-.03,18.83,3.57,3.06,1.7,5.45,3.95,7.83,6.46,3.9,4.11,8.92,5.83,14.1,8,3.05,1.28,8.69,4.14,11.67,1.18,2.76-2.74.68-8.02-.37-11.03-3.78-10.88-11.83-20.4-21.45-26.65-11.39-7.39-28.41-11.28-39.13-.84-3.25,3.17-8.78,11.82-9.44,16.79Z"/>
      <path class="cls-4" d="M169.92,29.33c1.41,4.74,1.57,12.6.42,17.41-1.58,6.63-4.69,11.16-4.59,18.29.06,3.8,0,9.99,3.39,12.54,8.45,6.36,14.57-7.33,15.22-13.7.85-8.33.48-17.37-5.78-23.53-1.63-1.6-4.27-3.8-6.06-1.33"/>
      <path class="cls-4" d="M46.46,7.18c5.25,2.03,5.95,7.13,2.89,11.47-6.14,8.71-16.85,5.85-25.91,5.7-6.59-.11-16.49,1.27-20.23,7.53-3.8,6.37-.78,11.27,2.33,16.6,2.8,4.8,5.04,11.3,5.76,16.84.56,4.33.31,10.82-3.95,13.47-4.13,2.57-10.57,2.02-14.32-.88-12.11-9.39-9.89-29.14-4-41.41C-5.17,24.43,9.09,15.48,20.87,9.96c3.53-1.65,7.69-2.6,11.62-2.17,2.17.23,3.54,1.68,5.49,2.21,3.91,1.06,9.12-1.4,11.91,2.59"/>
      <path class="cls-4" d="M52.43,98.64c2.95-5.06-1.65-12.81-5.18-16.24-4.91-4.79-12.64-7.55-19.46-6.49-4.98.78-9.49,4.72-6.82,10,2.98,5.89,9.44,7.64,15.12,9.72,2.48.9,4.61,2.38,7.21,2.77,2.72.41,5.25-.15,9.12.24Z"/>
      <path class="cls-4" d="M141.7,122.88c-2.23,3.15-7.27.48-10.06-.25-3.3-.86-6.06-1.41-9.58-1.4s-7.11-.07-10.14,1.63c-2.99,1.68-5.37,4.65-7.99,6.83-3.37,2.81-6.22,3.12-10.5,3.58-3.48.38-4.46,1.03-4.41,4.58.24,16.19,24.44,13.23,33.53,7.84,4.94-2.93,10.03-8.5,11.83-14.05.78-2.41,2-6.93.19-9.03"/>
      <path class="cls-4" d="M167.25,88.89c-.32,3-4.37,3.36-6.54,4.36-2.58,1.18-4.47,2.97-5.83,5.51-1.25,2.34-2.7,5.81.02,7.13,3.07,1.49,8.84-.35,10.82-2.91,1.85-2.38,4.46-9.13,1.52-14.09Z"/>
      <g>
        <path class="cls-1" d="M131.25,18.04c7.22.87,8.05,7.35,8.38,13.16.22,3.88,2.05,10.98,7.41,9.36,5.82-1.76,5.58-11.16,4.34-15.77-1.8-6.68-6.62-9.25-12.59-11.48-3.59-1.35-11.07-1.18-7.54,4.73Z"/>
        <path class="cls-1" d="M78.31,29.22c3.32.71,5.23,7.09,6.96,9.54,1.56,2.22,3.45,4.86,5.65,6.49,5.09,3.77,11.3,6.59,11.68,13.84.41,7.57-6.43,16.57-14.16,17.68-9.08,1.3-17.54-4.98-24.43-9.92-5.88-4.22-10.59-13.85-1.78-17.35,2.52-1,5.16-1.29,7.81-.89,1.91.29,4.32,1.52,6.17.4,3.95-2.38.03-8.04-2.38-9.89-3.36-2.57-12.15-5.13-11.99-10.18.13-4.08,6.28-5.28,9.46-4.82,3.66.52,6.43,2.8,7.01,5.1Z"/>
        <path class="cls-1" d="M28.3,30.72c1.39,1.66.88,3.97,2.06,5.62,1.06,1.48,3.27,2.07,5.03,2.43,3.52.72,7.29-.88,10.75.02,3.69.96,5.35,4.83,5.08,8.48-.35,4.68-4.04,5.78-8.04,6.25-5.53.65-7.88.94-11.9,4.42-3.88,3.36-7.48,2.91-11.55.24-3.89-2.55-7.83-6.12-8.05-10.95-.15-3.21-.21-6.38.85-9.38,1.28-3.63,10.98-12.5,15.78-7.13Z"/>
        <path class="cls-1" d="M48.29,61.58c.17,2.99,1.94,5.7,3.91,7.76,2.36,2.47,3.12,5.05-1.19,5.74-5.56.88-13.09-7.02-10.18-12.61,1.56-3,3.49-1.74,7.46-.89Z"/>
        <path class="cls-1" d="M36.09,26.93c2.03,2.66,9.33,10.59,13.48,8.04,4.55-2.79-3.69-8.62-6.22-9.15-2.24-.47-4.91-.58-7.26,1.11Z"/>
        <path class="cls-1" d="M139.24,81.48c-2.69,2.3-5.5,4.86-6.63,8.3-1.28,3.88-1.23,7.66-3.67,11.32-2.7,4.06-6.5,4.59-10.6,6.53-2.68,1.26-6.61,2.81-3.04,5.63,6.51,5.14,17.24-.37,21.18-6.34,2.64-4,3.37-9.64,7.58-12.35,2.26-1.45,5.25-.65,7.45-2.09,4.84-3.17.22-9.06-3.32-10.94-4.21-2.24-7.63-1.67-8.95-.05Z"/>
        <path class="cls-1" d="M98.71,104.72c-2.1,4.87-.67,8.51,3.43,11.28,4.94,3.34,3.28,8.08-3.05,7.54-7.95-.68-16.54-13.2-9.2-19.8,2.21-1.99,6.73-1.75,8.82.98Z"/>
        <path class="cls-1" d="M154.47,47.82c-4.43-3.1-6.76,4.57-4.72,7.54.99,1.43,2.74,2.21,3.74,3.7.93,1.38.97,2.66,1.5,4.14,1.26,3.55,4.92,3.13,5.97-.61,1.36-4.84-3.22-3.91-3.8-7.79-.3-2,1.65-3.16.2-5.1-1.14-1.53-3.1-1.01-2.9-1.88Z"/>
        <path class="cls-1" d="M158.74,38.12c-1.56,2.16.11,10.07,2.71,7.66,1.71-1.59.78-6.52-1.57-6.81-.22.18-1.15-.84-1.15-.84Z"/>
      </g>
      <path class="cls-4" d="M130.8,13.97c1.61-1.02,3.65-.47,5.39.11,3.4,1.13,6.57,2.63,9.14,5.17,2.18,2.14,3.66,4.62,4.32,7.62.38,1.72.43,3.54.21,5.28-.18,1.44-.2,2.94-.73,4.3-.39,1.01-1.2,2.02-1.51,3.04-.28.95,1.1.8,1.66.52,1.23-.61,2.08-2.63,2.43-3.88.48-1.73.31-3.81.28-5.59-.04-2.87-.35-6.42-1.74-8.97-1.41-2.58-3.73-4.66-6.27-6.14-3.45-2.01-9.02-4.36-12.77-1.8-.27.18-.46.43-.42.35Z"/>
      <path class="cls-4" d="M158.68,38.21c.08-.69,1.47.31,1.72.47.53.32.89.77,1.23,1.28.76,1.14,1.3,2.62.97,3.95-.14.57-.27,1.27-.71,1.75-.28.3-1.32.92-1.64.41-.17-.28.14-.51.31-.73.26-.34.42-.67.55-1.08.23-.75.25-1.59.21-2.39-.07-1.47-1.48-2.39-2.4-3.4-.11-.12-.14-.2-.24-.26Z"/>
      <path class="cls-4" d="M160.42,58.92c-.3-.3-.7-.69-1.01-.97-.22-.2-1.01-1-1.41-1.15-.08-.11-.16-.22-.23-.34-.17-.3-.28-.61-.39-.92-.17-.47-.2-.94-.23-1.46.1-.17.18-.47.25-.6.54-1,.82-2.27.35-3.33-.46-1.04-2.04-1.52-2.94-2.11-.45-.3-.99-.55-1.5-.74-.35-.14-1.57-.43-1.79.03-.09.29.06.36.2.37.92.1,1.85.5,2.71.93.54.27,1.05.54,1.4,1.04.31.45.5,1,.71,1.49.32.74.51,1.6.39,2.41-.02.11-.1.53,0,.64-.06.3-.12.6-.12.91,0,.78.04,1.41.54,2.03.16.19.94.68,1.21.83.24.36.47.72.66,1.13.39.86.84,1.96.58,2.92-.2.74-.55,1.6-1.01,2.22-.41.55-1.03.97-1.75.89-.5-.05-1.24-.38-1.53-.82l.43.6c.25.25.96.69,1.3.82.44.16.92.06,1.35-.06.62-.18,1.39-.83,1.75-1.37.35-.52.55-1.14.71-1.74.14-.54.27-1.12.21-1.68-.09-.92-.22-1.31-.85-1.96Z"/>
    </g>
  </g>
  <path class="cls-4" d="M63.04,26.06c9.58-5.74,16.78,7.32,20.51,14.17,1.22,2.24,2.09,4.34,3.73,6.26,1.74,2.03,5.96,4.21,7.78,6.14,3.53,3.75,3.95,7.18,2.95,11.93-.63,2.99-2.98,5.86-5.01,8.16-1,1.14-1.88,1.46-3.24,1.96-1.01.37-4.7.27-4.51,1.75,4.31,1.77,9.21-1.5,12.02-4.55,1.63-1.77,3.83-5.02,4.78-7.27,1.08-2.56,1.23-6.23.5-8.72-1.86-6.32-8.93-7.38-12.71-11.91-4.14-4.97-6.61-11.07-11.19-15.71-2.27-2.29-4.21-3.78-7.3-4.66-1.94-.55-6.54-.4-8.32,2.45Z"/>
  <path class="cls-4" d="M139.59,81.12c4.66,1.23,7.95-.02,11.11,4.49.91,1.3,2.44,4.31.78,5.62-.61.48-2.71.25-3.52.37-1.19.18-2.41.53-3.57.86-4.79,1.37-6.69,6.03-8.07,10.44-1.48,4.72-3.66,9.02-8.65,10.45-2.28.65-4.3.82-6.7.93-1.97.1-3.91.06-3.91.06.1,1.06,11.64,2.1,13.89-.62,2.58-3.14,5.45-6.39,7.32-9.86,2.12-3.92,2.59-8.8,7.54-9.87,2.12-.46,4.25.14,6.06-1.41,1.66-1.43,1.9-4.01,1.27-5.95-1.09-3.32-4.27-5.22-7.25-6.09-3.59-1.05-4.26-.36-6.29.58Z"/>
  <path class="cls-4" d="M98.49,104.5c-.32,1-1.1,1.78-1.39,2.9-.25.96-.36,1.8-.34,2.81.03,1.86.9,4.23,2.49,5.23,1.51.95,3.49,2.18,3.05,4.18-.21.97-1.16,2.11-2.17,2.34s-1.92-.79-2.76-.61c-.89.19-.75,1.03-.22,1.44.64.49,1.58.69,2.33.82,1.73.3,3.25,0,4.65-1.11,3.32-2.63-1.89-6.27-3.7-8.17-1.29-1.36-1.92-2.73-2.01-4.57-.05-.9-.02-1.83.15-2.65.15-.72.41-1.5.17-2.24-.13-.39-.14-.7-.24-.37Z"/>
  <path class="cls-4" d="M47.85,61.77c.2,1.02-.16,1.87.16,2.91.24.77.55,1.37.99,2.06.66,1.03,2.07,2.63,2.21,3.87.13,1.18-1.39,2.5-2.45,2.71-1.26.25-2.29-1.06-3.42-.94-1.87.2.33,1.73.88,2.08,1.22.79,2.55,1.2,4.03,1.33,1.28.11,3.25-.37,3.84-1.67.59-1.3-.41-2.69-1.11-3.71-1.06-1.51-2.32-2.96-3.21-4.61-.43-.8-.95-1.58-1.19-2.45-.13-.44-.17-1.59-.73-1.58Z"/>
  <path class="cls-4" d="M30.5,36.65c1.2.74,2,1.24,3.34,1.57,1.05.26,2.13.41,3.25.51,2.34.22,4.67-.11,6.97-.02,1.83.07,4.44.83,5.39,2.58,1.25,2.3,1.61,4.29,1.35,6.87-.24,2.35-1.25,4.76-3.84,5.01-1.13.11-2.26.02-3.42.09-1.2.08-2.28.47-3.42.71s-2.12.65-3.24.98c-1.08.31-2.16.28-3.13.99-1.63,1.19-2.28,3.37-4.24,4.18-2.01.83-4.83-.11-6.91-.3-2.36-.22-3.84-2.19-5.71-3.6-.42-.32-1.02-.57-1.13-1.1.78.09,1.62.91,2.4,1.2s1.61.53,2.37.79c1.74.61,4.05,1.63,5.9,1.21,1.6-.36,3.24-1.59,4.19-2.91,1.05-1.45,2-2.59,3.53-3.54,3.42-2.12,6.9-1.51,10.6-.97,4.36.64,7.55-7.55,2.53-8.83-3.44-.87-6.96-.42-10.41-.97-2.18-.35-4.96-1.29-6.19-3.26-.19-.3-.33-.68-.17-1.19Z"/>
  <path class="cls-4" d="M35.93,27.2c1.35-2.56,5.18-1.61,7.29-1.08,2.46.61,4.54,1.69,6.2,3.77.63.8,1.29,1.79,1.6,2.77.18.57.16,1.41-.33,1.86-.29.26-1.53.57-1.83.21-.35-.42.31-1.5.29-1.96-.02-.55-.39-1.34-.63-1.87-.49-1.1-1.41-2.01-2.4-2.69-1.53-1.05-2.98-1.58-4.78-1.75-.96-.09-1.94-.32-2.92-.21-.68.08-1.21.44-2.49.95Z"/>
</svg>