<?xml version="1.0" encoding="UTF-8"?>
<svg xmlns="http://www.w3.org/2000/svg" xmlns:xlink="http://www.w3.org/1999/xlink" viewBox="0 0 198.81 166.41">
  <defs>
    <style>
      .cls-1, .cls-2 {
        fill: none;
      }

      .cls-3 {
        fill: #273366;
      }

      .cls-4 {
        mix-blend-mode: overlay;
      }

      .cls-4, .cls-5 {
        fill: #a5cbd5;
      }

      .cls-6 {
        isolation: isolate;
      }

      .cls-2 {
        stroke: #1c234b;
        stroke-miterlimit: 10;
      }

      .cls-7 {
        clip-path: url(#clippath-11);
      }

      .cls-8 {
        clip-path: url(#clippath-10);
      }

      .cls-9 {
        clip-path: url(#clippath-12);
      }

      .cls-10 {
        clip-path: url(#clippath-1);
      }

      .cls-11 {
        clip-path: url(#clippath-4);
      }

      .cls-12 {
        clip-path: url(#clippath-2);
      }

      .cls-13 {
        clip-path: url(#clippath-6);
      }

      .cls-14 {
        clip-path: url(#clippath-5);
      }

      .cls-15 {
        fill: #1c234b;
      }

      .cls-16 {
        fill: #3d4c72;
      }

      .cls-17 {
        fill: #7c92b1;
      }

      .cls-18 {
        clip-path: url(#clippath);
      }
    </style>
    <clipPath id="clippath">
      <path class="cls-15" d="M145.57,129.87c.82-1.53,2.54-2.32,4.24-1.99,5.65,1.1,2.55-6.77,7-8.62,1.18-.49,2.94.04,4.13-.41s1.86-1.79,2.92-2.22c1.72-.69,5.73-1.45,7.44-.7,2.9,1.27,3.06,4.83,6.34,5.84,3.58,1.1,4.24.21,7.28,2.83,5.6,4.84,8.26,6.57,6.05,14.19-1.06,3.65-1.61,3.87-.24,7.34,1.17,2.97,1.85,3.01-.36,6.22-3.56,5.18-6.8,6.45-11.84,8.75-1.76.81-5.28,3.64-6.82,3.82-2.79.32-6.95-3.62-9.56-4.61-1.13-.43-2.76-.42-3.77-.95-1.6-.84-1.36-1.77-2.85-2.74-1.66-1.08-5.67-2.3-7.63-2.72-4.27-.9-5.51.26-7.54-4.13-1.49-3.22-1.87-4.54.03-7.72,1.73-2.88,2.27-3.61,2.87-6.88.45-2.44,1.39-3.59,2.31-5.31Z"/>
    </clipPath>
    <clipPath id="clippath-1">
      <path class="cls-15" d="M189.94,154.82c-.09-.19-.19-.33-.33-.47l.92-1.46c-.7.67-1.6.5-2.73.91-.9.33-2.3,1.13-3,1.79-.6.57-2.24,2.56-1.44,3.36.57.57,2.81-.35,3.41-.62,1.51-.69,2.21-2.16,3.17-3.51Z"/>
    </clipPath>
    <clipPath id="clippath-2">
      <path class="cls-1" d="M189.94,154.82c-.09-.19-.19-.33-.33-.47l.92-1.46c-.7.67-1.6.5-2.73.91-.9.33-2.3,1.13-3,1.79-.6.57-2.24,2.56-1.44,3.36.57.57,2.81-.35,3.41-.62,1.51-.69,2.21-2.16,3.17-3.51Z"/>
    </clipPath>
    <clipPath id="clippath-4">
      <path class="cls-1" d="M189.94,154.82c-.09-.19-.19-.33-.33-.47l.92-1.46c-.7.67-1.6.5-2.73.91-.9.33-2.3,1.13-3,1.79-.6.57-2.24,2.56-1.44,3.36.57.57,2.81-.35,3.41-.62,1.51-.69,2.21-2.16,3.17-3.51Z"/>
    </clipPath>
    <clipPath id="clippath-5">
      <path class="cls-1" d="M189.94,154.82c-.09-.19-.19-.33-.33-.47l.92-1.46c-.7.67-1.6.5-2.73.91-.9.33-2.3,1.13-3,1.79-.6.57-2.24,2.56-1.44,3.36.57.57,2.81-.35,3.41-.62,1.51-.69,2.21-2.16,3.17-3.51Z"/>
    </clipPath>
    <clipPath id="clippath-6">
      <path class="cls-1" d="M189.94,154.82c-.09-.19-.19-.33-.33-.47l.92-1.46c-.7.67-1.6.5-2.73.91-.9.33-2.3,1.13-3,1.79-.6.57-2.24,2.56-1.44,3.36.57.57,2.81-.35,3.41-.62,1.51-.69,2.21-2.16,3.17-3.51Z"/>
    </clipPath>
    <clipPath id="clippath-10">
      <path class="cls-15" d="M5.49,93.56c.26-.71.25-1.58.29-2.32.11-1.71-.07-3.44.15-5.13.19-1.49.69-1.95,2.12-2.36,1.69-.48,3.4-.76,5.09-1.26,1.18-.35,2.03-.42,3.14.3,1.26.82,2.27,2,3.47,2.89.4.3.94.93,1.43.84.26-.05.67-.45.91-.57.4-.22.83-.44,1.26-.59.51-.18,1.34-.39,1.86-.12.4.21.71.81,1.02,1.17.93,1.08,1.89,2.15,2.77,3.28.42.54.81,1.36,1.43,1.65.46.22,1.11.12,1.61.12.94,0,2.49-.09,3.25.61.39.37.32.71.44,1.24.55,2.39,1.54,4.88,1.69,7.33.06,1-.38,1.89-.3,2.88.76.13-.5,3.9-.82,4.46-.28.49-.71.71-.93,1.14-.39.75-.37,1.64-1.17,2.16-.82.53-2.21.65-3.04.25-1-.48-2.18-1.96-3.38-1.76-.71.12-1.13.81-1.79,1.06-.39.14-.8.18-1.18.33-.53.19-.98.6-1.55.69-1.05.17-1.38-.66-1.99-1.3-.8-.84-1.68-1.47-2.27-2.5-.52-.91-.96-1.64-1.94-2.05-.57-.24-1.04-.71-1.67-.87-.98-.26-2.28.13-3.08-.63-.85-.82-.76-2.32-1.92-2.85-.86-.39-1.85-.21-2.63-.85-.76-.62-1.36-1.64-1.78-2.52-.76-1.62-2.16-4-.47-4.71Z"/>
    </clipPath>
    <clipPath id="clippath-11">
      <path class="cls-3" d="M14.42,86.64c.87.73,1.41,1.34,2.38,1.79.37.17.86.74,1.31.62.44-.12.8-1.03.78-1.41-.06-1.01-1.05-1.4-1.89-1.73-.63-.65-1.65-1.25-2.36-1.19-1.45.12-.88,1.37-.22,1.92Z"/>
    </clipPath>
    <clipPath id="clippath-12">
      <path class="cls-15" d="M110.71,134.35c20.43-7.53,46.61-34.06,57.43-52.76,12.49-21.58,1.29-72.97-26.37-72.46,0,0-28.05-15.1-50.6,5.65C59.89-1.56,33.34-14.25,27.44,33.01c-.29,2.31,4.02,30.72,5.9,34.37,6.75,13.09,21.59,14.09,27.09,29.39,4.46,12.4-5.28,26.2,4.98,36.46,11.31,11.3,32.51,5.85,45.31,1.13Z"/>
    </clipPath>
  </defs>
  <g class="cls-6">
    <g id="Calque_1" data-name="Calque 1">
      <g id="asteroide_9P36" data-name="asteroide 9P36">
        <g>
          <path class="cls-15" d="M145.57,129.87c.82-1.53,2.54-2.32,4.24-1.99,5.65,1.1,2.55-6.77,7-8.62,1.18-.49,2.94.04,4.13-.41s1.86-1.79,2.92-2.22c1.72-.69,5.73-1.45,7.44-.7,2.9,1.27,3.06,4.83,6.34,5.84,3.58,1.1,4.24.21,7.28,2.83,5.6,4.84,8.26,6.57,6.05,14.19-1.06,3.65-1.61,3.87-.24,7.34,1.17,2.97,1.85,3.01-.36,6.22-3.56,5.18-6.8,6.45-11.84,8.75-1.76.81-5.28,3.64-6.82,3.82-2.79.32-6.95-3.62-9.56-4.61-1.13-.43-2.76-.42-3.77-.95-1.6-.84-1.36-1.77-2.85-2.74-1.66-1.08-5.67-2.3-7.63-2.72-4.27-.9-5.51.26-7.54-4.13-1.49-3.22-1.87-4.54.03-7.72,1.73-2.88,2.27-3.61,2.87-6.88.45-2.44,1.39-3.59,2.31-5.31Z"/>
          <g class="cls-18">
            <path class="cls-16" d="M174.24,117.67c.37-1.54.58-2.97-1.16-3.65-.71-.28-1.48-.09-2.13-.5-.89-.55-1.14-1.64-2.42-1.69-2.26-.09-3.92,2.05-5.77,2.73-1.21.44-2.21-.53-3.47-.32s-1.91,1.3-2.98,1.85c-1.11.56-2.62.18-3.55.82-.67.46-1,1.53-1.49,2.16-1.11,1.43-2.48,2.87-3.95,3.93-2.47,1.79-5.07,1.13-6.21,4.42-.68,1.94-.53,4.64-.2,6.64.4,2.47.82,3.68,2.85,5.12,1.49,1.05,2.03,2.1,3.21,3.34.87.92,3.35,1.53,4.87,1.68,1.38.13,3.07.16,4.43-.05,2.43-.37,1.19-1.66,2.56-2.96.84-.79,2.95-.95,4.05-1.57,1.54-.87,1.83-1.96,2.42-3.53.49-1.3.43-3.05,1.65-3.99,1.09-.83,2.7-1.09,3.84-1.78,1.77-1.07,1.32-2.19,1.69-3.86.4-1.79,1.12-2.52,1.02-4.43-.1-1.94.47-3.32.72-4.36Z"/>
            <path class="cls-16" d="M178.18,121.13c-.56,1.72-.99,3.91-1,5.7,0,1.15.19,2.04-.2,3.13-.29.8-.97,1.51-.91,2.41.08,1.2,1.16,1.6,1.88,2.27.64.6,1.17,1.41,1.74,2.09.92,1.1,1.03,1.21,2.32,1.42,1.04.17,1.39.08,2.41.96,1.38,1.19,2.34,3.47,4.47,3.29,1.1-.09,1.62-1.19,2.5-1.47.76-.24,1.57.26,2.4-.06,2.54-.99,2.22-4.03,1.59-6.05-.98-3.16-1-5.47-3.59-7.88-.76-.7-1.72-1.09-2.47-1.77-.87-.79-1.21-1.93-1.95-2.82-.87-1.05-2.53-1.15-3.81-1.88-1.61-.92-5.42-.89-5.4.66Z"/>
            <path class="cls-16" d="M191.93,143.78c-2.07,1.58-4.28,2.47-6.22.65-.72-.67-1.29-1.68-2.24-2.08-.79-.34-1.81-.06-2.62-.34-4.08-1.4-5.09-6.54-9.19-7.85-1.98-.64-3.58-.44-4.56,1.66-.79,1.7-.33,4.31-2.14,5.42-.68.42-1.75.42-2.52.9-.85.52-1.54,1.27-2.15,2.13-1.39,1.99-2.13,2.63-4.62,2.68-2.27.05-3.53-.97-5.62-1.56-2.01-.57-4.14-1.16-5.86-2.37-1.86-1.32-2.81-3.5-5.32-2.01-2.14,1.27-2.43,3.45-2.91,5.73-.78,3.64.37,7.72,2.9,10.62,2.76,3.17,7.41,4.53,11.32,5.76,3.59,1.12,6.58.3,10.17.57,1.88.14,3.97.44,5.82.74,2.73.45,5.11,2.31,8.13,2.57,3.84.33,9.24-.66,12.32-3,2.94-2.24,5.45-6.04,7.28-9.26,1.45-2.55,1.35-5.81-.82-8.06-.69-.72-2.16-2.06-3.07-1.46"/>
            <g>
              <g>
                <path class="cls-15" d="M191.15,151.91l-.62.98c.23-.22.44-.53.62-.98Z"/>
                <g>
                  <g>
                    <path class="cls-15" d="M189.94,154.82c-.09-.19-.19-.33-.33-.47l.92-1.46c-.7.67-1.6.5-2.73.91-.9.33-2.3,1.13-3,1.79-.6.57-2.24,2.56-1.44,3.36.57.57,2.81-.35,3.41-.62,1.51-.69,2.21-2.16,3.17-3.51Z"/>
                    <g class="cls-10">
                      <path class="cls-4" d="M187.03,155.69c-1.1.99-2.7,1.54-3.33,2.98-.19.44-.12.76.41.62.83-.21,1.58-.74,2.31-1.16.99-.57,1.75-1.41,2.45-2.31.31-.4.67-.77.93-1.21.18-.3.5-.63.58-.97.25-.98-1.04-.23-1.37.01-.36.27-.61.7-.92,1.03-.34.36-.7.69-1.07,1.01Z"/>
                    </g>
                  </g>
                  <g class="cls-12">
                    <path class="cls-15" d="M187.03,155.69c-1.1.99-2.7,1.54-3.33,2.98-.19.44-.12.76.41.62.83-.21,1.58-.74,2.31-1.16.99-.57,1.75-1.41,2.45-2.31.31-.4.67-.77.93-1.21.18-.3.5-.63.58-.97.25-.98-1.04-.23-1.37.01-.36.27-.61.7-.92,1.03-.34.36-.7.69-1.07,1.01Z"/>
                  </g>
                </g>
                <path class="cls-15" d="M159.04,124.64c-2.6-.9-3.24,4.05-2.96,5.18.49-.06,1.86-1.33,2.15-1.81.59-.97.19-2.31.8-3.37Z"/>
                <path class="cls-15" d="M161.43,129.46c.63,2.27,2.33,2.28,3.57.38,1.12-1.72,1.61-3.88,1.32-5.95.05-1.19-.25-2.27-1.83-2.43-3.09-.31-3.62,5.98-3.06,8Z"/>
                <path class="cls-15" d="M154.43,135.77c-.21.04-.38.16-.52.32-.58.69-2.36,2.99-.44,2.8,1.47-.14,2.22-3.35.95-3.12Z"/>
                <path class="cls-15" d="M169.92,143.57c-.55,2.04-.6,3.26,1.8,3.9.87.23,1.77.24,2.66.42,1.11.22,1.6,1.01,2.62,1.37,2.42.86,3.39-1.78,2.39-3.52-.85-1.47-1.74-1.02-2.83-1.8-1.15-.81-.94-2.27-2.41-1.3-1.83.63-1.68-1.59-3.04-1.43-1,.12-1.02,1.74-1.19,2.36Z"/>
                <path class="cls-15" d="M173.39,154.58c-1.33-2.16-4.52-1.37-6.59-1.14-1.67.18-3.07-.33-3.93-1.34-.71-.84-2.05-.64-2.41.4-.17.48-.24,1-.22,1.41.06,1.29.85,2.11,1.5,3.14,1.97,3.13,4.57,3.23,7.98,2.17,1.87-.58,5.16-2.22,3.67-4.64Z"/>
                <path class="cls-15" d="M146.99,147.29c-2.75,1.81.83,4.55,2.75,4.51,1.07-.02,2.72-.7,4.05-2.47-2.26.3-4.94-3.27-6.8-2.04Z"/>
                <path class="cls-15" d="M182.15,133.58c.53.08.88-.54.8-1.03-.08-.56-1-.76-1.24-1.23-.2-.39.14-1.43-.09-1.68-.76-.82-1.87.6-1.88,1.46,0,1.44,1.64,1.08,1.75,2.14,0,0,.1.25.66.34Z"/>
                <path class="cls-15" d="M187.88,135.55c-.27-.27-.49-.59-.68-.92-.42-.73-1.64-1.33-2.36-.74-.82.68.5,1.98.93,2.74.46.81,1.81,2.45,2.84,1.26.66-.75-.14-1.76-.73-2.34Z"/>
                <path class="cls-15" d="M187.08,129.59c.77.55,3.16,1.52,3.5-.07.22-1.06-2.04-2.87-2.72-3.51-.8-.77-2.74-2.97-4.89-4,1.02,1.39.92,2.89,1.51,4.37.46,1.15,1.57,2.47,2.6,3.21Z"/>
              </g>
              <g>
                <path class="cls-3" d="M191.15,151.91l-.62.98c.23-.22.44-.53.62-.98Z"/>
                <g>
                  <g class="cls-11">
                    <path class="cls-3" d="M187.03,155.69c-1.1.99-2.7,1.54-3.33,2.98-.19.44-.12.76.41.62.83-.21,1.58-.74,2.31-1.16.99-.57,1.75-1.41,2.45-2.31.31-.4.67-.77.93-1.21.18-.3.5-.63.58-.97.25-.98-1.04-.23-1.37.01-.36.27-.61.7-.92,1.03-.34.36-.7.69-1.07,1.01Z"/>
                  </g>
                  <g class="cls-14">
                    <path class="cls-3" d="M187.03,155.69c-1.1.99-2.7,1.54-3.33,2.98-.19.44-.12.76.41.62.83-.21,1.58-.74,2.31-1.16.99-.57,1.75-1.41,2.45-2.31.31-.4.67-.77.93-1.21.18-.3.5-.63.58-.97.25-.98-1.04-.23-1.37.01-.36.27-.61.7-.92,1.03-.34.36-.7.69-1.07,1.01Z"/>
                  </g>
                  <g class="cls-13">
                    <path class="cls-3" d="M187.03,155.69c-1.1.99-2.7,1.54-3.33,2.98-.19.44-.12.76.41.62.83-.21,1.58-.74,2.31-1.16.99-.57,1.75-1.41,2.45-2.31.31-.4.67-.77.93-1.21.18-.3.5-.63.58-.97.25-.98-1.04-.23-1.37.01-.36.27-.61.7-.92,1.03-.34.36-.7.69-1.07,1.01Z"/>
                  </g>
                </g>
                <path class="cls-3" d="M159.04,124.64c-2.6-.9-3.24,4.05-2.96,5.18.49-.06,1.86-1.33,2.15-1.81.59-.97.19-2.31.8-3.37Z"/>
                <path class="cls-3" d="M161.43,129.46c.63,2.27,2.33,2.28,3.57.38,1.12-1.72,1.61-3.88,1.32-5.95.05-1.19-.25-2.27-1.83-2.43-3.09-.31-3.62,5.98-3.06,8Z"/>
                <path class="cls-3" d="M154.43,135.77c-.21.04-.38.16-.52.32-.58.69-2.36,2.99-.44,2.8,1.47-.14,2.22-3.35.95-3.12Z"/>
                <path class="cls-3" d="M169.92,143.57c-.55,2.04-.6,3.26,1.8,3.9.87.23,1.77.24,2.66.42,1.11.22,1.6,1.01,2.62,1.37,2.42.86,3.39-1.78,2.39-3.52-.85-1.47-1.74-1.02-2.83-1.8-1.15-.81-.94-2.27-2.41-1.3-1.83.63-1.68-1.59-3.04-1.43-1,.12-1.02,1.74-1.19,2.36Z"/>
                <path class="cls-3" d="M173.39,154.58c-1.33-2.16-4.52-1.37-6.59-1.14-1.67.18-3.07-.33-3.93-1.34-.71-.84-2.05-.64-2.41.4-.17.48-.24,1-.22,1.41.06,1.29.85,2.11,1.5,3.14,1.97,3.13,4.57,3.23,7.98,2.17,1.87-.58,5.16-2.22,3.67-4.64Z"/>
                <path class="cls-3" d="M146.99,147.29c-2.75,1.81.83,4.55,2.75,4.51,1.07-.02,2.72-.7,4.05-2.47-2.26.3-4.94-3.27-6.8-2.04Z"/>
                <path class="cls-3" d="M182.15,133.58c.53.08.88-.54.8-1.03-.08-.56-1-.76-1.24-1.23-.2-.39.14-1.43-.09-1.68-.76-.82-1.87.6-1.88,1.46,0,1.44,1.64,1.08,1.75,2.14,0,0,.1.25.66.34Z"/>
                <path class="cls-3" d="M187.88,135.55c-.27-.27-.49-.59-.68-.92-.42-.73-1.64-1.33-2.36-.74-.82.68.5,1.98.93,2.74.46.81,1.81,2.45,2.84,1.26.66-.75-.14-1.76-.73-2.34Z"/>
                <path class="cls-3" d="M187.08,129.59c.77.55,3.16,1.52,3.5-.07.22-1.06-2.04-2.87-2.72-3.51-.8-.77-2.74-2.97-4.89-4,1.02,1.39.92,2.89,1.51,4.37.46,1.15,1.57,2.47,2.6,3.21Z"/>
              </g>
            </g>
            <path class="cls-17" d="M190.81,144.59c-1.72.35-1.26,1.64-1.48,3.01-.1.62-.14,1.1-.39,1.67s-.69,1.07-.78,1.68c-.19,1.2.68,2.32,1.75,2.7,2.01.72,3.37-2.14,3.48-3.81.14-2.09-.85-3.9-2.58-5.25Z"/>
            <path class="cls-17" d="M183.46,159.14c.35-2.72-6.74.54-7.59.84-1.23.44-2.32,1.17-3.45,1.7s-2.82.25-4-.17c-1.38-.48-2.74-1.17-4.11-1.66-1.15-.41-2.04-.51-1.68,1.08.7,3,4.14,5.35,6.7,6.64,2.86,1.43,9.41,3.17,11.58-.44,1.48-2.46,2.06-5.46,2.54-7.99Z"/>
            <path class="cls-17" d="M179,121.4l-.33.16c-.18.09-.76.3-.86.46.5.43.83.62,1.04,1.21s.13.97.59,1.42c.83.81,2.09.75,2.95,1.56,1.69,1.6,2.62,4.05,4.28,5.9,1.46,1.62,3.29,5,5.87,4.78,4.34-.37,1.65-7.47.2-9.38s-3.93-3.73-5.9-4.83c-1.13-.64-2.55-1.05-3.83-.56"/>
            <path class="cls-5" d="M163.11,121.99c.83-1.69,2.25,1.71,2.3,2.43.1,1.4-.36,3.14-.97,4.36-.38.76-.73,1.56-1.17,2.25.04.07.07.11.1.18,1.77-.17,2.53-2.83,2.82-4.25s.65-3.7-.25-5.05c-.29-.43-.74-.71-1.28-.74-.43-.02-.84.29-1.55.82Z"/>
            <path class="cls-5" d="M155.97,129.47c.88.11,1.88-1.55,2.09-2.26.24-.82.28-1.83.93-2.47.44.44.17,1.79,0,2.34-.3.92-1,1.99-1.85,2.46-.27.15-1.52.38-1.16-.07Z"/>
            <path class="cls-5" d="M154.64,135.81c.35-.05.43.54.47.77.05.3.02.62-.12.88-.3.53-.58,1.2-1.16,1.44-.24.1-.51.11-.75.03-.09-.03-.33-.18-.14-.27.1-.05.33.11.45.12.71.04,1.07-.65,1.35-1.15.17-.3.29-.44.22-.8-.05-.26,0-.54-.04-.78-.02-.08-.01-.14-.26-.26Z"/>
            <path class="cls-5" d="M153.73,149.29c-.11.27-.72.52-.98.64-.42.19-.79.46-1.21.65s-.84.25-1.25.37c-.52.14-1.02.33-1.57.22s-1.01-.24-1.44-.59c.13.48.62.67,1.03.83s.84.36,1.3.42,1.05.02,1.5-.16c.57-.23,1-.54,1.51-.88.4-.27,1.23-.91,1.12-1.5Z"/>
            <path class="cls-17" d="M174.91,116c0-.49-.9,1.62-1.03,1.12-.25-.93-1.22-1.64-2.13-1.86-.61-.15-1.16-.05-1.77-.08-.76-.04-1.56-.29-2.3-.46-4.03-.92-7.92-1.71-12.02-.44-3.74,1.16-7.47,3.14-10.37,5.79-2.25,2.06-3.74,5.1-4.84,7.92-.76,1.94-.61,3.74-.74,5.77-.05.83-.36,1.7.01,2.48.5,1.05,1.49.99,2.36,1.38s1.6,1.02,2.53,1.32,2.25.81,3.24.77c2.44-.11,4.99-2.83,6.03-4.85,1.06-2.06.25-3.95.37-6.16.06-1.06.72-1.97,1.13-2.92s1.01-1.76,2.14-1.81c1.06-.05,2.04-.11,2.74-.99.69-.87.63-1.93,1.39-2.82,1.48-1.72,4.64-2.04,6.8-1.79,1.31.16,2.61.82,3.91.87,1.41.05,1.54-.97,2.17-1.95l.37-1.3Z"/>
            <path class="cls-17" d="M141.1,140.57c.96.43.56,1.82.61,2.6.05.85.35,1.71.8,2.41,1,1.56,2.81,3.09,3.15,5.11.45,2.63-1.48,4.97-4.39,4.48-4.54-.76-8.68-7.65-5.92-11.65.75-1.09,1.45-1.73,2.66-2.18.67-.25,2.33-.92,3.09-.77Z"/>
            <path class="cls-17" d="M159.25,161.15c.65-1.7-1.29-4.12-2.36-5.3-.63-.7-1.5-1.52-2.47-1.63-.92-.11-1.76.27-2.7-.04-1.76-.58-2.78-2.51-4.32-.37-1.95,2.69,2.1,4.96,4.32,5.92,1.62.7,4.52,1.35,7.54,1.42Z"/>
            <path class="cls-5" d="M174.34,118.14c-.63,1.16-1.43-.3-2.19-.61-.71-.29-1.69-.35-2.46-.55-1.69-.46-3.15-.26-4.86.13-.8.18-1.49.57-2.23.83-.99.35-1.83-.55-1.54-1.57.23-.81.97-1.42,1.48-2.08.7-.9,1.47-1.66,2.62-1.95,1.9-.48,4.31.07,5.83,1.24.92.72,1.42,1.36,2.05,2.29.37.56.66,1.78,1.3,2.26Z"/>
            <path class="cls-5" d="M160.64,117.75c-.35.87-1.19,2.01-1.88,2.61-.91.78-2.03,1.35-3.08,1.98-1.22.72-3.91,1.69-4.45-.43-.26-1,.62-1.88,1.28-2.51,1.11-1.06,2.25-2.3,3.89-2.42,1.03-.07,2.72.4,3.31,1.29"/>
            <path class="cls-5" d="M152.92,126.69c-.72.74-1.39,1.39-1.88,2.3-.37.68-.47,1.27-.69,1.99-.29.96-.99.37-1.65.85-.84.61-.58,2.09-1.16,2.9-.41.56-1.18,1.19-1.8,1.49-.46.22-.93.21-1.4.32-.51.12-1.09.42-1.63.34-1.26-.2-1.28-1.89-1.24-2.85.05-1.52.7-2.78,1.37-4.12.71-1.42,1.12-2.74,2.57-3.48s4.64-1.1,5.65.55"/>
            <path class="cls-5" d="M140.26,141.39c.25.33-.16.85-.24,1.18-.09.39-.12.83-.11,1.23,0,.75.08,1.49.24,2.23.26,1.24.85,2.08,1.79,2.88.53.45.98.75,1.27,1.41.24.54.48,1.36.19,1.91-.41.77-1.14,1.08-1.99,1.15-.8.07-1.44-.27-2.1-.69-1.04-.66-1.26-1.46-1.64-2.57-.44-1.26-1.1-2.48-1.4-3.78-.14-.58-.07-1.15,0-1.74.1-.8.18-1.72.51-2.47.2-.46.97-1.38,1.56-.89"/>
            <path class="cls-5" d="M148.73,154.56c.27-.05.31-.31.53-.39.14-.05.29.02.43.04.35.06.61.16.94.28s.62.31.94.42c.3.1.67.16.99.22.69.14,1.32.43,2.03.53.74.11,1.53.29,1.92,1.02.13.25.2.52.18.8-.03.47,0,1.41-.42,1.68-.26.16-.65.04-.92-.01-.55-.11-1.03-.4-1.58-.52-.43-.1-.89-.18-1.3-.36-.57-.24-.99-.72-1.54-.97"/>
            <path class="cls-5" d="M179.94,160.67c-1.15,1.22-2.68.89-4.18,1.23-.83.19-1.71.4-2.51.68-.96.33-1.9.72-2.98.63-.92-.08-1.76-.53-2.64-.7s-2.08.06-2.91.4c-1.3.53-.57,2.85.19,3.64,2.15,2.24,5.28,2.11,8.11,1.51,2.03-.43,3.23-.9,4.2-2.79.44-.86.77-1.8.9-2.74"/>
            <path class="cls-5" d="M190.97,146.26c.38.55-.54,2.33-.72,2.98-.26.9-.35,1.58-.07,2.49.12.38.28,1.21.66,1.43.7.39,1.45-.56,1.71-1.07.82-1.54,1.34-3.51.84-5.22-.38-1.31-1.36-1.27-2.42-.6Z"/>
            <path class="cls-5" d="M180.38,121.08c.91.38,1.09,1,1.42,1.81s1.03,1.67,1.66,2.29c1.25,1.24,2.62,2.43,3.82,3.76.69.77,1.3,1.64,1.97,2.45.49.59.99,1.17,1.48,1.76.43.52.78,1.26,1.42,1.58,1.36.68,1.55-1.05,1.57-1.98.02-1.08-.1-2.28-.4-3.31-.46-1.56-1.11-3.35-1.89-4.78-1.38-2.54-3.98-4.93-7.02-4.55-1.09.13-2.44.04-2.91,1.27"/>
            <path class="cls-5" d="M185.15,133.82c.12-.44.89-.24,1.17-.12.63.26.99.83,1.34,1.4.53.86,2.02,1.82,1,2.9-.24.25-1.39.86-1.5.2-.08-.46.66-.24.91-.31.41-.11.61-.55.44-.94-.26-.59-.56-1.21-1.05-1.65-.2-.19-.4-.37-.56-.58-.14-.17-.3-.35-.5-.46-.34-.19-.89-.02-1.16-.3-.06-.06-.11-.15-.09-.13Z"/>
            <path class="cls-5" d="M181.47,133.04c.07.14.17.3.34.3.14,0,.32-.1.4-.21.18-.22.06-.58.1-.84.08-.47.54-.01.63.23.22.57-.18,1.12-.77,1.13-.2,0-.87-.22-.71-.61Z"/>
            <path class="cls-5" d="M180.99,132.5c-.14-.28-.42-.41-.67-.57s-.36-.32-.47-.58c-.31.02.01.62.09.72.22.26.42.29.72.32.15.01.31.06.33.11Z"/>
            <path class="cls-5" d="M178.07,144.58c.73.12.77,1.24.86,1.78.07.44.12.84-.11,1.25-.21.38-.46.94-.86,1.15-.22.12-.44.2-.68.25-.15.03-.36.05-.49.12.36.31.9.28,1.36.29.23,0,.49-.02.69-.14.28-.16.41-.5.6-.75.33-.44.34-.92.34-1.45s-.12-1.01-.38-1.47c-.14-.24-.29-.41-.48-.61-.1-.11-.18-.2-.32-.25s-.26-.05-.52-.18Z"/>
            <path class="cls-5" d="M174.61,147.97c-.28-.22-.53-.28-.87-.38s-.64-.26-1-.35c-.81-.2-1.67-.2-2.29-.84-.11-.11-.21-.23-.31-.35-.07-.08-.12-.23-.2-.31-.31-.28-.36.19-.31.41.11.47.44.79.86,1,.56.29,1.2.55,1.83.53.42,0,.88-.07,1.29.05.26.07.7.29.99.22Z"/>
            <path class="cls-5" d="M162.33,157.73c.08.45.91.78,1.26.98.64.36,1.35.65,2.08.77.4.06.83.02,1.23.02.36,0,.66-.03,1.01-.12.41-.11.83-.17,1.24-.25.36-.07.66-.21.99-.36.38-.16.79-.26,1.16-.44.31-.16.6-.37.89-.56.47-.32.92-.78,1.14-1.3s0-1.34-.33-1.75c-.35-.43-.81-.73-1.3-.96-.22-.1-.44-.21-.68-.27-.23-.06-.48-.07-.71-.12-.1-.02-.64-.09-.55-.27.07-.15.57,0,.69,0,.57.06,1.21.1,1.72.37s.78.39,1.1.89c.29.46.6,1.09.53,1.66-.06.52-.33.96-.72,1.29-.21.18-.33.41-.53.61-.15.16-.37.3-.56.42-.47.3-1,.47-1.51.7-.71.32-1.49.35-2.21.64-.8.32-1.58.27-2.43.15-.61-.09-1.2-.24-1.76-.49-.6-.26-1.37-.65-1.74-1.22-.11-.16-.19-.39-.24-.58.12.07.14.24.23.2Z"/>
          </g>
        </g>
      </g>
      <g id="asteroide_6E9" data-name="asteroide 6E9">
        <g>
          <path class="cls-15" d="M5.49,93.56c.26-.71.25-1.58.29-2.32.11-1.71-.07-3.44.15-5.13.19-1.49.69-1.95,2.12-2.36,1.69-.48,3.4-.76,5.09-1.26,1.18-.35,2.03-.42,3.14.3,1.26.82,2.27,2,3.47,2.89.4.3.94.93,1.43.84.26-.05.67-.45.91-.57.4-.22.83-.44,1.26-.59.51-.18,1.34-.39,1.86-.12.4.21.71.81,1.02,1.17.93,1.08,1.89,2.15,2.77,3.28.42.54.81,1.36,1.43,1.65.46.22,1.11.12,1.61.12.94,0,2.49-.09,3.25.61.39.37.32.71.44,1.24.55,2.39,1.54,4.88,1.69,7.33.06,1-.38,1.89-.3,2.88.76.13-.5,3.9-.82,4.46-.28.49-.71.71-.93,1.14-.39.75-.37,1.64-1.17,2.16-.82.53-2.21.65-3.04.25-1-.48-2.18-1.96-3.38-1.76-.71.12-1.13.81-1.79,1.06-.39.14-.8.18-1.18.33-.53.19-.98.6-1.55.69-1.05.17-1.38-.66-1.99-1.3-.8-.84-1.68-1.47-2.27-2.5-.52-.91-.96-1.64-1.94-2.05-.57-.24-1.04-.71-1.67-.87-.98-.26-2.28.13-3.08-.63-.85-.82-.76-2.32-1.92-2.85-.86-.39-1.85-.21-2.63-.85-.76-.62-1.36-1.64-1.78-2.52-.76-1.62-2.16-4-.47-4.71Z"/>
          <g class="cls-8">
            <path class="cls-16" d="M36.6,93.94c-.69-.72-1.05-1.68-2.21-1.21-.86.35-1.54,1.41-1.96,2.21-.88,1.68-1.88,3.38-3.04,4.95-1.43,1.93-2.98,2.92-5.34,2.37-1.06-.25-2.06-.52-2.93-1.23-.72-.6-1.36-1.41-2.08-2.06-2.04-1.85-3.81-3.85-6.34-5.05-2.33-1.11-5.38-.67-7.63-2.14-2.32-1.52-3.05-5.27-2.48-7.83.93-4.17,6.45-6.99,10.47-6.31,3.06.52,6.12,1.76,8.88,3.14,2.83,1.42,5.27,3.29,7.88,5.08,1.59,1.09,3.18,2.14,4.53,3.5.59.6,1.73,1.52,1.79,2.42.02.38-.27.77-.26,1.16"/>
            <path class="cls-16" d="M36.79,94.72c-.37-1.35-2.64-.45-3.15.29-.61.9-1.2,2.13-1.62,3.11-.56,1.29-.65,2.61-1.78,3.51-.93.73-2.05.74-3.18.89-1.15.15-1.88.33-2.28,1.53-.63,1.87-.22,4.32.03,6.23.44,3.44,2.91,6.27,6.57,5.39,3.74-.9,6.83-3.76,6.65-7.86-.07-1.71-.2-3.37-.19-5.08,0-1.39.14-2.79.12-4.18-.02-.98-.56-4.26-1.15-3.84Z"/>
            <path class="cls-16" d="M3.89,93.08c.59.44.95,1.2,1.47,1.72s1.08.81,1.71,1.1c1.37.64,2.77,1.12,4.18,1.6,3.26,1.1,7.83,1.59,9.66,4.95.77,1.4,1.23,3.04,1.86,4.53.69,1.62.54,3.67-1.29,4.54-2.31,1.09-5.44-1.2-7.18-2.43-1.9-1.33-3.3-3.21-4.94-4.82-1.26-1.24-2.79-2.29-3.97-3.63-1.42-1.62-3.92-4.32-3.08-6.66.51-1.43,1.62-.74,2.78-.72"/>
            <path class="cls-17" d="M5.98,82.38c-1.86,2.08-2.34,7.04,1.42,6.92,3-.1,4.78-2.71,7.74-3.06,1.32-.15,2.4.3,3.62.36.74.04,1.01-.18,1.65.2s.93,1.1,1.55,1.57c1.3.98,2.33-.14,3.68.38,1.45.56,1.99,2.23,2.97,3.29,1.1,1.19,2.56.99,4.01.66.72-.16,1.54-.53,2.32-.42,1.13.17,1.66.83,3.04.67,1.85-3.3-1-5.51-3.92-6.64-3.28-1.27-6.96-1.33-9.81-3.59-1.4-1.12-2.73-2.59-4.42-3.28s-3.66-1.05-5.45-1.24c-3.73-.4-6.02,1.51-8.42,4.19Z"/>
            <path class="cls-17" d="M36.69,94.01c-1.28,2.34-.47,4.67-.79,7.18s-1.81,4.15-3.2,6.05c-.93,1.28-2.64,4.2-1.4,5.83,1,1.31,2.83.33,3.8-.48,1.77-1.46,2.68-4.02,3.26-6.18.65-2.44,1.45-5.43.85-7.96-.26-1.12-.98-3.65-2.52-4.44Z"/>
            <path class="cls-17" d="M2.39,98.93c-.85,1.93.13,3.98,1.37,5.48,1.22,1.47,3.07,2.7,4.79,3.58,2.4,1.23,4.6,3.17,7.07,4.19,1.33.55,5.86,1.7,5.98-.82.05-1.09-.99-2.41-1.57-3.26-.77-1.12-1.45-1.92-2.61-2.7-1.28-.87-1.95-.88-3.41-1.04s-1.61-1.21-2.43-2.23c-.87-1.09-1.77-1.51-3.1-1.47-1.55.05-1.74-.64-2.56-1.94-.81-1.27-2-2.95-1.87-4.54-1.42,2.26-2.51,3.83-1.81,6.48"/>
            <path class="cls-5" d="M5.74,85.15c.07.49.36.91.89.78.46-.11.91-.45,1.25-.77.2-.19.36-.43.59-.59.3-.21.69-.33,1.04-.43.32-.09.66-.11.99-.18s.62-.18.93-.25c.97-.22,1.93-.41,2.93-.39.59.01,1.14.25,1.72.24.37,0,1.08-.2,1.24-.59.13-.32-.19-.75-.36-.98-.59-.81-1.42-1.18-2.38-1.4-2.26-.52-4.46.76-6.32,1.86-.55.33-1.04.75-1.56,1.12-.35.24-.65.5-.86.87-.19.34-.18.63-.05,1,.04.12.07.23.11.36"/>
            <path class="cls-5" d="M20.86,86.1c.21.47.39.72.94.8s1.11-.16,1.65-.24c.71-.1,1.33-.12,1.97.26.47.28.89.63,1.33.96.27.2.54.41.79.63.29.24.53.6.87.77.6.3,1.06.02,1.07-.64.01-.6-.37-1.18-.71-1.66-.51-.72-1.13-1.32-1.79-1.91-1.15-1.03-2.93-1.85-4.47-1.27-.6.23-1.35.76-1.44,1.43-.04.28-.11.72-.21.87Z"/>
            <path class="cls-5" d="M30.86,90.74c.42,1.22,2.07,1.22,3.13,1.25.32.01.68.05.99.11s.59.25.92.21c.39-.05.36-.41.17-.67-.35-.48-.86-.83-1.39-1.1-.65-.32-1.45-.63-2.18-.54-.32.04-.88.18-.95.58"/>
            <path class="cls-5" d="M37.38,103.34c-.59.06-.64.98-.7,1.43-.1.74-.29,1.47-.55,2.17-.12.32-.23.64-.4.94-.14.26-.32.46-.39.75-.02.08-.08.25-.02.31.11.12.29-.03.38-.1.79-.63,1.26-1.45,1.74-2.34.41-.75.92-1.84.54-2.7-.09-.2-.5-.54-.6-.47Z"/>
            <path class="cls-5" d="M35.43,109.55c-.61.24-1.13.65-1.75.86-.57.19-1.11.33-1.59.72-.24.19-1.12.86-.66,1.17.39.26,1.05.09,1.48.02.65-.11,1.35-.44,1.88-.83.44-.33,1.12-.89,1.11-1.51,0-.23-.19-.49-.47-.43Z"/>
            <path class="cls-5" d="M7.44,100.91c.27.15.62.11.92.09.34-.02.63.03.98.09.47.08.95.16,1.36.42.49.3.72.66.94,1.17.27.62.57,1.13,1.17,1.47.28.16.59.3.9.4.33.1.66.14.99.22s.68.24,1.01.38.72.37.96.62c.21.22.56,1.09.2,1.32-.18.12-.55.06-.74.04-.5-.05-.94-.29-1.39-.49-.66-.3-1.32-.6-1.99-.89-.79-.34-1.44-.81-2.13-1.31-.97-.71-1.85-1.53-2.76-2.3-.26-.22-.84-.89-.25-1.06.09-.03.19-.03.29-.07"/>
            <path class="cls-5" d="M18.26,107.2c.72.32,1.33.93,1.74,1.62.15.25.27.47.37.74.04.12.23.6.14.69-.28.26-1.33-1.16-1.45-1.31-.29-.35-.52-.81-.72-1.22-.07-.13-.25-.44-.07-.53Z"/>
            <path class="cls-5" d="M36.45,95.43c.01.33,0,.65.03.98.05.41.2.78.29,1.18.17.75.23,1.51.31,2.27.04.41.06.83.05,1.24,0,.23-.14.63.01.83.31.39.47-.32.51-.5.27-1.06.26-2.01.06-3.09-.16-.85-.15-1.88-.66-2.62-.12-.17-.25-.26-.37-.06-.09.14-.05.33-.06.49"/>
          </g>
        </g>
        <g>
          <path class="cls-3" d="M23.81,98.48l-.17-.04c-.59-1.11-2.03-.21-1.19.68.6.64,2.16.3,1.36-.64Z"/>
          <g>
            <path class="cls-3" d="M35.39,99.35c.02-.52-.37-.89-.43-1.42-.05-.43.47-1.4.24-1.78-.44-.71-1.16.35-1.44.73-.93,1.24-.54,2.2-.3,3.58.47-.17,1.11.15,1.57.37.48-.36.5-.91.36-1.47Z"/>
            <path class="cls-5" d="M34.9,95.94c.3-.05.24.65.21.81-.07.37-.24.71-.26,1.08-.03.39.16.75.3,1.11.1.26.16.52.16.81,0,.31-.18.58-.29.85-.07.17.03.27.14.09.09-.14.17-.28.23-.43.14-.33.1-.66.06-1.01-.02-.21-.03-.41-.1-.6-.07-.19-.17-.36-.24-.55-.08-.2-.12-.34-.03-.55.08-.18.18-.33.22-.53.05-.28.11-.91-.23-1.06-.06-.03-.11-.01-.17,0Z"/>
          </g>
          <g>
            <path class="cls-3" d="M34.99,107.06c1.1-.86,1.38-1.71,1.44-3.17.08-1.89-1.56-.2-1.74-.12.78,1.53-1.44,2.25-2.2,3.16-.56.67-1.31,2.49.28,2.39.99-.06,1.6-1.76,2.23-2.25Z"/>
            <path class="cls-5" d="M35.34,103.25c.18-.13.6-.09.77,0,.27.16.24.5.19.77-.08.5-.23.95-.38,1.44-.16.53-.46.89-.86,1.29s-.75.77-1.06,1.28-.72.9-1.21,1.21c0,0,.01.05.01.05.43.12.76-.42,1.03-.67.43-.42.85-1.29,1.32-1.67.43-.35.85-.85,1.03-1.38s.23-1.19.26-1.75c.01-.29.03-.68-.24-.86s-.61-.11-.87.29Z"/>
          </g>
          <g>
            <path class="cls-3" d="M30.14,103.11c-.5,1.32-2.49.88-3.33,2.01-.35.48-.81,1.39-.11,1.76.55.29,1.53-.24,1.85-.71.92.66,1.55-.28,1.79-1.15.13-.46.21-2.73-.21-1.91Z"/>
            <path class="cls-5" d="M29.97,103.19c.27-.32.25.22.25.38,0,.26-.03.51-.09.77-.11.5-.18,1.07-.47,1.5-.1.15-.52.34-.46.52.11.34.62-.22.71-.33.4-.49.44-1.19.52-1.78.04-.3.1-.61.08-.92,0-.08-.02-.35-.11-.39-.14-.06-.28.17-.43.25Z"/>
            <path class="cls-5" d="M28.53,106.15c-.2.23-.63.32-.91.39-.36.09-.61.15-.96,0-.21-.09-.19-.27-.36-.37-.31.3.39.91.68.91.4,0,.79-.27,1.12-.46.19-.11.42-.22.42-.47Z"/>
          </g>
          <g>
            <path class="cls-3" d="M24.87,89.5c.67.41,1.32,1.08,2.08,1.31,1.29.39.43-.52.02-1.02-.51-.63-.84-1.29-1.56-1.75-.82-.53-1.42.13-2.38-.26.27,1.43,1.17,1.32,1.84,1.73Z"/>
            <path class="cls-5" d="M24.17,87.82c.26.18.6.24.88.37.32.15.54.38.75.66.37.5.89.95,1.25,1.46.08.11.37.72.56.59.27-.18-.33-.77-.41-.89-.38-.53-.8-1.04-1.2-1.55-.22-.27-.58-.55-.9-.67-.38-.14-.54.03-.92.02Z"/>
          </g>
          <g>
            <path class="cls-3" d="M19.94,92.37c-.39-.22-1.5.12-.84,1.55.28.62.98.54,1.67.77.9.31,1.81.74,2.64,1.22,1.16.67,3.77,2.32,4.54.13,1.38-3.92-7.86-5.95-8.01-3.68Z"/>
            <path class="cls-5" d="M22.45,91.41c.21.15.6.08.85.15.27.07.55.16.82.25.57.18,1.1.4,1.64.67,1.13.55,1.94,1.75,1.77,3.05-.1.75-.52,1.15-1.08,1.56.47.37,1.23-.34,1.42-.74.27-.56.19-1.38.02-1.97-.24-.83-.7-1.09-1.35-1.49-.61-.38-1.04-.92-1.71-1.21-.76-.33-1.69-.19-2.39-.26Z"/>
          </g>
          <path class="cls-5" d="M22.78,97.92c.22-.04.39-.04.56.12.06.06.1.15.15.21.07.09.08.07.17.11.24.11.47.48.32.77-.08.15-.27.24-.44.26.07-.13.21-.15.27-.28.05-.1.06-.26,0-.37-.07-.13-.23-.21-.31-.32-.09-.13-.14-.25-.29-.35-.1-.06-.37-.09-.44-.15Z"/>
          <g>
            <g>
              <path class="cls-3" d="M14.42,86.64c.87.73,1.41,1.34,2.38,1.79.37.17.86.74,1.31.62.44-.12.8-1.03.78-1.41-.06-1.01-1.05-1.4-1.89-1.73-.63-.65-1.65-1.25-2.36-1.19-1.45.12-.88,1.37-.22,1.92Z"/>
              <g class="cls-7">
                <path class="cls-2" d="M17.4,77.7l.03.02"/>
                <path class="cls-2" d="M17.51,77.79l.06.1"/>
              </g>
            </g>
            <path class="cls-5" d="M17.01,85.93c.21.17.4.33.64.43.19.09.43.19.58.35.45.46.45.93.27,1.53-.06.21-.18.35-.33.5-.1.1-.22.2-.26.34.18.24.69-.43.74-.54.12-.24.23-.54.25-.81.03-.6-.51-1.16-.99-1.41-.15-.08-.26-.14-.4-.23s-.4-.22-.5-.16Z"/>
          </g>
          <g>
            <path class="cls-3" d="M15.01,92.43c.73-.49.81-.37.77-1.33-.03-.76-.05-.99-.61-1.55-.83-.83-2.1-1.64-3.17-1.98-.77-.24-2.95-.54-1.84,1.03.38.54,1.07.54,1.58.88.48.32,1.07,2.06.08,1.55-.08.59-.58,1.41.18,1.89.4-.29,1-.28,1.47-.22.87.13.83.2,1.55-.28Z"/>
            <path class="cls-5" d="M9.85,87.61c.5-.5,1.31-.37,1.96-.22.85.2,1.64.48,2.35.98.66.46,1.59,1.07,1.75,1.92.11.61.06,1.15-.27,1.65-.18.26-.41.4-.69.53-.23.11-.45.25-.69.33-.06.02-.13.04-.19.04,0-.2.59-.41.74-.53.27-.21.53-.43.77-.68.41-.45.16-1.48-.2-1.89-.22-.24-.51-.45-.75-.67s-.49-.45-.8-.57-.59-.32-.89-.45c-.33-.14-.58-.31-.95-.39-.33-.07-.66-.13-1-.11-.29.01-.59.12-.88.07-.07-.01-.14-.05-.22-.05-.03-.08,0-.16-.02.03Z"/>
          </g>
          <g>
            <path class="cls-3" d="M21.61,107.14l-.26-.32c-.08.42-.19,1.06.13,1.35.78.7.43-.69.13-1.03Z"/>
            <path class="cls-5" d="M21.34,106.86c.12.08.18.12.27.25.07.11.14.2.22.31.13.19.19.48.2.71,0,.07-.05.25-.13.28-.13.04-.04-.14-.02-.19.08-.22.04-.44-.05-.66-.07-.16-.12-.33-.24-.47-.06-.08-.23-.18-.23-.23Z"/>
          </g>
          <g>
            <path class="cls-3" d="M18.82,104.41l.02.2c-.34-.99-1.9-.17-.88.96.29.32.97.73,1.24.16.18-.39-.3-.94-.38-1.33Z"/>
            <path class="cls-5" d="M17.95,104.23c.05-.09.18-.1.27-.09.1.02.2.04.3.07.08.03.17.05.24.1s.1.13.14.2c.06.1.09.22.12.33.04.14.1.24.18.36.11.16.11.4.02.57-.06.1-.15.21-.26.24-.06.02-.19.03-.25.01.02-.05.07-.07.12-.09.07-.03.13-.08.2-.12.16-.11.2-.31.11-.48-.1-.21-.31-.4-.34-.64-.02-.18-.18-.27-.35-.3-.1-.02-.2-.03-.3-.04-.04,0-.13-.02-.17-.05-.03-.02-.02-.05-.02-.07Z"/>
          </g>
          <g>
            <path class="cls-3" d="M14.53,100.03l.25.2c-.42.62.86,1.84,1.43,1.38,1.07-.86-1.05-1.63-1.68-1.58Z"/>
            <path class="cls-5" d="M15.94,100.45c.21.09.42.4.45.62.02.24-.24.39-.42.49-.08.04-.17.1-.04.16.1.05.27-.03.35-.08.22-.15.31-.39.24-.63-.03-.12-.14-.25-.22-.33-.04-.04-.09-.08-.14-.1-.03-.02-.06-.04-.07-.07l-.14-.05Z"/>
          </g>
          <g>
            <path class="cls-3" d="M11.81,99.05c-.19-.18-.34-.56-.56-.7-.06-.04-.12-.06-.18-.08-.02-.05-.04-.1-.07-.14-.35-.08-1.8-.57-2.08-.45-.84.37-.28,1.24.18,1.58.54.4,1.07.75,1.68.76.25,0,.51-.21.79-.15.27.06.58.46.85.56.6-.72-.2-1-.6-1.38Z"/>
            <path class="cls-5" d="M11.67,98.88c.06.12.17.2.29.28.06.04.12.09.17.15.04.04.1.07.14.11.08.07.13.14.2.21.1.09.14.23.16.37s-.05.25-.14.35c-.02.03-.06.07-.1.07-.06,0-.06-.03-.03-.07.06-.11.15-.24.16-.37.02-.21-.14-.32-.28-.44-.13-.12-.28-.22-.4-.35-.09-.09-.17-.14-.19-.28,0-.02,0-.04,0-.04Z"/>
            <path class="cls-5" d="M11.42,99.85c-.06.02-.13,0-.19,0-.07,0-.14.02-.22.02-.09,0-.18,0-.26,0s-.17.03-.25.03-.18-.03-.26-.06c-.1-.05-.22-.09-.32-.15-.09-.05-.18-.13-.27-.17s-.2-.07-.29-.12-.14-.14-.25-.19c-.07-.03-.18-.21-.26-.19,0,.05.09.19.13.21.12.07.24.13.35.21s.21.16.33.23c.09.05.18.09.26.14.32.2.72.28,1.1.26.12,0,.39-.05.4-.22Z"/>
          </g>
        </g>
      </g>
      <g>
        <g>
          <path class="cls-15" d="M110.71,134.35c20.43-7.53,46.61-34.06,57.43-52.76,12.49-21.58,1.29-72.97-26.37-72.46,0,0-28.05-15.1-50.6,5.65C59.89-1.56,33.34-14.25,27.44,33.01c-.29,2.31,4.02,30.72,5.9,34.37,6.75,13.09,21.59,14.09,27.09,29.39,4.46,12.4-5.28,26.2,4.98,36.46,11.31,11.3,32.51,5.85,45.31,1.13Z"/>
          <g class="cls-9">
            <g>
              <path class="cls-16" d="M92.64,22.06c-3.67,4.43-.27,5.71,1.58,9.62,1.76,3.72,1.97,8.08,3.57,11.86,1.92,4.54,5.76,5.65,9.38,8.65,4.9,4.05,7.44,9.44,10.64,14.78,2.89,4.81,7.06,9.16,12.25,10.75,5.2,1.59,9.62,2.4,13.25,7.03,3.74,4.78,4.23,8.31,10.77,9.94,3.67.91,7.53.49,11.37.2.6-.26,1.18-.53,1.69-.78,7.33-3.7,9.15-10.41,11.42-18.02,1.35-4.54,1.61-8.09,3.89-12.47,2.76-5.31,4.04-11.5,3.23-17.56-1.13-8.49-5.54-14.6-10.69-21.11-4.35-5.51-7.79-12.1-12.76-17.06C154.38.06,142.04.42,131.7-.16c-9.11-.51-16.59.3-23.6,6.12-2.86,2.37-4.48,6.24-7.04,9.14-2.42,2.75-6.25,4.35-8.42,6.96Z"/>
              <path class="cls-16" d="M169,94.7c-1.18.02-2.36.1-3.55.19-1.21.53-2.51,1.02-3.61,1.27l7.16-1.46Z"/>
              <path class="cls-16" d="M122.42,151.81c11.72-5.29,20.11-18.06,24.77-29.73,1.26-3.16,8.28-15.6,3.13-17.67-5.81-.56-12.34-3.46-15.78-6.21-5.4-4.32-8.12-10.57-13.2-14.87-8.19-6.93-13.98-16.28-21.13-24.21-3.63-4.03-8.19-22.64-13.28-24.51-4.38,2.79-8.7,12.56-10.01,16.66-1.57,4.91-2.68,11.56-3.66,17.05-.64,3.57.78,6.44-.36,9.98-.95,2.93-1.57,4.89-2.07,7.8-.84,4.83-1.33,8.14-4.83,11.52-6.98,6.76-15.35,20.57-12.17,31.09,8.24,27.18,46.03,33.27,68.6,23.09Z"/>
              <path class="cls-16" d="M157.44,103.47l-7.32.84c.07.02.12.07.19.1,2.65.25,5.14.02,7.13-.94Z"/>
              <path class="cls-16" d="M56.86,91.23c1.07-2.02,2.94-3.78,4.09-5.92,2.29-4.27,4.65-8.88,4.23-13.68-.52-5.94-.2-8.85,2.7-14.23,2.17-4.03,6.28-8.16,4.03-12.79-5.97-12.26-21.46.11-29.79-.34-5.24-.28-6.78-4.69-12.47-4.34-8.69.53-11,8.5-10.74,16.93.38,12.84,7.12,25.16,18.66,31.19,5.48,2.86,11.91,5.47,16.29.33l1.69,12.02c.59-3.54-.37-5.97,1.32-9.16Z"/>
              <path class="cls-16" d="M47.34,39.55c2.81-3.42,15.21-6.81,18.08-5.79,5.29,1.89,8.95,4.61,11.82-.05,8.36-13.61,14.18-21.46,22.44-26.79l-7.55,3.85c-1.18-4.05-6.16-9-9.37-11.87-5.26-4.72-10.52-12.55-17.81-14.35-9.06-2.23-18.2,4.34-25.29,9.38C31.27-.12,24.57,6.15,24.51,16.93c-.05,8.35,2.66,9.31,9.4,11.37,5.81,1.77,7.01,11.97,13.43,11.25Z"/>
            </g>
            <path class="cls-17" d="M150.92,104.38c-11.69-1.24-19.34-6.25-27.55-1.34-4.37,2.61-7.17,7.05-12.1,8.19-4.63,1.06-10.44,3.72-15.23,3.1-5.12-.67-5.21,13.9-8.82,10.92-1.58-1.31-2.9-2.83-5.05-3.46-2.29-.67-4.44-.71-6.69-1.67-2.58-1.1-4.95-3.29-7.76-3.78-3.29-.57-6.51,1.11-9.04,3.1-3.44,2.72-5.02,7.02-3.66,11.18,3.51,10.75,14.54,15.47,24.95,17.21,11.69,1.95,24.07-2.81,34.69-7.48,6.4-2.81,12.66-6.47,18.42-10.41,4.46-3.05,7.64-6.91,10.62-11.38,1.27-1.91,4-4.89,4.46-7.07.16-.79.32-1.47-.43-2l3.19-5.1Z"/>
            <path class="cls-17" d="M161.26,96.21c-2.22-.77-4.42-1.4-4.41-4.17s1.75-5.65,3.04-8.07c5.18-9.68,8.05-10.13.67-20.87-2.99-4.35-9.86-2.21-12.67-7.08-2.48-4.3.08-7.54,1.7-11.4,1.48-3.52,2.49-18.11-1.01-21.54-6.17-6.04-13.2,6.5-20.51,3.34-1.21-.52-2.46-1.21-3.77-1.43-2.72-.45-5.63,1.23-8.09,2.17-2.29.87-4.29,2.48-6.56,3.3-2.07.75-3.63-.1-5.46-.97-3.78-1.79.91-20.09,5.2-24.55,3-3.12.56-7.92,4.07-10.39,2.36-1.66,5.29-1.68,8.1-1.99,4.21-.47,8.58-.72,12.8-.37,10.23.84,19.94,2.46,28.92,7.87,5.68,3.42,11,7.46,14.84,12.93,4.19,5.96,7.12,13.84,8.17,21.03,1.01,6.89.55,14.96-.93,21.72-1.27,5.79-2.19,11.84-4.23,17.41-2.07,5.66-5.32,10.68-9.63,14.91-2.01,1.97-5.6,5.13-8.18,6.15-.72.29-1.87.1-2.05,1.98Z"/>
            <path class="cls-17" d="M56.93,90.62c1.96-1.3-.24-4.52-.76-5.99-.37-1.06-.33-2.25-.94-3.24-.81-1.31-2.34-2.18-3.38-3.29-4.31-4.63,10.61-11.49,9.75-17.12-.53-3.51-3.64-7.47-6.21-9.69-2.23-1.94-16.37-3.76-18.69-5.58-1.82-1.43-3.2-3.49-5.06-4.69-1.92-1.24-4.21-1.2-5.72.67-1.89,2.34-2.51,6.24-2.91,9.09-.66,4.72.79,9.61,2.53,13.91,2.03,5.02,4.28,10.78,7.92,14.85,3.53,3.96,7.5,7.04,12.17,9.56,2.07,1.11,4.71,2.73,7.14,2.63,1.16-.05,1.77-.66,4.15-1.12Z"/>
            <path class="cls-17" d="M91.48,14.56c-5.25,3.66-8.47,1.49-13.66,1.13-3.39-.24-6.45,4.36-9.04,6.21-5.71,4.07-15.97.65-22.63-1.24-3.19-.91-6.54-1.98-9.83-2.47-2.38-.35-4.77.04-7.09-.37-9.54-1.65-.73-15.63,2.26-19.2,6.3-7.5,15.47-10.87,25.05-11.83,5.2-.52,8.87.51,13.44,2.49,5.11,2.21,9.19,6.24,13.32,9.88,2.68,2.36,6.33,4.61,7.77,7.96.75,1.73,2.21,5.21.43,7.44Z"/>
            <g>
              <path class="cls-3" d="M141.76,30.04c-.68,3.88-5.81,4.25-8.75,3.43-2.72-.76-4.81-2.83-7.37-3.94-5.75-2.5-12.75,3.07-12.1,9.19.39,3.65,4.31,6.87,8.08,4.89,2.62-1.37,2.94-4.68,6.35-5.12,2.59-.33,4.76,1.28,7.02,2.24,2.89,1.23,6.08.82,8.51-1.31,3.86-3.38,4.05-9.32-1.74-9.38Z"/>
              <path class="cls-3" d="M147.12,16.28c1.48-.04,3.92.48,5.1,1.55s2.48,3.81,1.23,4.5c-2.77,1.53-7.28-2.79-6.33-6.06Z"/>
              <g>
                <path class="cls-3" d="M96.63,119.56c-2.37,2.14-4.02,1.98-1.59,4.63,2.04,2.22,4.75,3.77,7.82,2.76,2.93-.96,4.73-3.11,8.07-3.44,2.51-.25,5.22-.13,7.56-1.13,1.66-.71,3.87-2.44,5.09-3.65.57-.56.84-1.09.98-1.62.59-2.23-.45-4.68-2.44-5.85-5.84-3.44-17.12.61-25.49,8.3Z"/>
                <path class="cls-3" d="M113.64,91.32c-1.25,1.03-1.77,1.89-3.51,2.13-2.28.32-2.39-.79-3.75-2.3-1.33-1.48-2.39-2.3-3.24-4.18-.71-1.57-1.29-2.27-2.47-3.45-2.66-2.65-3.42-4.4-7.75-3.99-3.53.33-6.13.73-9.01,2.73-8.57,5.96-.99,18.92,8.28,16.53,5.09-1.31,8.54-1.67,12.92,1.25,3.15,2.11,10.07,4.33,13.29,1.32,3.8-3.55-.12-12.26-4.75-10.05Z"/>
                <path class="cls-3" d="M141.93,62.75c-.38,1.95.06,2.36,2.05,2.97,1.81.56,3.65.35,5.48.17,2.3-.22,5.06,0,7.05-1.3,1.19-.77,3.64-2.39,4.56-3.51,2.75-1.47-.58-7-2.38-7.86-3.37-1.61-4.91.05-7.6,1.88-1.82,1.24-3.01,1.59-5.12,2.09-3.07.74-3.48,2.62-4.06,5.55Z"/>
                <path class="cls-3" d="M155.94,73.45c-1.73.57-2.59,1.71-4.48,2.24-1.84.51-2.5,1.57-.02,2.55,1.75.69,3.53.25,5.25-.1,1.06-.22,3.21-.19,3.88-1.3.15-.25,2.34-5.67-4.62-3.39Z"/>
                <path class="cls-3" d="M142.17,70.26c-.94-1.56-2.44-.95-3.78-1.15,0,0-2.68-1.52-1.49,1.35.46,1.1,2.84,1.91,3.9,1.86,1.54-.08,2.23-.64,1.37-2.06Z"/>
                <path class="cls-3" d="M85.51,129.58c1.1-1.73.5-3.98.67-5.85.17-1.89-.04-2.99-1.65-2.56-3.03-.3-1.55-4.71-.7-6.28,1.08-1.99,2.18-3.37-.45-4.9-2.99-1.74-9.96.95-10.65,4.33-.24,1.17.5,2.34.19,3.51-.23.88-1.41,1.58-1.6,2.33-.65,2.51,1.56,4.83,2.98,6.49,2.02,2.37,8.64,6.96,11.2,2.94Z"/>
                <path class="cls-3" d="M60.87,60.94c.53-1.41,2.26-5.56.44-6.67-1.81-1.09-3.26,1.23-3.77,2.58-.36.96-1.93,5.18-1.54,6.14,1.24,3.08,4.06-1.34,4.87-2.05Z"/>
                <path class="cls-3" d="M89.14,67.05c2.13-1.04,3.06-3.64,2.43-5.92-.79-2.82-2.35-6.45-3.54-7.17-1.81-1.09-3.26,1.23-3.77,2.58-.36.96-1.93,5.18-1.54,6.14.97,2.39,3.3,5.89,6.42,4.37Z"/>
                <path class="cls-3" d="M51.08,68.68c-5.79-1.39-3.17-9.44-4.23-13.4-1.24-4.67-6.77-6.43-10.07-2.55-2.83,3.34-1.9,9.86-.25,13.53,1.43,3.19,4.96,7.24,8.83,7.43,2.97.15,4.88-2.96,5.72-5Z"/>
                <path class="cls-3" d="M60.33,75.62c.14-1.16-.62-2.23-1.76-2.45-1.98-.38-4.42-.5-4.25,1.27.08.83,1.1.83.92,2.11-.13.89-1.78,2.05-.75,2.24,4.49.82,5.63-1.37,5.84-3.17Z"/>
                <path class="cls-3" d="M57.04,46.13l-2.59-.89c-1.59.26-4.5,1.85-1.7,2.65,1.64.47,3.35-.53,4.29-1.77Z"/>
                <path class="cls-3" d="M52.28,5.95c-5.52.6-2.21,5.6.54,7.49,3.46,2.38,9.35,3.52,13.53,3.72,1.61.08,8.65-2.4,5.06-4.62,0,0-6.62-.88-9.39-2.52-3.05-1.8-5.89-4.5-9.73-4.08Z"/>
                <path class="cls-3" d="M37.99,15.48c3.11-1.33,5.17-5.31,5.64-8.46.3-2.03-.19-3.76.74-5.6.91-1.79,2.24-2.69,2.1-4.98l-1.68,2.79c-1.33-1.28-1.68-2.46-3.8-2.51-2.1-.05-4.29,1.27-5.75,2.68-2.21,2.13-4.48,4.53-5.36,7.54-.6,2.05-1.54,6.63-.53,8.69,1.09,2.22,6.59.72,8.64-.16Z"/>
                <path class="cls-3" d="M60.16,22.95s.1-.06.15-.1c-.09-.04-.13,0-.15.1Z"/>
                <path class="cls-3" d="M54.63,26.97c1.28-.89,3.16-3.7,2.21-5.24-.95-1.54-4.57-.55-6.38-1.33-2.24-.96-6.76-4.06-7.28.99-.73,7.12,7.56,8.28,11.45,5.58Z"/>
              </g>
              <path class="cls-3" d="M132.25,14.27c-.94,1.08-3.46.66-4.54-.04s-1.42-2.31-2.52-3.08c-1.75-1.22-5.36-.78-7.04.46-2.95,2.18.82,2.6,2.3,3.62,2.48,1.71,2.04,3.78,5.87,3.76,2.24,0,6.34-.44,5.92-4.72Z"/>
            </g>
            <path class="cls-5" d="M92.53,12.44c-1.87,1.05-2.42,3.16-4.91,2.88-2.28-.26-4.89-1.91-7.03-2.91-2.36-1.11-4.24-3.05-6.74-4.05-2.61-1.05-4.87-.61-7.63-.35-3.12.29-5.47-.83-8.29-2.03-2.63-1.13-7.36-3.5-8.31-6.29-1.74-5.09,1.47-8,6.4-8.64,6.02-.77,11.9,1.82,17.12,4.6,3.32,1.76,6.9,3.38,9.85,5.72,1.69,1.34,3.26,2.85,4.87,4.27,1.45,1.29,5.65,4.49,4.66,6.82Z"/>
            <path class="cls-5" d="M56.99,91.02c-.74-1.23-.58-2.8-1.24-4.15-.63-1.29-1.25-2.4-2.23-3.44-1.72-1.82-3.51-3.79-5.34-5.62-4.11-4.13-10.92-6.33-12.88-12.33-2.12-6.49.37-13.95-2.12-20.21-1.17-2.94-3.23-4.94-6.44-4.48-8.84,1.28-8.39,14.71-6.03,21.05,1.9,5.1,3.43,10.71,6.95,14.97,2.93,3.55,6.56,5.87,10.49,8.23,3.98,2.39,9.04,4.24,13.58,4.75.61.07,1.29.26,1.86.14"/>
            <path class="cls-5" d="M152.93,104c-3.41,1.6-6.82.67-9.3,4.05-1.77,2.41-3.16,4.95-5.19,7.14-1.87,2.01-4.36,3.04-6.51,4.68-9.65,7.39-21.12,10.94-32.83,13.5-5.69,1.25-12.55,2.09-18.17.37-6.43-1.96-11.96-5.8-16.74-10.51-1.24-1.22-2.03-2.48-2.95-3.89-1.27-1.94-2.6-1.14-3.15,1.09-3.57,14.29,13.8,23.07,25.2,24.98,9.54,1.6,20.27,1.61,29.25-2.29,4.24-1.84,8.05-4.63,12.04-6.92,3.63-2.08,6.7-4.41,9.83-7.16,5.2-4.57,10.6-9.56,14.78-15.1,1.62-2.15,3.81-5.3,3.1-8.18-.17-.71-.66-1.41.64-1.77Z"/>
            <path class="cls-5" d="M159.42,95.21c-2.65-.79.6-6.59,1.19-8.19,1.3-3.53,2.97-6.9,4.6-10.29,1.32-2.75,3.49-5.92,3.48-9.02,0-2.61-1.1-6.12-1.92-8.56-1.13-3.4-2.55-6.14-5.49-8.28-2.44-1.78-6.36-2.17-7.95-5.02-1.54-2.76.48-7.47,1.41-10.23,1.08-3.25,3.37-6.25,3.54-9.67.14-2.86-.82-5.56-2.71-7.67-1.72-1.93-4.92-2.87-7.24-3.66-2.99-1.03-6.57-.87-9.53-2.13-1.63-.69-3.06-1.28-4.83-1.49-2.1-.24-3.83.09-5.67-.88-1.24-.65-2.25-1.91-3.58-2.31-1.6-.49-3.91-.2-5.56-.16-2.86.06-6.12-.26-8.17-2.42-.89-.94-1.52-2.4-.77-3.67.54-.9,1.84-1.61,2.62-2.38,1.57-1.54,3.12-2.85,5.21-3.69,7.41-3,16.13-2.16,23.92-1.89,11.71.41,24.24,2.09,34.74,7.57,8.58,4.48,16.14,10.23,18.98,19.88,1.85,6.29,1.79,12.07.24,18.33-1.25,5.04-3.51,9.78-4.97,14.77-1.2,4.11-2.75,7.57-4.53,11.46-3.2,6.95-6.68,13.96-12.17,19.4-2.18,2.16-4.46,4.24-6.64,6.34-1.23,1.18-2.37,2.61-3.78,3.57-.95.65-2.32.38-4.42.29Z"/>
            <path class="cls-5" d="M124.69,115.14c-.82,2.51-2.8,3.9-4.98,5.3-2.29,1.47-4.74,1.06-7.32,1.38-5.2.64-10.19,5.27-15.34,1.9-.54-.35-2.17-2.2-2.74-1.82-.87.59.51,2.54.94,2.96,1.71,1.69,4.15,2.31,6.43,2.41,2.36.11,4.27-.97,6.24-2.13,2.15-1.26,4.36-1.33,6.79-1.5,1.98-.14,4.31-.47,5.93-1.62,1.53-1.08,4.6-3.33,4.57-5.47,0-.5-.23-1.01-.51-1.42Z"/>
            <path class="cls-5" d="M86.49,126.96c-.09,1.36-1.7,2.5-2.92,2.75-1.47.31-2.63-.6-3.88-1.26-2.72-1.46-4.12-3.23-5.95-5.63-.99-1.3-1.18-2.02-1.19-3.7-5.93,2.81,6.79,13.4,11.14,12.57.99-.19,1.47-.56,2.06-1.32s.61-2.08.74-3.42Z"/>
            <path class="cls-5" d="M119.33,94.86c1.16,1.81-1.05,4.12-2.33,5.01-1.39.97-2.69,1.41-4.42,1.29-3.86-.26-6.85-3.2-10.32-4.45-3.07-1.1-6.72-.65-9.95-.75-1.62-.05-3.42-.46-4.93-1.01-1.94-.7-2.47-2.04-2.93-3.97-.17-.73-.4-1.91-.59-2.94-.42-2.3.08-4.76,1.68-6.47.2-.22.43-.43.68-.64,0,0-1.87.43-4.21,3.02-.56.62-.99,1.33-1.27,2.12-.56,1.6-.8,2.9-.43,4.61.92,4.31,2.97,6.84,6.92,7.95s8.51-1.16,12.58-.74c1.79.18,3.12,1.18,4.78,2.09,1.27.7,2.5,1.08,3.76,1.58,2.03.8,4.22,1.21,6.39,1.04,3.38-.27,4.9-1.36,5.02-4.18.04-.89.01-1.85-.44-3.57Z"/>
            <path class="cls-5" d="M60.24,74.52c.21.41-.13,1.23-.3,1.61-.22.48-.55.96-.98,1.25-1.03.69-2.19.53-3.38.52-.28,0-.96-.09-1.18.14-.4.39.23.79.55.89.88.28,1.92.27,2.85.06s1.58-.68,1.99-1.52c.18-.37,1.24-1.97.57-2.28"/>
            <path class="cls-5" d="M51.07,68.73c-.45,1.06-1.49,2.11-2.3,2.81-.96.82-2.12,1.37-3.43,1.44-2.63.14-4.5-1.97-5.98-3.86-.7-.9-1.22-1.93-1.77-2.94-.56-1.03-1.02-1.86-1.24-3.01-.2-1.02-.3-2.06-.44-3.07-.15-1.08-.3-1.86-.04-2.9.28-1.1.4-2.2.94-3.2.5-.94,1.18-2.28,2.15-2.81.22-.12.52-.16.68-.33-1.2.11-2.1.28-3.01,1.19-.83.83-1.43,1.99-1.58,3.16-.16,1.23-.13,2.45-.13,3.69,0,.61-.02,1.22.15,1.81s.11,1.22.28,1.81c.15.5.3,1.22.43,1.73.16.61.45,1.19.64,1.79.42,1.31,1.15,2.25,2.01,3.33.96,1.2,1.48,1.75,2.69,2.64.98.73,2.45,1.72,3.76,1.76s2.99-.04,3.93-1.16c.44-.52.86-1.04,1.29-1.57.34-.42.7-1,.86-1.52.08-.27.09-.52.1-.79Z"/>
          </g>
        </g>
        <path class="cls-5" d="M60.94,60.9c-.22.15-.47.17-.68.33-.19.14-.4.31-.57.47-.42.4-.85.93-1.41,1.15s-1.13.19-1.51-.33c-.45-.61-.41-1.33-.11-1.99.16-.36.3-.72.45-1.09.1-.24.16-.56.09-.81-.57.44-.77,1.22-.92,1.89-.08.34-.15.7-.22,1.04-.08.36-.19.68-.17,1.06.04.74.44,1.32,1.16,1.54.24.08.5-.02.73-.13.4-.19.85-.4,1.17-.72.13-.13.21-.29.31-.45.12-.21.28-.37.43-.56.39-.47.84-.91,1.22-1.39.03,0,.07.01.04-.03Z"/>
        <path class="cls-5" d="M57.1,46.06c-.14.29-.55.46-.82.61-.34.2-.7.4-1.08.53-.78.27-1.76.29-2.52.04-.35-.11-.67-.29-1-.47-.54.65,1.23,1.31,1.64,1.36,1.05.13,2.27-.02,3.02-.85.24-.26.62-.75.77-1.24Z"/>
        <path class="cls-5" d="M57.15,23.31c-1.28.7-1.67,2.04-2.77,2.87-1.03.78-2.85.87-4.11.96-1.44.11-2.28-.21-3.42-1.09-.95-.74-1.9-1.51-2.42-2.64-.47-1.04-.43-2.2-.99-3.16-1.1.42-.4,3.04-.05,3.85.6,1.39,1.04,2.22,2.28,3.05,1.2.8,3.82,1.35,5.21,1.11,1.46-.25,2.67-.27,3.9-1.18.81-.6,2.69-2.53,2.35-3.78Z"/>
        <path class="cls-5" d="M72.49,13.74c-.54.88-1.83,1.34-2.81,1.62-1.4.41-3.15.54-4.6.37-1.93-.23-3.83-.95-5.78-1.19-2.19-.27-4.25-1.02-6.12-2.24-1.05-.68-1.94-1.53-2.66-2.55-.39-.54-1.07-1.27-1.07-1.98-.05.36.1.72.04,1.08s-.26.64-.2,1.03c.14.93,1.36,1.81,2.04,2.35.82.65,1.56,1.46,2.5,1.96.93.5,1.84,1.05,2.81,1.45,2.11.88,4.47,1.41,6.75,1.53,1.87.1,3.58.29,5.38-.28.53-.17,4.58-1.79,3.73-3.16Z"/>
        <path class="cls-5" d="M160.79,75.83c-.34,1.25-2.55,1.45-3.62,1.44-1.51-.02-3.06.66-4.54.47-.61-.08-1.23-.37-1.78-.67-.19-.1-.68-.52-.86-.28s.4.84.57.97c1.69,1.34,3.75.81,5.71.53,1.13-.16,2.34.04,3.42-.27.73-.21,1.81-1.01,1.1-2.2Z"/>
        <path class="cls-5" d="M142.63,71.4c-.72.93-2.82.3-3.68-.04-.71-.28-1.55-1.03-1.78-1.79-.08-.25.06-.8-.36-.79-.48.02-.36.74-.3,1.04.28,1.24,1.48,2.06,2.66,2.27.75.13,2.81.3,3.44-.7Z"/>
        <path class="cls-5" d="M148.38,56.38c-.25.4-1.29.6-1.72.86-.61.36-.97,1.01-1.5,1.45-.44.36-.98.49-1.45.79-.67.44-1.01,1.43-1.14,2.2-.14.85-.12,1.72-.2,2.57-.07.78-.68.72-.68-.08,0-.7.37-1.34.47-2.05.16-1.03.46-1.9,1-2.8.49-.81,1.05-1.91,1.94-2.27.75-.31,1.59-.66,2.41-.67h.86Z"/>
        <path class="cls-5" d="M159.77,55.2c2.36,2.2,1.16,5.84,2.15,5.37,1.04-.5.17-3.15-.22-3.86-.66-1.2-1.6-2.35-2.64-3.19-.55-.45-1.33-.66-2.01-.87-.4-.12-.69-.27-1.11-.22-.52.06-1.09.29-1.61.43-1.28.36-2.16.84-3.15,1.69-.61.52-1.83,1.08-2.15,1.83.75.12,1.94-.76,2.56-1.13.87-.52,1.68-1.22,2.68-1.49,1.12-.3,3.14-.75,5.5,1.44Z"/>
        <path class="cls-5" d="M129.52,31.67c-.81-.71-2.44-.75-3.5-1.03s-2.17-.81-3.26-.9c-2.73-.24-5.48,2.92-6.99,4.86-.57.73-1.15,1.44-1.39,2.35-.16.62-.07,1.44-.41,1.96-1.34-.48-.04-3.19.27-4.04.57-1.57,1.64-2.6,2.98-3.53,2.46-1.72,4.98-3.34,8.05-2.49,1.79.49,3,1.38,4.25,2.83Z"/>
        <path class="cls-5" d="M145.63,36.2c.18-1.58-.3-2.5-1.43-3.53-.63-.57-1.2-.67-2.02-.74-.81-.08-1.23-.29-1.08-1.2.31-1.86,2.11-1.46,3.29-.6,1.05.76,1.57,2.22,1.89,3.47.35,1.39.04,3.18-1.16,4.15-1.16-.46.31-1.96.5-1.55Z"/>
        <path class="cls-5" d="M129.83,16.2c-.96-.05-2.53-.9-3.32-1.53-.95-.76-.9-2.26-2.26-2.6-1.03-.26-2.34.04-3.4.05-.75,0-1.3-.01-1.96.27-.54.23-1.05.68-1.68.5-.18-1.02,2.07-1.98,2.84-2.4.99-.54,2.58-.72,3.64-.44,1.47.39,2,1.53,2.84,2.68.76,1.04,2.23,1.83,3.56,1.83.57,0,1.7-.64,2.17-.43.84.37-.02,1.65-.62,1.77l-1.81.31Z"/>
      </g>
    </g>
  </g>
</svg>