<?xml version="1.0" encoding="UTF-8"?>
<svg xmlns="http://www.w3.org/2000/svg" xmlns:xlink="http://www.w3.org/1999/xlink" viewBox="0 0 185.62 173.64">
  <defs>
    <style>
      .cls-1 {
        fill: none;
      }

      .cls-2 {
        fill: #273366;
      }

      .cls-3 {
        mix-blend-mode: overlay;
      }

      .cls-3, .cls-4 {
        fill: #a5cbd5;
      }

      .cls-5 {
        isolation: isolate;
      }

      .cls-6 {
        clip-path: url(#clippath-1);
      }

      .cls-7 {
        clip-path: url(#clippath-4);
      }

      .cls-8 {
        clip-path: url(#clippath-2);
      }

      .cls-9 {
        clip-path: url(#clippath-6);
      }

      .cls-10 {
        clip-path: url(#clippath-5);
      }

      .cls-11 {
        fill: #1c234b;
      }

      .cls-12 {
        fill: #3d4c72;
      }

      .cls-13 {
        fill: #7c92b1;
      }

      .cls-14 {
        clip-path: url(#clippath);
      }
    </style>
    <clipPath id="clippath">
      <path class="cls-11" d="M22.76,50.15c2.88-5.4,8.94-8.17,14.94-6.99,19.9,3.89,8.99-23.83,24.63-30.36,4.15-1.73,10.33.15,14.56-1.43,4.09-1.53,6.54-6.31,10.28-7.81,6.07-2.43,20.17-5.1,26.19-2.47,10.22,4.46,10.77,16.99,22.33,20.56,12.6,3.89,14.94.72,25.63,9.96,19.72,17.04,29.09,23.14,21.31,49.97-3.73,12.86-5.65,13.64-.85,25.83,4.11,10.45,6.5,10.59-1.27,21.9-12.52,18.23-23.94,22.7-41.69,30.82-6.2,2.83-18.6,12.83-24.03,13.45-9.84,1.12-24.46-12.73-33.65-16.25-4-1.53-9.72-1.46-13.28-3.33-5.63-2.96-4.8-6.22-10.04-9.64-5.83-3.81-19.95-8.1-26.87-9.57-15.02-3.18-19.4.91-26.53-14.55-5.23-11.34-6.59-15.98.12-27.17,6.08-10.15,7.99-12.71,10.1-24.24,1.57-8.59,4.9-12.66,8.12-18.68Z"/>
    </clipPath>
    <clipPath id="clippath-1">
      <path class="cls-11" d="M178.96,137.99c-.3-.66-.66-1.16-1.16-1.66l3.24-5.13c-2.45,2.36-5.64,1.75-9.6,3.22-3.18,1.17-8.09,3.96-10.58,6.31-2.11,2-7.89,9.03-5.06,11.83,2.02,1.99,9.91-1.23,11.99-2.19,5.33-2.44,7.79-7.62,11.16-12.37Z"/>
    </clipPath>
    <clipPath id="clippath-2">
      <path class="cls-1" d="M178.96,137.99c-.3-.66-.66-1.16-1.16-1.66l3.24-5.13c-2.45,2.36-5.64,1.75-9.6,3.22-3.18,1.17-8.09,3.96-10.58,6.31-2.11,2-7.89,9.03-5.06,11.83,2.02,1.99,9.91-1.23,11.99-2.19,5.33-2.44,7.79-7.62,11.16-12.37Z"/>
    </clipPath>
    <clipPath id="clippath-4">
      <path class="cls-1" d="M178.96,137.99c-.3-.66-.66-1.16-1.16-1.66l3.24-5.13c-2.45,2.36-5.64,1.75-9.6,3.22-3.18,1.17-8.09,3.96-10.58,6.31-2.11,2-7.89,9.03-5.06,11.83,2.02,1.99,9.91-1.23,11.99-2.19,5.33-2.44,7.79-7.62,11.16-12.37Z"/>
    </clipPath>
    <clipPath id="clippath-5">
      <path class="cls-1" d="M178.96,137.99c-.3-.66-.66-1.16-1.16-1.66l3.24-5.13c-2.45,2.36-5.64,1.75-9.6,3.22-3.18,1.17-8.09,3.96-10.58,6.31-2.11,2-7.89,9.03-5.06,11.83,2.02,1.99,9.91-1.23,11.99-2.19,5.33-2.44,7.79-7.62,11.16-12.37Z"/>
    </clipPath>
    <clipPath id="clippath-6">
      <path class="cls-1" d="M178.96,137.99c-.3-.66-.66-1.16-1.16-1.66l3.24-5.13c-2.45,2.36-5.64,1.75-9.6,3.22-3.18,1.17-8.09,3.96-10.58,6.31-2.11,2-7.89,9.03-5.06,11.83,2.02,1.99,9.91-1.23,11.99-2.19,5.33-2.44,7.79-7.62,11.16-12.37Z"/>
    </clipPath>
  </defs>
  <g class="cls-5">
    <g id="Calque_1" data-name="Calque 1">
      <g>
        <path class="cls-11" d="M22.76,50.15c2.88-5.4,8.94-8.17,14.94-6.99,19.9,3.89,8.99-23.83,24.63-30.36,4.15-1.73,10.33.15,14.56-1.43,4.09-1.53,6.54-6.31,10.28-7.81,6.07-2.43,20.17-5.1,26.19-2.47,10.22,4.46,10.77,16.99,22.33,20.56,12.6,3.89,14.94.72,25.63,9.96,19.72,17.04,29.09,23.14,21.31,49.97-3.73,12.86-5.65,13.64-.85,25.83,4.11,10.45,6.5,10.59-1.27,21.9-12.52,18.23-23.94,22.7-41.69,30.82-6.2,2.83-18.6,12.83-24.03,13.45-9.84,1.12-24.46-12.73-33.65-16.25-4-1.53-9.72-1.46-13.28-3.33-5.63-2.96-4.8-6.22-10.04-9.64-5.83-3.81-19.95-8.1-26.87-9.57-15.02-3.18-19.4.91-26.53-14.55-5.23-11.34-6.59-15.98.12-27.17,6.08-10.15,7.99-12.71,10.1-24.24,1.57-8.59,4.9-12.66,8.12-18.68Z"/>
        <g class="cls-14">
          <path class="cls-12" d="M123.7,7.19c1.31-5.43,2.06-10.45-4.07-12.86-2.51-.99-5.2-.33-7.5-1.76-3.13-1.94-4.03-5.77-8.52-5.95-7.95-.31-13.79,7.21-20.3,9.61-4.25,1.57-7.78-1.85-12.22-1.14-4.56.72-6.72,4.58-10.48,6.5-3.9,1.99-9.21.62-12.49,2.88-2.35,1.63-3.53,5.4-5.24,7.61-3.93,5.04-8.72,10.09-13.9,13.84-8.7,6.29-17.83,3.96-21.87,15.57-2.38,6.85-1.86,16.33-.71,23.38,1.42,8.71,2.87,12.97,10.05,18.01,5.24,3.69,7.16,7.39,11.29,11.76,3.06,3.24,11.78,5.4,17.16,5.93,4.85.47,10.81.56,15.59-.17,8.54-1.29,4.18-5.86,9.02-10.43,2.96-2.8,10.38-3.33,14.26-5.51,5.43-3.06,6.45-6.89,8.52-12.42,1.71-4.56,1.52-10.75,5.82-14.03,3.84-2.93,9.5-3.84,13.51-6.27,6.23-3.78,4.64-7.71,5.96-13.59,1.41-6.3,3.93-8.88,3.58-15.59-.35-6.82,1.65-11.69,2.53-15.35Z"/>
          <path class="cls-12" d="M137.57,19.36c-1.98,6.05-3.48,13.75-3.5,20.09-.01,4.07.67,7.17-.7,11.01-1.01,2.81-3.41,5.31-3.19,8.47.29,4.21,4.1,5.62,6.63,8.01,2.25,2.12,4.13,4.97,6.13,7.35,3.24,3.86,3.64,4.26,8.18,5,3.67.6,4.9.28,8.5,3.37,4.86,4.18,8.24,12.23,15.72,11.6,3.89-.33,5.71-4.2,8.8-5.18,2.67-.85,5.54.91,8.45-.22,8.96-3.5,7.8-14.19,5.6-21.3-3.45-11.12-3.52-19.26-12.65-27.74-2.66-2.47-6.07-3.83-8.69-6.22-3.06-2.79-4.26-6.8-6.86-9.94-3.07-3.71-8.9-4.04-13.41-6.62-5.66-3.24-19.08-3.15-19.03,2.34Z"/>
          <path class="cls-12" d="M185.96,99.11c-7.29,5.55-15.05,8.7-21.89,2.3-2.54-2.38-4.53-5.92-7.87-7.34-2.77-1.18-6.36-.22-9.22-1.2-14.36-4.94-17.91-23.01-32.34-27.63-6.98-2.24-12.6-1.56-16.04,5.84-2.78,5.98-1.15,15.17-7.53,19.07-2.39,1.46-6.17,1.49-8.88,3.16-2.98,1.85-5.44,4.46-7.57,7.5-4.91,7-7.51,9.25-16.28,9.44-7.98.17-12.44-3.41-19.8-5.5-7.08-2.01-14.58-4.07-20.63-8.36-6.55-4.65-9.88-12.33-18.73-7.07-7.55,4.49-8.54,12.16-10.25,20.18-2.73,12.81,1.3,27.19,10.2,37.4,9.73,11.16,26.1,15.96,39.85,20.27,12.63,3.96,23.17,1.05,35.81,2.02,6.62.51,13.98,1.54,20.49,2.62,9.61,1.59,17.98,8.14,28.61,9.06,13.5,1.17,32.55-2.32,43.39-10.56,10.36-7.87,19.18-21.28,25.64-32.6,5.12-8.96,4.75-20.47-2.89-28.39-2.44-2.53-7.6-7.27-10.79-5.15"/>
          <g>
            <g>
              <path class="cls-11" d="M183.23,127.74l-2.19,3.46c.81-.77,1.54-1.87,2.19-3.46Z"/>
              <g>
                <g>
                  <path class="cls-11" d="M178.96,137.99c-.3-.66-.66-1.16-1.16-1.66l3.24-5.13c-2.45,2.36-5.64,1.75-9.6,3.22-3.18,1.17-8.09,3.96-10.58,6.31-2.11,2-7.89,9.03-5.06,11.83,2.02,1.99,9.91-1.23,11.99-2.19,5.33-2.44,7.79-7.62,11.16-12.37Z"/>
                  <g class="cls-6">
                    <path class="cls-3" d="M168.73,141.04c-3.87,3.48-9.51,5.42-11.71,10.48-.68,1.55-.43,2.67,1.45,2.19,2.92-.76,5.55-2.6,8.13-4.09,3.5-2.02,6.15-4.97,8.61-8.14,1.09-1.41,2.38-2.72,3.27-4.25.62-1.06,1.75-2.21,2.06-3.41.88-3.44-3.67-.82-4.81.04-1.26.95-2.15,2.48-3.24,3.63-1.19,1.26-2.48,2.42-3.76,3.57Z"/>
                  </g>
                </g>
                <g class="cls-8">
                  <path class="cls-11" d="M168.73,141.04c-3.87,3.48-9.51,5.42-11.71,10.48-.68,1.55-.43,2.67,1.45,2.19,2.92-.76,5.55-2.6,8.13-4.09,3.5-2.02,6.15-4.97,8.61-8.14,1.09-1.41,2.38-2.72,3.27-4.25.62-1.06,1.75-2.21,2.06-3.41.88-3.44-3.67-.82-4.81.04-1.26.95-2.15,2.48-3.24,3.63-1.19,1.26-2.48,2.42-3.76,3.57Z"/>
                </g>
              </g>
              <path class="cls-11" d="M70.19,31.72c-9.14-3.16-11.42,14.27-10.41,18.25,1.71-.22,6.57-4.69,7.58-6.37,2.07-3.43.65-8.14,2.83-11.88Z"/>
              <path class="cls-11" d="M78.6,48.7c2.22,8.01,8.21,8.02,12.58,1.34,3.96-6.06,5.68-13.64,4.64-20.96.18-4.2-.88-8-6.45-8.56-10.87-1.09-12.73,21.07-10.76,28.18Z"/>
              <path class="cls-11" d="M53.94,70.9c-.72.13-1.35.56-1.82,1.13-2.03,2.44-8.3,10.52-1.54,9.86,5.18-.5,7.83-11.78,3.36-10.99Z"/>
              <path class="cls-11" d="M108.48,98.36c-1.95,7.18-2.12,11.47,6.35,13.72,3.07.82,6.22.85,9.38,1.47,3.92.78,5.63,3.54,9.21,4.82,8.53,3.04,11.95-6.26,8.41-12.4-2.98-5.17-6.12-3.6-9.97-6.32-4.05-2.87-3.32-7.98-8.49-4.56-6.45,2.23-5.91-5.61-10.71-5.03-3.51.43-3.6,6.14-4.19,8.29Z"/>
              <path class="cls-11" d="M120.7,137.14c-4.69-7.61-15.9-4.81-23.2-4.01-5.87.65-10.8-1.15-13.83-4.72-2.5-2.94-7.23-2.26-8.48,1.39-.58,1.7-.84,3.51-.77,4.97.2,4.56,3,7.44,5.29,11.06,6.94,11.01,16.1,11.38,28.08,7.64,6.59-2.06,18.18-7.8,12.92-16.34Z"/>
              <path class="cls-11" d="M27.73,111.48c-9.67,6.36,2.91,16.03,9.68,15.89,3.77-.08,9.59-2.48,14.26-8.7-7.94,1.04-17.39-11.5-23.94-7.19Z"/>
              <path class="cls-11" d="M151.52,63.21c1.87.29,3.09-1.89,2.83-3.63-.29-1.97-3.51-2.66-4.36-4.32-.71-1.38.5-5.02-.33-5.93-2.67-2.9-6.59,2.11-6.61,5.13-.03,5.08,5.77,3.79,6.16,7.54,0,0,.34.89,2.31,1.19Z"/>
              <path class="cls-11" d="M171.73,70.15c-.97-.95-1.73-2.06-2.4-3.23-1.47-2.58-5.78-4.68-8.3-2.61-2.89,2.38,1.75,6.97,3.26,9.64,1.62,2.87,6.37,8.62,10.01,4.45,2.32-2.65-.48-6.2-2.58-8.26Z"/>
              <path class="cls-11" d="M168.89,49.15c2.7,1.95,11.13,5.35,12.32-.25.79-3.72-7.19-10.1-9.56-12.36-2.83-2.69-9.66-10.44-17.2-14.08,3.6,4.88,3.24,10.17,5.31,15.38,1.61,4.06,5.54,8.71,9.14,11.31Z"/>
            </g>
            <g>
              <path class="cls-2" d="M183.23,127.74l-2.19,3.46c.81-.77,1.54-1.87,2.19-3.46Z"/>
              <g>
                <g class="cls-7">
                  <path class="cls-2" d="M168.73,141.04c-3.87,3.48-9.51,5.42-11.71,10.48-.68,1.55-.43,2.67,1.45,2.19,2.92-.76,5.55-2.6,8.13-4.09,3.5-2.02,6.15-4.97,8.61-8.14,1.09-1.41,2.38-2.72,3.27-4.25.62-1.06,1.75-2.21,2.06-3.41.88-3.44-3.67-.82-4.81.04-1.26.95-2.15,2.48-3.24,3.63-1.19,1.26-2.48,2.42-3.76,3.57Z"/>
                </g>
                <g class="cls-10">
                  <path class="cls-2" d="M168.73,141.04c-3.87,3.48-9.51,5.42-11.71,10.48-.68,1.55-.43,2.67,1.45,2.19,2.92-.76,5.55-2.6,8.13-4.09,3.5-2.02,6.15-4.97,8.61-8.14,1.09-1.41,2.38-2.72,3.27-4.25.62-1.06,1.75-2.21,2.06-3.41.88-3.44-3.67-.82-4.81.04-1.26.95-2.15,2.48-3.24,3.63-1.19,1.26-2.48,2.42-3.76,3.57Z"/>
                </g>
                <g class="cls-9">
                  <path class="cls-2" d="M168.73,141.04c-3.87,3.48-9.51,5.42-11.71,10.48-.68,1.55-.43,2.67,1.45,2.19,2.92-.76,5.55-2.6,8.13-4.09,3.5-2.02,6.15-4.97,8.61-8.14,1.09-1.41,2.38-2.72,3.27-4.25.62-1.06,1.75-2.21,2.06-3.41.88-3.44-3.67-.82-4.81.04-1.26.95-2.15,2.48-3.24,3.63-1.19,1.26-2.48,2.42-3.76,3.57Z"/>
                </g>
              </g>
              <path class="cls-2" d="M70.19,31.72c-9.14-3.16-11.42,14.27-10.41,18.25,1.71-.22,6.57-4.69,7.58-6.37,2.07-3.43.65-8.14,2.83-11.88Z"/>
              <path class="cls-2" d="M78.6,48.7c2.22,8.01,8.21,8.02,12.58,1.34,3.96-6.06,5.68-13.64,4.64-20.96.18-4.2-.88-8-6.45-8.56-10.87-1.09-12.73,21.07-10.76,28.18Z"/>
              <path class="cls-2" d="M53.94,70.9c-.72.13-1.35.56-1.82,1.13-2.03,2.44-8.3,10.52-1.54,9.86,5.18-.5,7.83-11.78,3.36-10.99Z"/>
              <path class="cls-2" d="M108.48,98.36c-1.95,7.18-2.12,11.47,6.35,13.72,3.07.82,6.22.85,9.38,1.47,3.92.78,5.63,3.54,9.21,4.82,8.53,3.04,11.95-6.26,8.41-12.4-2.98-5.17-6.12-3.6-9.97-6.32-4.05-2.87-3.32-7.98-8.49-4.56-6.45,2.23-5.91-5.61-10.71-5.03-3.51.43-3.6,6.14-4.19,8.29Z"/>
              <path class="cls-2" d="M120.7,137.14c-4.69-7.61-15.9-4.81-23.2-4.01-5.87.65-10.8-1.15-13.83-4.72-2.5-2.94-7.23-2.26-8.48,1.39-.58,1.7-.84,3.51-.77,4.97.2,4.56,3,7.44,5.29,11.06,6.94,11.01,16.1,11.38,28.08,7.64,6.59-2.06,18.18-7.8,12.92-16.34Z"/>
              <path class="cls-2" d="M27.73,111.48c-9.67,6.36,2.91,16.03,9.68,15.89,3.77-.08,9.59-2.48,14.26-8.7-7.94,1.04-17.39-11.5-23.94-7.19Z"/>
              <path class="cls-2" d="M151.52,63.21c1.87.29,3.09-1.89,2.83-3.63-.29-1.97-3.51-2.66-4.36-4.32-.71-1.38.5-5.02-.33-5.93-2.67-2.9-6.59,2.11-6.61,5.13-.03,5.08,5.77,3.79,6.16,7.54,0,0,.34.89,2.31,1.19Z"/>
              <path class="cls-2" d="M171.73,70.15c-.97-.95-1.73-2.06-2.4-3.23-1.47-2.58-5.78-4.68-8.3-2.61-2.89,2.38,1.75,6.97,3.26,9.64,1.62,2.87,6.37,8.62,10.01,4.45,2.32-2.65-.48-6.2-2.58-8.26Z"/>
              <path class="cls-2" d="M168.89,49.15c2.7,1.95,11.13,5.35,12.32-.25.79-3.72-7.19-10.1-9.56-12.36-2.83-2.69-9.66-10.44-17.2-14.08,3.6,4.88,3.24,10.17,5.31,15.38,1.61,4.06,5.54,8.71,9.14,11.31Z"/>
            </g>
          </g>
          <path class="cls-13" d="M182.03,101.97c-6.05,1.23-4.43,5.77-5.21,10.59-.35,2.19-.5,3.89-1.36,5.88s-2.42,3.78-2.76,5.9c-.67,4.22,2.38,8.16,6.15,9.52,7.07,2.55,11.86-7.52,12.26-13.43.5-7.36-2.98-13.71-9.08-18.47Z"/>
          <path class="cls-13" d="M156.15,153.19c1.23-9.58-23.75,1.89-26.72,2.96-4.31,1.55-8.17,4.13-12.14,6-4.09,1.93-9.93.86-14.09-.59-4.86-1.7-9.65-4.11-14.46-5.83-4.05-1.45-7.2-1.78-5.9,3.81,2.46,10.58,14.58,18.85,23.58,23.36,10.08,5.05,33.13,11.15,40.77-1.56,5.21-8.67,7.25-19.23,8.96-28.14Z"/>
          <path class="cls-13" d="M140.46,20.32l-1.17.56c-.63.3-2.67,1.07-3.03,1.62,1.77,1.52,2.93,2.19,3.67,4.27.71,2,.45,3.4,2.07,4.99,2.92,2.87,7.37,2.64,10.37,5.49,5.95,5.65,9.22,14.25,15.07,20.77,5.13,5.71,11.6,17.62,20.66,16.84,15.28-1.31,5.79-26.32.72-33.01-4.82-6.36-13.84-13.12-20.77-17.01-3.99-2.24-8.98-3.69-13.48-1.96"/>
          <path class="cls-4" d="M84.51,22.41c2.94-5.95,7.92,6.04,8.11,8.57.36,4.93-1.28,11.06-3.4,15.35-1.32,2.68-2.58,5.48-4.11,7.92.13.23.23.39.34.64,6.23-.61,8.9-9.95,9.92-14.95s2.3-13.04-.88-17.79c-1.01-1.51-2.61-2.52-4.51-2.62-1.5-.08-2.94,1.02-5.45,2.88Z"/>
          <path class="cls-4" d="M59.38,48.73c3.09.37,6.62-5.45,7.36-7.95.85-2.89,1-6.44,3.28-8.71,1.55,1.56.58,6.31-.03,8.22-1.04,3.25-3.51,7.02-6.52,8.67-.97.53-5.34,1.34-4.08-.23Z"/>
          <path class="cls-4" d="M54.67,71.07c1.21-.18,1.51,1.89,1.66,2.72.19,1.05.08,2.18-.43,3.09-1.05,1.86-2.03,4.23-4.09,5.07-.84.34-1.8.39-2.65.12-.33-.1-1.17-.62-.51-.94.34-.17,1.16.39,1.57.41,2.51.13,3.76-2.28,4.74-4.03.59-1.05,1.03-1.55.78-2.8-.18-.91.02-1.89-.15-2.74-.05-.27-.05-.48-.93-.9Z"/>
          <path class="cls-4" d="M51.49,118.52c-.38.95-2.54,1.83-3.47,2.25-1.49.68-2.77,1.6-4.25,2.28-1.4.65-2.94.89-4.42,1.29-1.83.5-3.59,1.15-5.54.77-1.93-.38-3.54-.84-5.07-2.07.45,1.68,2.2,2.36,3.63,2.93s2.96,1.26,4.58,1.47,3.71.09,5.27-.55c2.02-.82,3.53-1.9,5.33-3.1,1.41-.95,4.32-3.21,3.94-5.27Z"/>
          <path class="cls-13" d="M126.06,1.33c0-1.74-3.17,5.71-3.64,3.96-.86-3.26-4.31-5.76-7.5-6.53-2.13-.51-4.09-.17-6.22-.28-2.69-.14-5.5-1.02-8.1-1.61-14.18-3.25-27.88-6.02-42.31-1.55C45.13-.61,31.99,6.38,21.79,15.68c-7.93,7.24-13.15,17.96-17.04,27.88-2.68,6.85-2.15,13.16-2.6,20.33-.19,2.91-1.28,6,.04,8.75,1.77,3.69,5.23,3.48,8.32,4.85,3.13,1.39,5.63,3.58,8.92,4.63,3.35,1.07,7.92,2.85,11.4,2.7,8.6-.39,17.58-9.97,21.24-17.07,3.73-7.24.87-13.9,1.31-21.69.21-3.74,2.52-6.94,3.98-10.27,1.51-3.45,3.55-6.2,7.55-6.37,3.75-.16,7.17-.39,9.63-3.5s2.22-6.8,4.9-9.91c5.21-6.07,16.35-7.2,23.93-6.3,4.62.55,9.19,2.89,13.75,3.07,4.97.19,5.42-3.43,7.63-6.87l1.31-4.57Z"/>
          <path class="cls-13" d="M7,87.83c3.38,1.53,1.98,6.41,2.13,9.15.17,3,1.22,6.03,2.8,8.49,3.53,5.51,9.89,10.88,11.11,18.01,1.58,9.25-5.19,17.49-15.44,15.77-15.98-2.69-30.55-26.92-20.83-41.03,2.65-3.84,5.1-6.08,9.37-7.68,2.36-.88,8.2-3.24,10.86-2.72Z"/>
          <path class="cls-13" d="M70.9,160.26c2.3-6-4.56-14.49-8.33-18.66-2.23-2.46-5.29-5.36-8.71-5.75-3.23-.37-6.2.96-9.51-.14-6.19-2.06-9.78-8.83-15.22-1.3-6.85,9.48,7.39,17.47,15.21,20.85,5.71,2.47,15.92,4.74,26.56,5Z"/>
          <path class="cls-4" d="M124.05,8.84c-2.21,4.08-5.03-1.04-7.71-2.15-2.51-1.03-5.96-1.22-8.65-1.95-5.94-1.61-11.11-.92-17.12.47-2.81.65-5.25,2.01-7.85,2.93-3.5,1.24-6.45-1.92-5.42-5.53.82-2.87,3.42-5.01,5.21-7.32,2.46-3.17,5.19-5.84,9.23-6.86,6.69-1.68,15.19.23,20.53,4.38,3.24,2.52,5.01,4.8,7.21,8.08,1.32,1.96,2.33,6.27,4.56,7.95Z"/>
          <path class="cls-4" d="M75.81,7.47c-1.23,3.06-4.2,7.07-6.63,9.17-3.19,2.76-7.14,4.76-10.86,6.97-4.29,2.54-13.75,5.94-15.68-1.53-.92-3.54,2.18-6.6,4.51-8.84,3.92-3.75,7.93-8.1,13.68-8.51,3.63-.26,9.58,1.4,11.65,4.55"/>
          <path class="cls-4" d="M48.61,38.95c-2.54,2.59-4.88,4.9-6.61,8.08-1.3,2.38-1.65,4.49-2.41,7-1.03,3.39-3.47,1.3-5.82,3-2.97,2.15-2.03,7.35-4.08,10.19-1.43,1.98-4.15,4.2-6.35,5.24-1.61.76-3.27.75-4.94,1.13-1.81.41-3.83,1.49-5.72,1.19-4.44-.7-4.5-6.67-4.38-10.04.19-5.36,2.47-9.8,4.83-14.52,2.5-5,3.93-9.63,9.06-12.26,4.94-2.53,16.33-3.86,19.89,1.95"/>
          <path class="cls-4" d="M4.06,90.71c.87,1.17-.57,2.99-.85,4.16-.33,1.38-.41,2.92-.4,4.33.02,2.66.29,5.24.84,7.83.93,4.37,3,7.31,6.29,10.13,1.85,1.59,3.46,2.65,4.48,4.97.84,1.91,1.7,4.79.67,6.73-1.43,2.71-4.03,3.81-6.99,4.05-2.8.23-5.07-.97-7.38-2.43-3.67-2.32-4.42-5.14-5.79-9.06-1.55-4.43-3.86-8.75-4.94-13.31-.48-2.04-.23-4.06.02-6.11.35-2.82.64-6.06,1.79-8.68.7-1.6,3.42-4.86,5.5-3.13"/>
          <path class="cls-4" d="M33.89,137.05c.96-.18,1.11-1.09,1.86-1.39.48-.19,1.04.07,1.51.15,1.22.2,2.16.55,3.32.98s2.18,1.1,3.31,1.49c1.07.36,2.35.55,3.5.78,2.42.48,4.65,1.52,7.14,1.88,2.61.37,5.38,1.01,6.76,3.6.47.89.69,1.82.62,2.81-.11,1.64,0,4.98-1.46,5.9-.91.58-2.29.14-3.25-.05-1.93-.38-3.64-1.41-5.55-1.83-1.53-.34-3.13-.64-4.59-1.26-1.99-.84-3.49-2.52-5.44-3.42"/>
          <path class="cls-4" d="M143.75,158.58c-4.05,4.28-9.45,3.12-14.73,4.32-2.91.66-6.03,1.42-8.85,2.38-3.37,1.15-6.69,2.55-10.49,2.21-3.25-.29-6.19-1.86-9.31-2.46s-7.34.22-10.24,1.4c-4.59,1.86-2.02,10.05.65,12.83,7.57,7.87,18.58,7.44,28.54,5.32,7.14-1.52,11.37-3.16,14.77-9.82,1.56-3.04,2.71-6.35,3.16-9.64"/>
          <path class="cls-4" d="M182.59,107.83c1.34,1.93-1.89,8.19-2.54,10.49-.9,3.17-1.25,5.56-.25,8.77.42,1.35.97,4.26,2.32,5.02,2.46,1.39,5.09-1.99,6.03-3.76,2.88-5.44,4.71-12.37,2.97-18.39-1.34-4.61-4.79-4.46-8.53-2.13Z"/>
          <path class="cls-4" d="M145.32,19.21c3.2,1.35,3.85,3.5,5.02,6.37,1.18,2.92,3.64,5.87,5.85,8.07,4.4,4.38,9.23,8.54,13.45,13.24,2.42,2.7,4.58,5.79,6.95,8.61,1.74,2.08,3.48,4.12,5.21,6.2,1.52,1.83,2.74,4.44,5,5.57,4.78,2.4,5.47-3.71,5.54-6.96.07-3.79-.35-8.02-1.42-11.64-1.62-5.5-3.91-11.8-6.64-16.81-4.85-8.93-14.02-17.34-24.73-16.03-3.85.47-8.6.14-10.26,4.48"/>
          <path class="cls-4" d="M162.1,64.05c.43-1.55,3.15-.83,4.11-.43,2.23.93,3.47,2.93,4.72,4.94,1.88,3.02,7.12,6.41,3.52,10.2-.83.87-4.89,3.01-5.3.7-.28-1.62,2.33-.86,3.21-1.11,1.43-.4,2.15-1.95,1.56-3.3-.91-2.09-1.97-4.26-3.68-5.82-.72-.65-1.39-1.31-1.99-2.05-.49-.61-1.05-1.22-1.75-1.61-1.2-.66-3.15-.06-4.08-1.06-.21-.23-.38-.54-.31-.47Z"/>
          <path class="cls-4" d="M149.14,61.31c.25.5.6,1.04,1.2,1.06.5.02,1.12-.37,1.41-.73.62-.78.19-2.05.34-2.97.27-1.67,1.91-.04,2.23.79.78,2.01-.62,3.93-2.7,3.99-.71.02-3.05-.79-2.48-2.14Z"/>
          <path class="cls-4" d="M147.46,59.39c-.49-.99-1.48-1.43-2.37-1.99s-1.27-1.13-1.65-2.05c-1.08.08.04,2.19.33,2.53.77.91,1.47,1.02,2.54,1.12.52.05,1.09.2,1.15.39Z"/>
          <path class="cls-4" d="M137.17,101.95c2.55.41,2.71,4.36,3.02,6.25.26,1.56.44,2.94-.37,4.4-.76,1.35-1.64,3.29-3.04,4.05-.76.41-1.56.7-2.4.89-.53.12-1.27.19-1.73.42,1.26,1.1,3.17,1,4.77,1.04.81.02,1.73-.09,2.44-.48.98-.55,1.44-1.75,2.11-2.63,1.17-1.54,1.19-3.23,1.18-5.09,0-1.88-.42-3.57-1.35-5.18-.49-.85-1.03-1.44-1.68-2.16-.36-.4-.62-.7-1.12-.88s-.92-.18-1.83-.62Z"/>
          <path class="cls-4" d="M124.98,113.88c-1-.78-1.85-.98-3.05-1.33s-2.27-.9-3.52-1.22c-2.85-.72-5.87-.7-8.08-2.95-.38-.38-.75-.83-1.09-1.22-.25-.3-.42-.82-.71-1.08-1.1-.99-1.27.66-1.08,1.44.39,1.65,1.56,2.76,3.04,3.53,1.98,1.02,4.21,1.93,6.45,1.88,1.5-.03,3.09-.23,4.53.19.9.26,2.45,1.03,3.49.76Z"/>
          <path class="cls-4" d="M81.76,148.24c.28,1.6,3.19,2.74,4.44,3.44,2.25,1.27,4.74,2.31,7.33,2.69,1.39.21,2.91.06,4.33.07,1.28.01,2.31-.11,3.54-.43,1.44-.37,2.92-.6,4.38-.87,1.26-.23,2.33-.75,3.49-1.25,1.34-.58,2.79-.9,4.09-1.57,1.09-.56,2.1-1.29,3.13-1.98,1.65-1.11,3.23-2.74,4.02-4.58s.03-4.73-1.15-6.17c-1.24-1.52-2.87-2.58-4.56-3.37-.78-.36-1.55-.73-2.41-.95-.81-.21-1.69-.24-2.49-.43-.36-.08-2.24-.33-1.94-.96.25-.53,2.01-.02,2.44.02,1.99.2,4.25.34,6.05,1.29,1.85.98,2.74,1.38,3.86,3.13,1.03,1.61,2.13,3.85,1.88,5.85-.23,1.83-1.16,3.38-2.55,4.55-.74.63-1.18,1.43-1.85,2.13-.54.56-1.31,1.06-1.98,1.47-1.67,1.04-3.54,1.65-5.33,2.45-2.49,1.12-5.24,1.24-7.78,2.25-2.81,1.12-5.57.97-8.55.54-2.16-.31-4.23-.85-6.21-1.71-2.12-.91-4.84-2.3-6.14-4.3-.37-.57-.66-1.38-.85-2.05.41.24.5.83.81.7Z"/>
        </g>
      </g>
    </g>
  </g>
</svg>