<?xml version="1.0"?>
<svg xmlns="http://www.w3.org/2000/svg" viewBox="0 0 275.47 277.29">
  <g style="isolation: isolate;">
    <g id="Layer_1" data-name="Layer 1">
      <g>
        <g>
          <path d="M-440.1,107.04c-27.62,42.2-30.52,96.47-10.36,142.72,5.26,12.95,4.86,27.84,13.57,38.94,19.53,24.87,54.51,40.52,86.42,42.43,21.37,1.28,42.78-7.74,62.85-26.12,17.09-15.64,32.88-37.95,45.88-64.31,14.89-30.19,29.33-31.45,47.58-33.16,12.34-1.15,26.36-2.48,43.03-13.13,19.89-12.71,30.69-30.2,32.4-51.86,1.03-13-1.43-25.79-4.83-38.27-1.48-5.43-9.83-24.59-9.83-24.59L105.11-61.85c2.56.57,4.21,1.46,4.24,1.48.09.04.15.07.23.11.1-.04.14-.05.23-.08.14-.05,3.14-1.18,7.88-2.96,1,1.89,1.91,3.6,3.22,6.07-2.75,2.71-3.72,5.85-2.48,8.18,1.69,3.16,6.85,3.44,11.72.64,4.88-2.81,7.36-7.48,5.67-10.64-1.25-2.33-4.31-3.13-7.99-2.16-1.05-1.97-1.83-3.44-2.61-4.91,5.73-2.15,12.57-4.71,19.69-7.37.77,1.44,1.55,2.89,2.57,4.81-2.74,2.72-3.73,5.86-2.48,8.19,1.7,3.16,6.85,3.44,11.73.63,4.88-2.82,7.37-7.52,5.67-10.68-1.25-2.33-4.32-3.13-8-2.14-.76-1.41-1.36-2.55-1.94-3.63,6.58-2.45,13.12-4.87,19.01-7.05.4.75.82,1.53,1.3,2.44-2.75,2.73-3.73,5.88-2.48,8.21,1.7,3.16,6.85,3.43,11.73.6,4.88-2.83,7.36-7.54,5.67-10.7-1.25-2.33-4.33-3.13-8-2.13-.24-.44-.42-.8-.64-1.19,5.58-2.04,10.05-3.65,12.58-4.51.89-.3,1.46-.77,1.71-1.4.26-.68.13-1.45-.43-2.33-.81-1.28-1.59-2.59-2.28-3.9-7.7-14.54-5.54-26.82-4.27-31.44.56-2.06-.19-3.5-2.14-4.13-5.38-1.7-15.49-6.65-22.42-20.64-.55-1.11-1.09-2.28-1.57-3.46-.56-1.36-1.31-1.78-1.81-1.87-.4-.07-1.05-.03-1.79.63-2.03,1.78-5.8,4.93-10.54,8.85-.12-.26-.23-.47-.36-.74,2.79-2.73,3.85-5.87,2.74-8.17-1.53-3.13-6.52-3.35-11.39-.53-4.87,2.83-7.52,7.5-6,10.63,1.11,2.31,4.1,3.09,7.73,2.09.36.72.66,1.33.95,1.95-4.92,4.05-10.39,8.53-15.9,13.03-.46-.94-.95-1.92-1.53-3.11,2.79-2.72,3.85-5.84,2.73-8.14-1.53-3.14-6.5-3.39-11.37-.58-4.87,2.8-7.51,7.45-5.99,10.59,1.12,2.31,4.09,3.1,7.71,2.12.83,1.7,1.47,3.01,2.1,4.29-5.98,4.88-11.72,9.55-16.53,13.46-.66-1.32-1.32-2.68-2.17-4.44,2.78-2.71,3.84-5.82,2.72-8.13-1.52-3.15-6.51-3.42-11.37-.63-4.86,2.78-7.5,7.41-5.98,10.56,1.12,2.32,4.1,3.13,7.73,2.17,1.11,2.27,1.9,3.9,2.75,5.61-3.98,3.23-6.5,5.27-6.62,5.37l-.2.15c-.01.11-.02.17-.03.28,0,.07-.51,4.49-3.45,8.98-25.96,14.75-51.95,29.43-77.99,44.05C-47.95-21.01-102.41,7.21-156.91,35.38c-6.37-8.68-12.97-15.64-19.92-20.5-4.19-2.93-30.59-13.55-35.05-15.07-12.5-4.26-4.02,5.43-18.99,12.59-17.04,8.14-26.51,19.64-34.83,29.81-12.31,15.05-22.34,27.22-50.51,22.03-24.6-4.53-47.6-4.36-67.64,1.3-23.53,6.64-42.6,20.63-56.25,41.5ZM-403.08,74.59c6.05-3.16,12.44-5.78,19.26-7.71.94-.27,1.91-.46,2.86-.7-7.68,2.02-15.1,4.82-22.12,8.41Z" style="fill: #88320c;"></path>
          <path d="M-447.76,265.41c-1.14-5.03-2.33-10.23-4.26-14.98-20.7-47.49-16.68-102.8,10.5-144.32,13.87-21.2,33.11-35.39,57.2-42.19,19.81-5.6,42.83-6.05,68.4-1.34,27.27,5.02,36.81-6.65,48.91-21.44,8.4-10.27,17.93-21.92,35.4-30.27,6.53-3.13,8.19-6.69,9.4-9.3,1.76-3.79,3.37-5.91,10.86-3.36,4.62,1.58,31.03,12.17,35.48,15.29,6.6,4.63,12.98,11.08,19.45,19.73C-104.71,6.49-49.35-22.18,5.57-50.95c25.91-14.55,51.78-29.16,77.62-43.84,2.52-4.02,2.96-7.85,2.99-8.17.04-.44.47-1.01.82-1.29l5.57-4.52-1.58-3.22c-3.82.62-7-.64-8.31-3.36-1.93-4,.94-9.48,6.66-12.75,5.75-3.3,11.71-2.79,13.72,1.36,1.32,2.7.47,6.14-2.2,9.18l.73,1.48,13.84-11.27-.93-1.9c-3.81.63-6.99-.59-8.3-3.32-1.93-3.99.93-9.49,6.66-12.79,5.75-3.32,11.76-2.82,13.72,1.31,1.32,2.69.46,6.14-2.21,9.18l.07.15c4.32-3.52,8.57-7.01,12.53-10.27-3.41.33-6.23-.96-7.41-3.41-1.93-3.98.94-9.49,6.67-12.83,5.76-3.35,11.75-2.94,13.75,1.25.56,1.15.72,2.44.52,3.78,2.14-1.79,3.86-3.25,5.01-4.26,1.31-1.16,2.58-1.14,3.21-1.03.84.15,2.28.98,3.06,2.89.47,1.15.99,2.27,1.52,3.35,1.35,2.73,2.91,5.26,4.62,7.51,6.09,7.99,13.14,11.12,16.79,12.27,1.13.36,2.01.94,2.62,1.74s1.25,2.25.65,4.44c-1.22,4.43-3.26,16.25,4.14,30.21.67,1.28,1.42,2.54,2.21,3.78,1.05,1.66.9,3,.58,3.84-.3.78-1.01,1.82-2.74,2.4-1.58.54-3.91,1.36-6.78,2.4,1.66.52,2.98,1.55,3.78,3.04,2.17,4.04-.55,9.61-6.31,12.95-5.69,3.31-11.9,2.82-14.06-1.26-1.46-2.72-.72-6.19,1.92-9.27l-.05-.09c-4.98,1.84-10.37,3.83-15.82,5.86l.43.8c3.87-.66,7.14.51,8.6,3.26,2.17,4.04-.54,9.6-6.31,12.93-5.7,3.29-11.92,2.78-14.06-1.29-1.46-2.71-.72-6.17,1.91-9.25l-1.31-2.45c-5.9,2.2-11.56,4.32-16.51,6.18l1.11,2.09c3.87-.65,7.09.52,8.58,3.28,2.16,4.04-.55,9.59-6.31,12.9-5.7,3.27-11.88,2.78-14.05-1.31-1.46-2.71-.71-6.18,1.91-9.24l-1.96-3.7-6.73,2.52c-.45.17-1.22,0-1.65-.22-.01,0-1.22-.65-3.14-1.15L-131.26,80.38c1.95,4.52,8.04,18.77,9.32,23.46,2.87,10.54,6.03,24.47,4.89,38.85-1.77,22.32-12.94,40.21-33.18,53.14-17.06,10.9-31.26,12.22-43.94,13.41-18.37,1.71-31.64,2.95-46.06,32.2-13.22,26.8-29.21,49.21-46.25,64.81-20.67,18.93-42.23,27.87-64.09,26.56-34.3-2.06-68.7-18.97-87.64-43.08l-.28-.36h0c-5.42-7.1-7.36-15.67-9.25-23.95ZM117.11-64.88c.79-.3,1.67.07,2.09.79l3.22,6.06c.35.66.22,1.47-.3,1.99-2.18,2.16-3.04,4.58-1.95,6.54,1.45,1.91,5.49,1.74,9.17-.38,4.01-2.3,6.26-6.06,5.02-8.38-.88-1.59-3.22-2.08-6.08-1.32-.76.2-1.53-.14-1.92-.84l-2.61-4.91c-.23-.43-.26-.93-.09-1.39.17-.45.53-.81.98-.98,5.73-2.15,12.57-4.71,19.7-7.37.79-.3,1.68.06,2.08.79l2.57,4.81c.35.65.23,1.46-.3,1.99-2.19,2.17-3.04,4.6-1.96,6.54,1.46,1.91,5.49,1.74,9.18-.39,3.95-2.28,6.26-6.14,5.03-8.42-.89-1.6-3.23-2.07-6.08-1.31-.75.21-1.55-.14-1.93-.83l-1.94-3.64c-.23-.43-.26-.93-.09-1.39.17-.45.53-.81.99-.98,6.57-2.45,13.12-4.87,19.02-7.05.79-.29,1.65.05,2.07.79l1.3,2.43c.35.66.23,1.47-.3,2-2.19,2.18-3.04,4.61-1.96,6.56,1.46,1.91,5.49,1.73,9.17-.41,3.95-2.29,6.26-6.16,5.03-8.44-.88-1.6-3.23-2.08-6.08-1.31-.76.2-1.56-.14-1.92-.83l-.64-1.19c-.23-.43-.27-.94-.1-1.4.18-.46.54-.82,1-.99,5.59-2.04,10.07-3.65,12.62-4.52.43-.15.63-.31.66-.4.06-.16-.04-.47-.28-.83-.84-1.32-1.64-2.67-2.35-4.02-7.96-15.02-5.73-27.85-4.41-32.68.32-1.19.04-1.73-1.03-2.07-4.03-1.27-11.8-4.72-18.45-13.45-1.85-2.43-3.53-5.13-4.97-8.05-.57-1.15-1.12-2.35-1.62-3.57-.1-.26-.2-.47-.53-.85,0,0-.14.01-.4.24-2.04,1.79-5.82,4.95-10.57,8.88-.4.33-1,.28-1.51.18-.5-.11-1.01-.6-1.24-1.07l-.2-.42c-.31-.65-.18-1.43.34-1.93,2.23-2.19,3.17-4.63,2.4-6.23-.97-1.94-4.71-2.31-9.03.19-4.4,2.56-6.31,6.43-5.33,8.44.76,1.51,3,1.96,5.76,1.2.78-.21,1.6.13,1.96.88l.96,1.96c.34.7.16,1.54-.45,2.03-4.92,4.05-10.39,8.54-15.9,13.03-.4.33-.93.45-1.43.34-.5-.11-.93-.44-1.16-.9l-1.53-3.11c-.32-.65-.18-1.44.34-1.94,2.22-2.17,3.16-4.6,2.39-6.2-.97-1.96-4.7-2.34-9.01.14-4.39,2.52-6.29,6.38-5.31,8.4.76,1.52,3,1.97,5.76,1.22.78-.21,1.58.15,1.96.89l2.1,4.28c.35.7.17,1.55-.44,2.05l-16.53,13.46c-.4.32-.92.45-1.42.34-.51-.11-.94-.44-1.15-.9l-2.18-4.45c-.32-.65-.18-1.43.34-1.94,2.22-2.16,3.15-4.59,2.38-6.19-.97-1.97-4.71-2.37-9.02.1-4.37,2.5-6.27,6.35-5.3,8.37.75,1.55,3.01,2.01,5.77,1.27.78-.21,1.59.16,1.95.89l2.75,5.6c.35.71.16,1.56-.45,2.05l-6.3,5.1c-.21,1.39-1.03,5.29-3.65,9.29-.15.23-.34.41-.58.54-25.96,14.75-51.96,29.43-78.04,44.08C-48.24-18.96-104.06,9.96-156.14,36.88c-.73.38-1.58.34-2.13-.5-6.52-8.83-12.94-15.51-19.53-20.12-3.86-2.7-29.53-13.12-34.63-14.86-5.15-1.76-5.42-1.18-6.71,1.6-1.34,2.89-3.38,7.27-11,10.92-16.8,8.03-26.07,19.36-34.25,29.36-12.29,15.02-22.9,28-52.13,22.61-23.3-4.29-44.38-4.22-62.75.19.04.78-.46,1.51-1.25,1.72-7.67,2.03-15,4.81-21.78,8.29-.71.36-1.55.17-2.04-.4-13.73,7.55-25.23,18.35-34.34,32.27-26.56,40.58-30.48,94.66-10.21,141.16,2.05,5.05,3.26,10.38,4.44,15.55,1.88,8.3,3.66,16.13,8.64,22.65h0l.26.33c18.37,23.39,51.8,39.79,85.19,41.79,20.91,1.25,41.64-7.39,61.61-25.68,16.74-15.32,32.47-37.39,45.51-63.81,15.26-30.95,30.8-32.4,48.93-34.09,12.15-1.13,25.91-2.41,42.28-12.87,19.3-12.34,29.95-29.35,31.63-50.57,1.1-13.85-1.98-27.42-4.78-37.69-1.43-5.25-9.66-24.18-9.74-24.37-.34-.78-.04-1.69.69-2.12L104.25-63.3c.37-.22.81-.29,1.23-.2,1.91.43,3.37,1.02,4.21,1.4l7.42-2.79Z" style="fill: #4f1300;"></path>
        </g>
        <g>
          <g>
            <path d="M90-62.46c-5.46-10.5-8.16-15.74-13.39-26.22C-26-34.32-129.22,18.86-232.38,72.17c7.85,18.84,12.1,28.14,20.99,46.67C-110.86,58.52-10.17-1.55,90-62.46Z" style="fill: #82360d;"></path>
            <path d="M76.37-89.22c.2-.11.3-.16.49-.27,5.43,10.89,8.23,16.34,13.9,27.24C-9.74-1.12-110.75,59.16-211.62,119.68c-9.12-18.98-13.47-28.49-21.49-47.8C-129.8,18.48-26.41-34.78,76.37-89.22ZM89.22-62.68c-5.25-10.09-7.83-15.13-12.86-25.21C-25.93-33.7-128.81,19.31-231.64,72.46c7.68,18.37,11.82,27.45,20.49,45.53C-110.95,57.89-10.61-1.98,89.22-62.68Z" style="fill: #3a0500;"></path>
          </g>
          <g>
            <path d="M-360.42,191.62c.42.93.63,1.4,1.05,2.33C-201.47,104.16-42.31,16.62,115.39-73.52c-.46-.88-.69-1.31-1.14-2.19C-43.41,14.41-202.55,101.88-360.42,191.62Z" style="fill: #fff;"></path>
            <path d="M-362.96,185.9c.42.93.62,1.4,1.04,2.33C-203.49,97.93-43.72,10.03,114.49-80.65c11.1-1.97,16.68-2.96,27.8-4.95-.15-.99-.24-1.48-.39-2.46-11.36,2.07-17.04,3.09-28.37,5.13C-44.69,7.75-204.5,95.62-362.96,185.9Z" style="fill: #fff;"></path>
            <path d="M-365,181.24C-205.98,91.24-45.57,3.73,113.19-86.72c21.97-4.27,33.01-6.45,55.07-10.86-.17-.98-.26-1.48-.43-2.46-22.28,4.48-33.41,6.69-55.59,11.04C-46.53,1.43-206.97,88.91-366.01,178.89c.4.94.61,1.41,1.01,2.34Z" style="fill: #fff;"></path>
            <path d="M-373.82,160.16c.38.94.57,1.42.95,2.36C-215.53,73.35-56.72-13.19,100.38-102.78c-.44-.87-.65-1.3-1.08-2.17C-57.76-15.42-216.53,71.04-373.82,160.16Z" style="fill: #fff;"></path>
            <path d="M-370.35,168.63C-212.01,78.91-52.19-8.15,105.86-98.36c7.72-8.88,11.59-13.32,19.34-22.22-.69-.66-1.03-.98-1.72-1.64-7.64,8.77-11.46,13.15-19.07,21.9C-53.51-10.29-213.13,76.7-371.31,166.28c.39.94.57,1.42.96,2.35Z" style="fill: #fff;"></path>
            <path d="M-367.77,174.8C-209.1,84.8-48.98-2.64,109.43-93.1c15.67-17.59,23.52-26.4,39.28-44.11-.68-.66-1.02-.99-1.7-1.66-15.67,17.58-23.48,26.33-39.04,43.79C-50.3-4.75-210.25,82.56-368.76,172.45c.39.94.59,1.41.99,2.35Z" style="fill: #fff;"></path>
          </g>
        </g>
      </g>
      <g>
        <path d="M115.52,178.3c-1.78-.32-3.56-.64-5.35-.91,1.81.12,3.61.42,5.35.91Z" style="fill: #231f20;"></path>
        <g>
          <path d="M130.81,226.78c5.37-8.52,8.87-18.75,6.67-28.86-2.53-11.65-12.29-21.49-24.57-21.96-1.64-.06-3.25.07-4.86.35-.53.09-.78.4-.8.69-3.66-.33-7.34-.32-11.06.34-7.9,1.4-15.3,4.92-21.73,9.66-3.48,2.57-6.59,5.5-9.01,9.1-2.48,3.68-4.23,7.81-5.5,12.05-2.31,7.73-2.19,16.25-6.16,23.45-3.42,6.19-11.24,11.15-18.37,8.54-.57-.21-2.03.35-1.31,1.08,2.73,2.78,5.07,5.96,7.98,8.57,2.73,2.45,5.93,4.32,9.29,5.77,6.33,2.73,13.41,4.08,20.28,4.48,12.73.75,25.44-2.91,36.12-9.8,9.17-5.92,17.23-14.19,23.05-23.44Z" style="fill: #231f20;"></path>
          <path d="M109.76,246.26c-9.54,7.18-21.11,11.63-33.1,11.99-6.42.2-13.04-.78-19.19-2.6-3.24-.96-6.35-2.27-9.26-3.99-3.33-1.98-6.03-4.69-8.67-7.49-.67-.71-1.33-1.41-2.01-2.11,5.27.55,10.68-1.76,14.49-5.4,5.63-5.36,6.89-13.2,8.21-20.52,1.57-8.74,4.37-17.5,10.74-23.99,2.95-3.01,6.53-5.49,10.15-7.62,3.51-2.06,7.23-3.76,11.14-4.91,4.65-1.37,9.42-1.85,14.26-1.53,4.74.31,9.42,1.19,14.16,1.62,1.58.72,3.1,1.62,4.5,2.7,4.41,3.4,7.56,8.26,9.2,13.56,2.9,9.36.14,19.24-4.52,27.52-4.94,8.78-12.05,16.7-20.09,22.75Z" style="fill: #393839;"></path>
          <path d="M114.89,180.87c-8.53.97-17.27,3.52-24.51,8.21-7.65,4.95-13.83,12.38-17.93,20.48-2.42,4.79-4.07,9.81-4.82,15.13-.07.5.88.52.98.09,2.09-9.06,6.48-17.31,12.45-24.41,2.86-3.39,6.05-6.55,9.68-9.11,3.33-2.34,7.05-4.22,10.85-5.67,4.41-1.69,8.96-2.78,13.54-3.91.69-.17.38-.89-.24-.81Z" style="fill: #231f20;"></path>
          <path d="M116.01,184.84c-3.88,1.14-7.63,3.14-11.25,4.93-3.66,1.81-7.23,3.81-10.53,6.23-5.79,4.24-11.09,9.65-15.21,15.51-2.25,3.19-4.13,6.66-4.98,10.5-.1.45.76.44.88.08,2.34-6.73,7.13-12.39,12.08-17.36,2.39-2.4,4.89-4.75,7.57-6.83,3.21-2.49,6.73-4.54,10.34-6.38,1.99-1.02,4.02-1.97,6.04-2.92,1.98-.92,4.01-1.79,5.8-3.04.61-.43-.35-.83-.74-.71Z" style="fill: #231f20;"></path>
          <path d="M112.17,202.64c3.5-4.76,7.21-9.37,11.55-13.38.32-.3-.29-.48-.53-.29-16.3,13.38-25.03,33.58-41.17,47.1-4.55,3.81-9.53,6.85-15.19,8.68-.37.12-.11.44.19.36,21.25-5.68,32.97-25.89,45.15-42.47Z" style="fill: #231f20;"></path>
          <path d="M125.91,207.72c2.19-4.84,3.77-10.64,3.5-15.99-.04-.8-1.59-.85-2.07-.3.27-1.2.4-2.42.21-3.62-.14-.89-1.76-.73-2.01,0-.63,1.83-.89,3.76-1.42,5.62-.54,1.88-1.22,3.72-1.98,5.52-1.62,3.81-3.63,7.44-5.79,10.96-4.78,7.81-10.28,15.2-17.04,21.43-4.11,3.78-8.52,7.17-13.29,10.08-.91.56.23,1.28.91.88,8.59-5.09,16.25-11.36,22.67-19.02,5.68-6.77,10.54-14.5,14.32-22.48,1-2.1,1.89-4.26,2.6-6.48.22-.69.44-1.4.64-2.12-.25,2.53-.35,5.07-.82,7.58-.48,2.55-1.24,5.05-2.25,7.45-2.09,4.97-5.14,9.36-8.79,13.29-.43.47.71.75,1.04.43,3.86-3.86,7.31-8.23,9.57-13.23Z" style="fill: #231f20;"></path>
          <path d="M131.12,207.94c1.11-4.26,1.65-8.71.6-13.02-.13-.53-1.21-.45-1.2.11.03,3.82-.14,7.69-.99,11.42-.88,3.85-2.34,7.57-4.18,11.05-3.76,7.1-8.96,13.35-14.89,18.74-3.13,2.85-6.53,5.42-10.15,7.62-.5.3.12.67.49.47,7.03-3.71,13.26-8.94,18.45-14.93,5.37-6.21,9.78-13.49,11.88-21.47Z" style="fill: #231f20;"></path>
          <g style="mix-blend-mode: multiply; opacity: .45;">
            <path d="M129.85,223.51c4.66-8.29,7.42-18.16,4.52-27.52-1.64-5.3-4.79-10.16-9.2-13.56-1.4-1.08-2.91-1.98-4.5-2.7-4.73-.43-9.42-1.31-14.16-1.62-4.83-.32-9.61.16-14.26,1.53-3.91,1.15-7.63,2.85-11.13,4.91-3.62,2.12-7.2,4.61-10.15,7.62-2.97,3.03-5.16,6.55-6.81,10.34,2.94-4.08,6.33-7.84,10.32-10.9,5.54-4.24,12.26-6.79,19.3-6.01.44.05.61.71.22.94-2.44,1.45-4.81,3.02-7.08,4.74-7.72,5.85-14.34,13.69-16.27,23.33,2.74-3.35,5.27-6.86,8.08-10.16,3.28-3.86,6.93-7.88,11.45-10.29,1.79-.95,3.78-1.62,5.83-1.48,1.92.14,3.92,1.09,5.03,2.69,2.53,3.65-.31,8.71-2.32,11.89-.41.64-.84,1.27-1.28,1.9,1.07-1.05,2.17-2.07,3.31-3.04,2.35-1.99,4.94-3.79,7.89-4.76.24-.08.6.03.67.31.18.74.31,1.49.36,2.25.24,3.44-.78,6.88-2.17,9.99-1.67,3.77-3.95,7.26-6.44,10.53-4.98,6.56-10.91,12.52-17.36,17.63-3.4,2.69-7.06,5.11-11.01,6.92-4.76,2.19-9.94,3.49-15.17,3.86-2.39.17-4.8.13-7.2-.01,2.28,1.17,4.67,2.1,7.14,2.83,6.15,1.81,12.77,2.79,19.19,2.6,11.98-.37,23.55-4.81,33.1-11.99,8.04-6.06,15.15-13.97,20.09-22.75Z" style="fill: #393839;"></path>
          </g>
          <g style="mix-blend-mode: multiply; opacity: .61;">
            <path d="M129.85,223.51c4.66-8.29,7.42-18.16,4.52-27.52-1.64-5.3-4.79-10.16-9.2-13.56-1.4-1.08-2.91-1.98-4.5-2.7-4.73-.43-9.42-1.31-14.16-1.62-4.02-.26-8,.03-11.9.92.45.09.9.19,1.35.3,2.94.7,5.84,1.72,8.47,3.21,3.56,2.02,6.33,5.14,9.17,8.03,1.43,1.45,2.85,2.85,4.54,3.99,1.54,1.04,3.15,1.96,4.71,2.97,2.52,1.63,5.1,3.51,6.15,6.43,1.52,4.21.32,8.94-1.3,12.93-1.99,4.9-4.93,9.42-8.11,13.62-2.69,3.54-5.61,6.95-8.87,9.99-5.38,5.01-11.52,9.24-18.08,12.55-3.47,1.75-7.07,3.23-10.78,4.37-.77.24-1.55.46-2.33.66,10.95-.93,21.44-5.21,30.22-11.81,8.04-6.06,15.15-13.97,20.09-22.75Z" style="fill: #393839;"></path>
          </g>
          <g style="mix-blend-mode: screen;">
            <path d="M52.03,236.67c-3.81,3.63-9.22,5.95-14.49,5.4.68.7,1.34,1.4,2.01,2.11.08.09.16.17.25.26,1.66-.06,3.31-.23,4.9-.65,3.73-.97,7.6-2.93,10.18-5.85,2.82-3.19,3.99-7.33,5.53-11.2.18-.46.99-.37.99.16,0,1.59-.35,3.26.23,4.77.69-.57,1.2-1.35,1.6-2.14.63-1.22,1.09-2.53,1.49-3.84.74-2.4,1.23-4.87,1.88-7.3.56-2.11,1.68-3.95,2.84-5.78,1.41-2.23,2.94-4.4,4.24-6.7,1-1.76,2.08-3.78,2.2-5.85-2.23.23-4.15,1.7-5.67,3.27-1.66,1.72-3.06,3.71-4.21,5.81-.32.58-1.25.19-.95-.42,2.12-4.34,4.2-8.72,6.88-12.76,4.24-6.38,10.01-11.46,16.72-15.05-2.6,1.01-5.11,2.24-7.52,3.65-3.62,2.12-7.2,4.61-10.15,7.62-6.37,6.49-9.16,15.25-10.74,23.99-1.32,7.31-2.58,15.15-8.21,20.52Z" style="fill: #393839;"></path>
          </g>
          <g style="mix-blend-mode: screen;">
            <path d="M87.63,217.8c.39-1.09.65-2.26.52-3.42-.1-.9-.34-2.09-1.22-2.56-.74-.39-1.66-.1-2.37.2-.83.35-1.59.85-2.31,1.39-.35.36-.7.73-1.03,1.1-2.57,2.82-4.83,5.95-6.66,9.3-1.26,2.3-2.28,4.72-2.96,7.26-.31,1.14-.58,2.33-.64,3.52-.02.41-.02.85.09,1.25.08.28.19.5.38.57.77.27,1.94-.74,2.51-1.18,1.09-.86,2.08-1.85,3.05-2.82,2.12-2.13,4.14-4.37,5.98-6.75,1.85-2.39,3.65-4.97,4.67-7.84Z" style="fill: #393839;"></path>
          </g>
          <g style="mix-blend-mode: screen;">
            <path d="M94.29,215.4c-.85.65-1.59,1.49-2.15,2.29-.85,1.21-1.68,3.03-.97,4.47.84-.17,1.59-.6,2.17-1.23,1.03-1.11,1.74-2.77,1.56-4.31-.06-.48-.24-.99-.62-1.23Z" style="fill: #393839;"></path>
          </g>
        </g>
        <g>
          <g>
            <path d="M317.93-35.04c4.89-12.81,3.57-16.61,2.23-17.73-.01,0-.02-.02-.03-.03-.01,0-.02-.02-.03-.02-1.36-1.09-5.34-1.64-16.94,5.67-17.03,10.74-92.53,77.38-139.71,134.95,0,0-18.93,23.1-20.63,37.54l10.98,9,15.53,12.73,10.98,9c13.82-4.5,32.75-27.61,32.75-27.61,47.18-57.57,97.68-144.7,104.86-163.5Z" style="fill: #674126;"></path>
            <g style="mix-blend-mode: multiply; opacity: .61;">
              <path d="M317.93-35.04c4.89-12.81,3.57-16.61,2.23-17.73-.01,0-.02-.02-.03-.03-.01,0-.02-.02-.03-.02-.62-.5-1.8-.88-3.99-.45-19.26,21.7-36.27,45.29-53.5,68.6-9.46,12.79-18.99,25.53-29.04,37.86-6.01,7.38-12.27,14.55-18.59,21.67-9.94,11.19-20.32,22.45-32.37,31.41-4.68,3.48-10.36,7.47-16.37,7.96-5.86.48-9.63-4.21-9.7-9.85-.05-4.27,1.59-8.42,3.52-12.17-5.53,7.4-15.99,22.59-17.23,33.14l37.5,30.73c13.82-4.5,32.75-27.61,32.75-27.61,47.18-57.57,97.68-144.7,104.86-163.5Z" style="fill: #674126;"></path>
            </g>
            <g style="mix-blend-mode: multiply; opacity: .61;">
              <path d="M317.93-35.04c4.89-12.81,3.57-16.61,2.23-17.73-.01,0-.02-.02-.03-.03-.01,0-.02-.02-.03-.02-.55-.44-1.52-.79-3.23-.58.29,1.5.14,3.22-.12,4.62-1.02,5.56-3.48,10.9-5.9,15.97-5.8,12.16-12.91,23.65-19.93,35.13-13.69,22.36-28.12,44.19-42.82,65.9-14.08,20.79-28.43,41.35-44.15,60.94-6.36,7.92-13.01,15.65-20.51,22.52-1.33,1.22-2.7,2.42-4.1,3.59l.98.8c13.82-4.5,32.75-27.61,32.75-27.61,47.18-57.57,97.68-144.7,104.86-163.5Z" style="fill: #674126;"></path>
            </g>
            <path d="M179.66,156.87l-37.5-30.73c-.27-.22-.42-.57-.37-.93,1.72-14.57,20.08-37.12,20.86-38.08,45.96-56.09,121.94-123.81,139.96-135.17,9.34-5.89,15.44-7.77,18.15-5.61.01.01.07.06.09.07,2.65,2.22,2,8.58-1.94,18.89h0c-7.6,19.9-59.07,107.7-105.03,163.79-.78.95-19.29,23.39-33.23,27.94-.34.11-.71.04-.98-.18ZM143.93,124.91l36.6,29.99c13.33-4.77,31.55-26.87,31.74-27.09,45.84-55.93,97.13-143.41,104.7-163.21h0c5.02-13.14,3.21-16,2.54-16.56-.73-.59-3.89-1.79-15.78,5.71-17.93,11.31-93.62,78.79-139.46,134.73-.18.23-18.27,22.44-20.33,36.44Z" style="fill: #503118;"></path>
            <g style="mix-blend-mode: screen;">
              <path d="M160.66,121.15c4.09-.74,7.8,1.3,10.86,3.82,3.65,3.01,7.36,7.38,12.41,7.57-.45-1.37-1.12-2.63-1.98-3.8-4.24-5.8-11.32-9.21-14.61-15.76-2.84-5.67-.79-11.65,2.32-16.71,3.71-6.03,8.69-11.24,13.66-16.23,4.99-5.01,9.92-9.98,14.7-15.2,15.13-16.54,29.85-33.45,45.28-49.72,7.09-7.48,14.47-14.67,21.66-22.05,6.36-6.53,12.61-13.17,19.09-19.59,10.02-9.93,20.73-19.68,32.93-26.89-2.54.28-6.78,1.82-13.82,6.26-17.03,10.74-92.53,77.38-139.71,134.95,0,0-18.93,23.1-20.63,37.54l6.29,5.16c2.73-4.46,6.57-8.44,11.55-9.35Z" style="fill: #674126;"></path>
            </g>
          </g>
          <g>
            <path d="M142.82,125.34l-35.13,50.98s1.13,5.6,12.97,14.3c10.86,9.9,16.57,9.91,16.57,9.91l43.08-44.46c-2.77-7.65-29.45-29.51-37.5-30.73Z" style="fill: #848689;"></path>
            <g style="mix-blend-mode: multiply; opacity: .53;">
              <path d="M117.69,174.39c3.2-5.55,6.83-10.82,10.31-16.2,6.64-10.27,13.17-20.62,19.87-30.85-2.03-1.09-3.78-1.8-5.05-1.99l-35.13,50.98s.54,2.68,4.79,7.2c1.75-3.04,3.46-6.1,5.22-9.14Z" style="fill: #848689;"></path>
            </g>
            <g style="mix-blend-mode: screen;">
              <path d="M142.16,160.74c6.41-8.06,12.78-16.15,18.96-24.38-2.55-2-5.11-3.89-7.51-5.51-3,3.88-5.95,7.8-8.84,11.77-7.62,10.46-14.89,21.16-22.07,31.93-2.56,3.83-5.1,7.67-7.65,11.51,1.21,1.11,2.62,2.29,4.25,3.54,7.52-9.7,15.21-19.26,22.86-28.86Z" style="fill: #848689;"></path>
            </g>
            <g style="mix-blend-mode: multiply; opacity: .53;">
              <path d="M172.49,146.27c-4.97,4.36-9.88,8.79-14.72,13.29-11.68,10.85-23.12,21.98-33.81,33.82-.01.02-.03.03-.04.05,8.74,7.09,13.32,7.1,13.32,7.1l43.08-44.46c-.83-2.3-3.83-5.88-7.83-9.8Z" style="fill: #848689;"></path>
            </g>
            <g style="mix-blend-mode: multiply; opacity: .53;">
              <path d="M178.48,152.93c-2.19,2.33-4.43,4.6-6.71,6.85-8.58,8.45-17.7,16.44-25.64,25.52-4.11,4.7-7.94,9.69-12.01,14.45,2.04.78,3.1.79,3.1.79l43.08-44.46c-.32-.88-.95-1.94-1.84-3.14Z" style="fill: #848689;"></path>
            </g>
            <path d="M123,194.03c-.95-.78-1.95-1.64-3-2.6-12-8.81-13.28-14.66-13.33-14.9-.06-.28,0-.56.16-.8l35.13-50.98c.23-.33.62-.5,1.01-.44,8.52,1.29,35.38,23.3,38.32,31.4.14.37.05.79-.23,1.08l-43.08,44.46c-.2.2-.47.32-.75.32-.22,0-5.14-.1-14.23-7.55ZM108.84,176.5c.51,1.36,2.9,6.29,12.44,13.29.03.02.06.04.08.07,8.72,7.96,14.03,9.35,15.48,9.59l42.25-43.6c-3.63-7.57-27.67-27.27-35.8-29.34l-34.45,50Z" style="fill: #2e3032;"></path>
          </g>
        </g>
      </g>
    </g>
  </g>
</svg>