<?xml version="1.0"?>
<svg id="Layer_1" data-name="Layer 1" xmlns="http://www.w3.org/2000/svg" viewBox="0 0 275.47 277.29">
  <g>
    <path d="M-9.23,135.26c-.04,2.99.34,6.04,1.31,9.08,1.61,5.02,5.24,9.19,9.94,11.61,10.55,5.44,22.12,7.44,34.69,5.96,8.67-1.01,17.06-4.71,27.15-8.44,3.11-1.14,6.56-.92,9.49.62l59.73,31.36c4.15,2.17,7.12,6.11,8,10.71,3.11,16.12,7.67,30.54,13.47,43.51,1.3,2.91,2.67,5.73,4.09,8.5.16.32.33.65.49.96,3.54,6.77,9.17,12.27,16.07,15.54,24.27,11.5,43.74,5.83,56.51-23.79,0,0,15.9-43.67,24.07-73.18.72-2.62,1.34-5.08,1.86-7.38.49-2.23.9-4.3,1.23-6.23,2.27-13.21-3.73-26.47-15.12-33.55l-19.67-12.23c-7.32-4.54-16.16-5.93-24.52-3.84l-13.38,3.36c-3.6.9-7.4.43-10.68-1.34l-38.43-20.66c-2.38-1.29-4.24-3.36-5.23-5.87l-8.85-22.29c-1.33-3.36-3.82-6.13-7.01-7.82l-17.8-9.42c-11.6-6.13-25.75-4.9-36.04,3.25-2.84,2.25-5.9,5.02-9.19,8.41C31.4,74.39,4.46,104.53,4.46,104.53c0,0-13.39,14.33-13.69,30.72" style="fill: #cfcde0;"></path>
    <path d="M194.79,267.6c-5.53-.4-11.56-2.13-18.04-5.21-.8-.38-1.59-.79-2.35-1.24,1.09.22,2.19.37,3.29.44,1.43.1,2.87.09,4.29-.03,3.81-.32,7.47-1.42,10.82-3.03,3.36-1.59,6.43-3.69,9.16-6.11.08-.08.1-.2.04-.3-.04-.06-.11-.1-.18-.11-.05,0-.1,0-.14.04-.2.13-.41.26-.62.38,18.08-23.3,32.85-60.81,44.32-112.57,8.29,5.16,10.67,11.57,11.46,14.44-.7,3.93-1.68,8.19-2.92,12.68-7.89,28.55-23.28,71-23.98,72.94-5.97,13.82-13.64,22.58-22.79,26.03-3.78,1.43-7.91,1.98-12.36,1.66" style="fill: #908fbf;"></path>
    <path d="M163.02,251.67c2.76,2.1,5.69,3.9,8.85,5.13,3.16,1.22,6.53,1.88,9.97,1.84,3.44-.03,6.9-.72,10.24-1.87,3.34-1.17,6.55-2.8,9.62-4.72.11-.07.25-.04.32.07.06.1.04.22-.04.3-2.73,2.42-5.8,4.52-9.16,6.11-3.35,1.61-7.01,2.71-10.82,3.03-3.8.33-7.72-.13-11.34-1.47-3.63-1.31-6.92-3.41-9.72-5.95-.67-.6-.72-1.63-.11-2.29.57-.63,1.52-.71,2.18-.21l.04.03" style="fill: #000073;"></path>
    <path d="M179.71,258.58c-2.7-.19-5.34-.81-7.84-1.78-2.3-.9-4.49-2.1-6.57-3.49-1.34-1.67-2.52-3.46-3.51-5.37-8.14-15.57-14.13-33.17-17.82-52.3-1.03-5.33-4.4-9.86-9.26-12.41l-59.74-31.36c-1.74-.91-3.64-1.44-5.56-1.58s-4,.13-5.9.84c-1.85.68-3.65,1.36-5.39,2.03-7.73,2.94-14.41,5.48-21.2,6.27-4.03.47-7.96.57-11.79.3-7.6-.54-14.8-2.55-21.5-6-4.16-2.15-7.34-5.86-8.73-10.18-.89-2.77-1.23-5.56-1.18-8.31,7.36,6.4,15.57,10.23,24.85,10.89,11.11.79,23.74-2.96,38.23-12.29,0,0,1.61-.87,4.6-.66,1.8.13,4.11.65,6.87,1.99-.07-2.85.58-5.79,2.06-8.53.84-1.56,1.89-2.94,3.08-4.12.04.2.09.41.14.61.69,2.72,2.15,5.04,4.21,6.7-1.49,7.42,1.64,15.07,8.26,18.64,2.03,1.1,4.23,1.73,6.49,1.89,1.39.1,2.8.02,4.21-.24l19.93,10.5c-.2-3.07.44-6.28,2.05-9.25.54-.99,1.16-1.91,1.84-2.76.55,1.76,1.5,3.35,2.82,4.61-2.5,7.98.58,16.67,7.77,20.56,2.03,1.1,4.23,1.73,6.49,1.89,2.01.14,4.06-.09,6.08-.7,4.93,3.22,8.46,8.24,9.81,14.03,1.42,6.06,3.29,14.33,5.28,23.48,3.81,17.62,14.35,39.71,22.63,46.15-.57,0-1.15-.02-1.72-.06" style="fill: #908fbf;"></path>
    <path d="M178.95,259.76c-2.79-.2-6.71-.96-10.76-3.29-1.03-.99-2-2.05-2.9-3.17,2.08,1.4,4.27,2.6,6.57,3.49,2.5.97,5.14,1.59,7.84,1.78.57.04,1.14.06,1.72.06.53.41,1.05.76,1.56,1.04,0,0-1.57.26-4.02.08" style="fill: #000073;"></path>
    <path d="M123.72,58.15l2.34-5.64c1.33-3.21,0-6.91-3.09-8.53l-17.43-9.67c-2.04-1.13-4.58-.87-6.35.65l-4.28,3.69,28.82,19.5" style="fill: #4a4a9e;"></path>
    <path d="M125.76,46.73s0,0,0,0t0,0M125.76,46.72s0,0,0,0c0,0,0,0,0,0M125.75,46.71s0,0,0-.01c0,0,0,0,0,.01M125.74,46.69c-.62-1.12-1.56-2.07-2.77-2.71l-11.12-6.17,11.12,6.17c1.21.63,2.15,1.59,2.76,2.71M96.99,36.86s0,0,0,0l2.2-1.9c1.14-.98,2.6-1.44,4.05-1.34.7.05,1.39.23,2.04.55-.65-.32-1.34-.5-2.04-.55-1.44-.1-2.9.35-4.04,1.34l-2.2,1.9" style="fill: #c6dcff;"></path>
    <path d="M125.01,55.04c-.26-.5-.54-.98-.85-1.45.43-2.78-.93-5.62-3.52-6.97l-17.43-9.68c-.73-.4-1.52-.63-2.31-.68-1.17-.08-2.35.2-3.36.84-.18-.08-.36-.16-.55-.23l2.2-1.9c1.14-.98,2.6-1.44,4.04-1.34.7.05,1.39.23,2.04.55.09.04.18.09.27.14l6.31,3.5,11.12,6.17c1.21.63,2.15,1.59,2.77,2.71t0,0s0,0,0,.01c0,0,0,0,0,0,0,0,0,0,0,0,0,0,0,0,0,.01,0,0,0,0,0,0,.94,1.73,1.1,3.84.3,5.78l-1.05,2.53" style="fill: #adadd3;"></path>
    <path d="M257.28,145.59c-3.05-10.03-11.61-17.99-12.82-19.07-.09-.09-.14-.13-.14-.13-1.48-1.36-3.11-2.6-4.87-3.69l-19.67-12.23c-3.98-2.48-8.42-4.02-12.98-4.57,1.02-.03,2.04-.01,3.06.06,4.73.34,9.36,1.81,13.43,4.34l19.67,12.23c8.28,5.15,13.45,13.71,14.32,23.06M177.2,110.4c-2.08-.15-4.13-.73-5.99-1.73l-38.43-20.67c-2.38-1.28-4.23-3.36-5.23-5.87l-8.85-22.29c-1.33-3.36-3.82-6.13-7.01-7.82l-17.8-9.42c-3.74-1.97-7.73-3.18-11.78-3.65,1.07-.04,2.14-.01,3.21.06,4.19.3,8.36,1.46,12.23,3.51l14.03,7.42,7.68,5.19c.82,1,1.49,2.14,1.98,3.36l8.84,22.29c1.21,3.04,3.46,5.57,6.34,7.12l38.43,20.67c1.59.86,3.29,1.45,5.03,1.77-.89.1-1.79.11-2.68.05" style="fill: #e9e8f1;"></path>
    <path d="M119.26,55.13l-7.68-5.19,3.77,1.99c1.51.8,2.84,1.89,3.91,3.2" style="fill: #adadd3;"></path>
    <path d="M151.11,93.04l7.13-9.62c1.74-2.35,4.92-3.08,7.51-1.73l4.87,2.53c3.25,1.69,4.21,5.89,2.02,8.82-2.87,3.84-6.15,8.27-6.06,8.32l-15.48-8.32" style="fill: #4a4a9e;"></path>
    <path d="M170.96,95.31s0,0,0-.02c.14-.18.28-.37.41-.55-.14.19-.28.38-.42.57M156.25,86.11l1.99-2.69c1.24-1.68,3.22-2.54,5.2-2.39.15.01.3.03.45.05-.15-.02-.29-.04-.44-.05-1.98-.14-3.96.71-5.2,2.39l-1.99,2.69" style="fill: #c6dcff;"></path>
    <path d="M170.96,95.29c1.21-2.78.13-6.16-2.71-7.63l-4.87-2.53c-.74-.39-1.53-.6-2.32-.66-1.97-.14-3.95.71-5.2,2.39l-3.16,4.26-.13-.07,3.67-4.96,1.99-2.69c1.24-1.68,3.22-2.53,5.2-2.39.15.01.29.03.44.05.64.1,1.27.3,1.87.61l2.44,1.27,2.18,2.4c.12-.11.39-.37.77-.82,2.82,1.85,3.57,5.75,1.49,8.52-.42.56-.84,1.13-1.26,1.7-.14.19-.28.37-.41.55" style="fill: #adadd3;"></path>
    <path d="M250.21,125.21l1.08-5.91c.47-2.56-.66-5.14-2.85-6.54l-19.2-12.25c-2.09-1.33-4.75-1.34-6.85-.02l-6.42,4.03,34.24,20.69" style="fill: #4a4a9e;"></path>
    <path d="M250.98,120.99l.31-1.69c.2-1.07.11-2.14-.21-3.12.32.99.4,2.06.21,3.12l-.31,1.7" style="fill: #cdcce2;"></path>
    <path d="M244.88,110.49l-15.64-9.98s-.07-.05-.11-.07c.04.02.08.05.11.07l15.64,9.98h0" style="fill: #c6dcff;"></path>
    <path d="M249.3,113.43c-.27-.25-.56-.47-.87-.67l-3.56-2.27h0l3.56,2.27c.31.2.6.42.87.67" style="fill: #8c8cc0;"></path>
    <path d="M250.74,122.32c-.43-.39-.88-.78-1.33-1.15,0-2.17-1.09-4.23-2.96-5.43l-19.2-12.25c-.92-.59-1.94-.92-2.98-.99-1.31-.09-2.65.22-3.82.94-.58-.23-1.16-.44-1.75-.64l3.69-2.32c1.17-.74,2.53-1.06,3.86-.97,1,.07,1.99.38,2.87.92.04.02.08.05.11.07l15.64,9.98,3.56,2.27c.31.2.6.42.87.67.83.75,1.43,1.71,1.77,2.75.32.99.4,2.06.21,3.12l-.31,1.69-.24,1.33" style="fill: #adadd3;"></path>
    <path d="M69.41,150.29c1.92.14,3.82.67,5.56,1.58l59.74,31.36c4.86,2.55,8.23,7.07,9.26,12.41,3.68,19.13,9.68,36.72,17.82,52.3,3.3,6.32,8.61,11.45,14.96,14.46,11.7,5.55,21.94,6.74,30.41,3.55,9.15-3.45,16.82-12.21,22.79-26.03.71-1.94,16.09-44.39,23.98-72.94,1.31-4.75,2.34-9.25,3.04-13.37,2.1-12.27-3.39-24.47-14-31.07l-19.67-12.23c-6.71-4.18-14.96-5.47-22.63-3.54l-13.39,3.36c-4.2,1.05-8.61.5-12.42-1.55l-38.43-20.67c-2.88-1.55-5.14-4.08-6.34-7.12l-8.84-22.29c-1.12-2.82-3.21-5.15-5.88-6.56l-17.8-9.42c-10.79-5.71-23.89-4.53-33.38,3-2.91,2.31-5.93,5.07-8.96,8.2C33.92,75.74,7.03,105.8,6.76,106.1c-.21.23-17.68,19.25-11.87,37.43,1.38,4.33,4.56,8.04,8.73,10.18,10.08,5.2,21.29,7.12,33.3,5.71,6.79-.8,13.47-3.33,21.2-6.27,1.75-.66,3.54-1.35,5.39-2.03,1.9-.7,3.92-.98,5.9-.84M194.46,272.46c-6.14-.44-12.76-2.33-19.8-5.67-7.3-3.46-13.4-9.36-17.19-16.61-8.36-15.99-14.51-34.04-18.28-53.63-.75-3.87-3.2-7.16-6.74-9.01l-59.74-31.36c-2.32-1.22-5.06-1.4-7.51-.49-1.84.68-3.62,1.35-5.35,2.01-8.03,3.05-14.97,5.69-22.36,6.56-12.99,1.52-25.14-.57-36.1-6.22-5.31-2.73-9.36-7.48-11.14-13.03-6.68-20.92,12.11-41.34,12.92-42.2.23-.26,27.18-30.39,48.54-52.49,3.18-3.28,6.35-6.19,9.43-8.63,11.01-8.73,26.2-10.1,38.69-3.49l17.8,9.42c3.7,1.96,6.59,5.18,8.13,9.07l8.85,22.29c.78,1.97,2.25,3.62,4.12,4.62l38.43,20.67c2.74,1.47,5.91,1.87,8.93,1.11l13.39-3.36c8.94-2.24,18.56-.74,26.39,4.13l19.67,12.23c12.3,7.65,18.67,21.79,16.23,36.03-.73,4.28-1.79,8.94-3.15,13.85-8.09,29.27-23.97,72.93-24.13,73.37l-.05.13c-6.52,15.12-15.12,24.78-25.57,28.72-4.45,1.68-9.27,2.33-14.42,1.96" style="fill: #000073;"></path>
    <path d="M244.51,142.1c.53-4.12.25-8.31-.81-12.25-1.06-3.95-2.89-7.65-5.33-10.85-.68-.89-.51-2.17.38-2.85.89-.68,2.17-.51,2.85.38.03.04.06.08.09.13h0c2.47,3.83,4.16,8.11,4.98,12.52.82,4.41.76,8.94-.15,13.26-.12.55-.66.9-1.2.78-.52-.11-.86-.61-.8-1.13h0Z" style="fill: #000073;"></path>
    <path d="M81.39,160.28l-15.98-9.45c-2.44-1.49-5.24-2.29-8.11-2.28-.72,0-1.43.06-2.14.16-.36.05-.71.12-1.06.19l-1.12.25-4.53,1.03c-.55.12-1.09-.22-1.22-.77-.12-.53.2-1.05.71-1.2l4.46-1.27,1.13-.32c.4-.11.8-.21,1.21-.28.81-.16,1.64-.28,2.47-.32,3.32-.21,6.74.57,9.67,2.15l16.47,8.56c1,.52,1.38,1.75.87,2.74-.52.99-1.75,1.38-2.74.86-.03-.02-.07-.04-.1-.05h0Z" style="fill: #000073;"></path>
    <path d="M139.42,89.04l-17.54-8.06c-.51-.23-.73-.84-.5-1.35.22-.48.76-.7,1.25-.54l18.29,6.17c1.06.36,1.63,1.51,1.28,2.58-.36,1.07-1.51,1.64-2.58,1.28-.07-.02-.13-.05-.2-.08h0Z" style="fill: #000073;"></path>
    <path d="M215.44,127.43c4.07,2.05,5.11,7.04,2.33,11.15-2.78,4.11-8.32,5.78-12.39,3.72-4.06-2.05-5.11-7.03-2.33-11.15,2.78-4.1,8.33-5.77,12.39-3.72" style="fill: #e9f400;"></path>
    <path d="M209,143.21c-.23-.02-.46-.04-.69-.08.08,0,.15.01.23.02,1.53.11,3.11-.17,4.58-.79,1.01-.3,1.99-.76,2.89-1.37-2.03,1.58-4.59,2.38-7.01,2.21" style="fill: #908fbf;"></path>
    <path d="M208.54,143.15c-.08,0-.16-.01-.23-.02-.86-.13-1.69-.38-2.47-.78-4.06-2.05-5.11-7.04-2.33-11.15.38-.57.82-1.09,1.31-1.57-1.06,3.46.25,7.01,3.52,8.66.98.5,2.06.77,3.15.85,1.27.09,2.58-.09,3.82-.5-.15.29-.33.58-.52.86-.92,1.36-2.15,2.46-3.52,3.23.62-.07,1.24-.19,1.85-.38-1.47.62-3.05.9-4.58.79" style="fill: #a3aa23;"></path>
    <path d="M205.24,147.45c-1.47-.11-2.89-.55-4.11-1.36-3.8-2.51-4.25-7.58-1.02-11.34.45-.52.95-.99,1.48-1.41-1.45,3.31-.57,6.99,2.49,9.01,1.22.81,2.64,1.25,4.11,1.36,2.47.18,5.08-.6,7.15-2.21-.35.81-.84,1.6-1.48,2.34-2.19,2.55-5.52,3.83-8.63,3.61" style="fill: #908fbf;"></path>
    <path d="M216.01,141c.85-.66,1.6-1.46,2.22-2.37.54-.81.94-1.65,1.19-2.5-.22.22-.45.42-.68.62,1.45-3.66.18-7.57-3.3-9.32-.98-.5-2.05-.77-3.15-.85-1.16-.08-2.34.06-3.49.4,1.46-.61,3.03-.89,4.55-.78,1.1.08,2.18.36,3.16.86,4.07,2.05,5.11,7.03,2.33,11.14-.76,1.13-1.74,2.07-2.83,2.81" style="fill: #e9e8f1;"></path>
    <path d="M215.31,138.65c2.11-3.93.94-8.38-2.85-10.29-.98-.5-2.04-.77-3.13-.85-.56-.04-1.12-.03-1.69.04.38-.21.77-.41,1.16-.57,1.14-.34,2.33-.48,3.49-.4s2.17.36,3.15.85c3.48,1.76,4.74,5.66,3.3,9.32-1.02.85-2.2,1.49-3.43,1.9" style="fill: #f5fa8c;"></path>
    <path d="M213.12,142.37c1.83-.77,3.48-2.07,4.65-3.79.4-.59.72-1.2.97-1.82.24-.19.47-.4.68-.62-.25.85-.65,1.69-1.19,2.5-.62.91-1.37,1.71-2.22,2.37-.9.6-1.88,1.06-2.89,1.37" style="fill: #cdcce2;"></path>
    <path d="M211.27,142.74c1.38-.77,2.6-1.87,3.52-3.23.19-.28.36-.57.52-.86,1.23-.41,2.4-1.05,3.43-1.9-.24.62-.57,1.23-.97,1.82-1.17,1.73-2.82,3.02-4.65,3.79-.61.18-1.23.31-1.85.38" style="fill: #d6d99c;"></path>
    <path d="M212.13,128.33c-2.81-.2-5.87,1.23-7.62,3.82-1.12,1.66-1.51,3.57-1.08,5.25.38,1.45,1.35,2.63,2.74,3.34,3.29,1.66,7.84.25,10.13-3.14,1.12-1.66,1.51-3.57,1.08-5.25-.38-1.45-1.35-2.63-2.74-3.34-.78-.39-1.64-.62-2.51-.68h0ZM208.46,144.93c-1.34-.1-2.65-.44-3.87-1.06-2.31-1.16-3.93-3.15-4.57-5.6-.69-2.66-.12-5.61,1.57-8.11,3.25-4.81,9.82-6.74,14.65-4.31,2.31,1.16,3.93,3.15,4.57,5.6.69,2.66.12,5.62-1.57,8.11-2.48,3.67-6.73,5.66-10.77,5.37h0Z" style="fill: #000073;"></path>
    <path d="M194.33,158.64c4.07,2.05,5.11,7.03,2.33,11.15-2.78,4.1-8.32,5.78-12.39,3.72-4.06-2.05-5.11-7.04-2.33-11.15,2.78-4.11,8.33-5.77,12.39-3.72" style="fill: #12ed00;"></path>
    <path d="M180.49,165.88c.2-1.19.68-2.38,1.44-3.52.38-.57.82-1.09,1.3-1.57,0,0,0,0,0,.01-.48.47-.92.99-1.3,1.56-.76,1.13-1.24,2.33-1.44,3.51" style="fill: #908fbf;"></path>
    <path d="M187.42,174.36c-1.1-.08-2.17-.36-3.16-.85-2.94-1.49-4.3-4.51-3.77-7.63.2-1.18.68-2.38,1.44-3.51.38-.57.82-1.09,1.3-1.56-1.05,3.46.26,7,3.52,8.65.98.5,2.06.77,3.15.85,1.27.09,2.58-.09,3.82-.5-.16.29-.33.57-.52.86-.92,1.36-2.15,2.46-3.52,3.23,1.66-.18,3.3-.78,4.74-1.74-2.03,1.58-4.59,2.39-7.01,2.21" style="fill: #0da523;"></path>
    <path d="M183.66,178.6c-1.47-.1-2.89-.55-4.11-1.36-3.79-2.51-4.25-7.59-1.02-11.35.45-.52.95-.99,1.48-1.4-1.45,3.31-.57,6.99,2.49,9.01,1.22.81,2.64,1.25,4.11,1.35,2.47.18,5.08-.6,7.15-2.21-.35.81-.84,1.6-1.47,2.34-2.19,2.55-5.52,3.83-8.63,3.61" style="fill: #908fbf;"></path>
    <path d="M194.46,172.13c.83-.65,1.58-1.44,2.19-2.35,2.78-4.11,1.74-9.09-2.33-11.15-.99-.5-2.06-.77-3.16-.85-1.61-.11-3.27.2-4.8.88-.1,0-.2.02-.31.03,1.76-1.01,3.78-1.49,5.71-1.35,1.1.08,2.18.36,3.16.86,4.07,2.05,5.11,7.03,2.33,11.14-.76,1.12-1.72,2.06-2.8,2.79" style="fill: #e9e8f1;"></path>
    <path d="M194.44,172.15c.85-.66,1.6-1.45,2.22-2.37.54-.81.94-1.65,1.19-2.5-1.17,1.16-2.6,2.01-4.11,2.52,2.11-3.93.94-8.38-2.85-10.29-.98-.49-2.04-.77-3.13-.85-.46-.03-.92-.03-1.38,0,1.53-.68,3.19-.99,4.8-.88,1.1.08,2.17.36,3.16.85,4.07,2.05,5.11,7.03,2.33,11.15-.61.91-1.36,1.69-2.19,2.35-.01,0-.02.01-.03.02" style="fill: #94f78c;"></path>
    <path d="M189.7,173.9c1.38-.77,2.6-1.87,3.52-3.23.19-.28.36-.57.52-.86,1.51-.5,2.94-1.36,4.11-2.52-.25.85-.65,1.69-1.19,2.5-.62.92-1.37,1.71-2.22,2.37-1.44.96-3.08,1.56-4.74,1.74" style="fill: #92d69c;"></path>
    <path d="M191.02,159.54c-2.81-.2-5.87,1.23-7.62,3.82-1.12,1.65-1.51,3.57-1.08,5.25.38,1.45,1.35,2.64,2.74,3.34,3.3,1.66,7.84.25,10.13-3.14,1.12-1.66,1.52-3.57,1.08-5.25-.38-1.45-1.35-2.63-2.74-3.34-.78-.39-1.64-.62-2.51-.68h0ZM187.26,176.11c-1.32-.09-2.6-.43-3.78-1.02-2.31-1.16-3.93-3.15-4.56-5.6-.69-2.66-.12-5.62,1.57-8.11,3.25-4.81,9.83-6.74,14.65-4.31,2.31,1.17,3.93,3.15,4.57,5.6.69,2.66.12,5.61-1.57,8.11-2.46,3.63-6.81,5.62-10.86,5.33h0Z" style="fill: #000073;"></path>
    <path d="M189.44,135.25c4.06,2.05,5.11,7.04,2.33,11.15-2.78,4.1-8.33,5.77-12.39,3.72-4.07-2.05-5.11-7.04-2.33-11.15,2.78-4.1,8.32-5.78,12.39-3.72" style="fill: #ff1d1d;"></path>
    <path d="M177.25,138.69s0,0,0,0c.38-.57.82-1.09,1.31-1.57-.01.05-.03.09-.04.14-.46.44-.89.92-1.27,1.44" style="fill: #908fbf;"></path>
    <path d="M182.74,150.68c-1.1-.08-2.17-.36-3.15-.85-4.06-2.05-5.1-7.03-2.34-11.14.38-.52.81-1,1.27-1.44-.98,3.42.33,6.89,3.56,8.52.99.5,2.06.77,3.15.85,1.27.09,2.58-.09,3.82-.5-.15.29-.33.58-.52.86-.92,1.36-2.15,2.46-3.52,3.23,1.66-.18,3.3-.78,4.74-1.74-2.03,1.58-4.59,2.39-7.01,2.21" style="fill: #b21437;"></path>
    <path d="M178.98,154.92c-1.47-.11-2.89-.55-4.11-1.36-3.79-2.51-4.25-7.58-1.02-11.34.45-.52.95-.99,1.48-1.41-1.45,3.31-.57,6.99,2.49,9.01,1.22.81,2.64,1.25,4.11,1.35,1.72.12,3.52-.22,5.15-.98.67-.28,1.32-.63,1.93-1.04-.34.74-.81,1.47-1.39,2.15-2.19,2.55-5.52,3.83-8.63,3.61" style="fill: #908fbf;"></path>
    <path d="M187.08,150.2c.71-.33,1.38-.74,2.01-1.23-.03.06-.05.13-.08.19-.61.41-1.26.76-1.93,1.04" style="fill: #b21437;"></path>
    <path d="M190.52,147.91c.46-.46.88-.96,1.25-1.51,0,0,0,0,0-.01.07-.09.13-.19.2-.28.54-.81.94-1.65,1.19-2.5-.05.05-.1.1-.15.15.97-3.41-.36-6.88-3.58-8.5-.99-.5-2.06-.78-3.16-.85-1.33-.1-2.7.1-4,.56-.3,0-.6.02-.9.06,1.76-1.01,3.78-1.49,5.71-1.35,1.1.08,2.18.36,3.16.86,4.07,2.05,5.11,7.03,2.33,11.14-.58.86-1.28,1.61-2.07,2.24" style="fill: #e9e8f1;"></path>
    <path d="M189.76,148.47c.76-.59,1.44-1.29,2.02-2.09,0,0,0,0,0,.01-.37.55-.79,1.05-1.25,1.51-.25.2-.5.39-.76.56M189.06,146.12c2.11-3.93.94-8.38-2.85-10.29-.98-.5-2.04-.77-3.13-.85-.26-.02-.53-.03-.79-.02,1.3-.46,2.67-.66,4-.56,1.1.08,2.17.36,3.16.85,3.22,1.62,4.54,5.09,3.58,8.5-1.14,1.08-2.51,1.89-3.96,2.37" style="fill: #f99;"></path>
    <path d="M191.78,146.39c.57-.85.98-1.74,1.24-2.63.05-.05.1-.1.15-.15-.25.85-.65,1.69-1.19,2.5-.07.1-.13.19-.2.28" style="fill: #cdcce2;"></path>
    <path d="M185.02,150.21c1.38-.77,2.6-1.87,3.52-3.23.19-.28.36-.57.52-.86,1.44-.48,2.81-1.29,3.96-2.37-.25.89-.66,1.78-1.24,2.63-.58.8-1.26,1.49-2.02,2.09-1.44.96-3.08,1.56-4.74,1.74" style="fill: #dc95a5;"></path>
    <path d="M186.13,136.15c-2.81-.2-5.87,1.23-7.62,3.81-1.12,1.66-1.51,3.57-1.08,5.25.38,1.45,1.35,2.63,2.74,3.33,3.3,1.66,7.84.25,10.14-3.14,1.12-1.66,1.51-3.57,1.07-5.25-.38-1.45-1.35-2.63-2.74-3.33-.78-.39-1.64-.62-2.51-.68h0ZM182.37,152.72c-1.32-.09-2.6-.43-3.78-1.02-2.31-1.16-3.93-3.15-4.57-5.6-.69-2.66-.12-5.61,1.57-8.11,3.25-4.81,9.82-6.74,14.65-4.31,2.31,1.16,3.93,3.15,4.57,5.6.69,2.66.12,5.62-1.57,8.11-2.46,3.63-6.81,5.62-10.87,5.33h0Z" style="fill: #000073;"></path>
    <path d="M220.34,150.82c4.06,2.05,5.11,7.04,2.33,11.15-2.78,4.1-8.33,5.77-12.39,3.72-4.06-2.05-5.11-7.04-2.33-11.15,2.78-4.1,8.33-5.77,12.39-3.72" style="fill: #1595ff;"></path>
    <path d="M209.46,165.22c-3.53-2.23-4.32-6.9-1.69-10.79.38-.57.82-1.09,1.3-1.57-.04.14-.08.28-.11.42-.37.39-.71.82-1.02,1.27-2.58,3.82-1.86,8.4,1.52,10.67" style="fill: #908fbf;"></path>
    <path d="M213.26,166.44c-1.1-.08-2.17-.36-3.16-.85-.22-.11-.43-.23-.64-.36-3.38-2.27-4.1-6.85-1.52-10.67.31-.45.65-.88,1.02-1.27-.83,3.33.49,6.66,3.64,8.25.99.5,2.06.77,3.15.85,1.27.09,2.58-.09,3.82-.5-.16.29-.33.57-.52.86-.92,1.36-2.15,2.46-3.52,3.23,1.66-.18,3.3-.78,4.74-1.74-2.03,1.58-4.59,2.39-7.01,2.21" style="fill: #0f68d5;"></path>
    <path d="M209.5,170.67c-1.47-.1-2.89-.55-4.11-1.36-3.79-2.51-4.25-7.59-1.02-11.35.45-.52.95-.99,1.48-1.4-1.45,3.31-.57,6.99,2.49,9.01,1.22.81,2.64,1.25,4.11,1.36,1.83.13,3.73-.26,5.44-1.13.55-.22,1.08-.49,1.59-.8-.34.71-.79,1.4-1.35,2.05-2.19,2.55-5.52,3.83-8.63,3.61" style="fill: #908fbf;"></path>
    <path d="M217.88,165.81c.6-.31,1.18-.67,1.72-1.09-.04.09-.08.19-.13.29-.51.31-1.04.58-1.59.8" style="fill: #0f68d5;"></path>
    <path d="M222.46,162.26c.07-.1.14-.19.2-.29,2.78-4.1,1.73-9.1-2.33-11.15-.98-.5-2.05-.77-3.15-.85-1.49-.11-3.03.15-4.47.74-.27,0-.54.03-.81.06,1.76-1.01,3.78-1.49,5.71-1.35,1.1.08,2.18.36,3.16.86,4.07,2.05,5.11,7.03,2.33,11.14-.2.29-.41.57-.64.84" style="fill: #e9e8f1;"></path>
    <path d="M220.27,164.22c.85-.66,1.6-1.45,2.22-2.37.54-.81.94-1.65,1.19-2.5-1.17,1.16-2.6,2.01-4.11,2.52,2.11-3.93.94-8.38-2.85-10.29-.98-.49-2.04-.77-3.13-.85-.29-.02-.59-.03-.88-.02,1.44-.59,2.98-.85,4.47-.74,1.1.08,2.17.36,3.15.85,4.06,2.05,5.11,7.04,2.33,11.15-.07.1-.13.19-.2.29-.64.76-1.38,1.42-2.19,1.97" style="fill: #95cfff;"></path>
    <path d="M215.53,165.97c1.38-.77,2.6-1.87,3.52-3.23.19-.28.36-.57.52-.86,1.51-.5,2.94-1.36,4.11-2.52-.25.85-.65,1.69-1.19,2.5-.62.92-1.37,1.71-2.22,2.37-1.44.96-3.08,1.56-4.74,1.74" style="fill: #93bbec;"></path>
    <path d="M217.03,151.72c-2.81-.2-5.87,1.23-7.62,3.82-1.12,1.66-1.51,3.57-1.07,5.25.38,1.45,1.35,2.64,2.74,3.34,3.29,1.66,7.84.25,10.14-3.14,1.12-1.66,1.51-3.57,1.07-5.25-.38-1.45-1.35-2.64-2.74-3.34-.78-.39-1.63-.62-2.51-.68h0ZM213.26,168.29c-1.31-.09-2.6-.43-3.78-1.02-2.31-1.16-3.93-3.15-4.56-5.6-.69-2.66-.12-5.62,1.57-8.11,3.25-4.81,9.83-6.74,14.65-4.31,2.31,1.16,3.93,3.15,4.57,5.6.69,2.66.12,5.62-1.57,8.11-2.46,3.63-6.81,5.62-10.87,5.33h0Z" style="fill: #000073;"></path>
    <path d="M145.62,118.44l10.24,5.24c.77.4,1.72.19,2.25-.5l2.06-2.65c.69-.89.4-2.2-.6-2.72l-10.24-5.24c-.77-.4-1.72-.19-2.25.5l-2.06,2.65c-.69.89-.4,2.2.6,2.72h0Z" style="fill: #000073;"></path>
    <path d="M126.32,108.39l10.24,5.24c.77.4,1.72.19,2.25-.5l2.06-2.65c.69-.89.4-2.2-.6-2.72l-10.24-5.24c-.77-.4-1.72-.19-2.25.5l-2.06,2.65c-.69.89-.4,2.2.6,2.71h0Z" style="fill: #000073;"></path>
    <path d="M165.43,103.5l-1.22-1.62q-.28-1.25,6.49-10.3c.62-.82.84-1.87.61-2.87-.23-1-.89-1.85-1.8-2.33l-4.87-2.53c-1.54-.8-3.4-.37-4.43,1.02l-7.13,9.62-3.92-2.9,7.13-9.62c2.46-3.33,6.92-4.36,10.6-2.45l4.87,2.53c2.19,1.14,3.75,3.17,4.3,5.57.55,2.4.02,4.91-1.45,6.88-4.99,6.68-5.75,7.81-5.87,8,.05-.08.47-.82.21-1.78l-2.35.64-1.16,2.15h0Z" style="fill: #000073;"></path>
    <path d="M126.36,150.67c-4.28,7.92-1.76,17.58,5.62,21.56,7.38,3.98,16.83.79,21.11-7.13,4.28-7.92,1.76-17.57-5.62-21.56-7.38-3.99-16.83-.79-21.11,7.13" style="fill: #4a4a9e;"></path>
    <path d="M137.88,172.15c-1.76-.13-3.48-.62-5.07-1.47-5.39-2.91-7.83-9.3-6.35-15.42,1.05.44,2.15.7,3.26.78s2.17-.01,3.24-.26c.43,4.99,3.12,9.55,7.64,11.98,1.84.99,3.8,1.54,5.78,1.68.2.01.4.02.6.03-1.18.85-2.47,1.52-3.86,1.99-1.74.59-3.52.82-5.25.69" style="fill: #343491;"></path>
    <path d="M149.67,166.99c.05-.08.09-.17.14-.25,4.28-7.93,1.76-17.58-5.62-21.56-.53-.29-1.08-.54-1.63-.75.02-.23.03-.46.04-.68,1.38.21,2.74.66,4.03,1.35,3.13,1.69,5.37,4.6,6.31,8.2.95,3.64.45,7.54-1.4,10.97-.53.98-1.16,1.9-1.86,2.73" style="fill: #adadd3;"></path>
    <path d="M127.91,151.5c-3.81,7.05-1.61,15.65,4.91,19.17,3.13,1.69,6.8,1.97,10.32.78,3.56-1.2,6.55-3.76,8.4-7.2,1.85-3.44,2.35-7.33,1.4-10.97-.94-3.59-3.18-6.5-6.31-8.2-6.51-3.51-14.91-.64-18.72,6.42h0M137.63,175.67c-2.26-.16-4.46-.79-6.49-1.89-8.23-4.44-11.07-15.18-6.34-23.95h0c4.73-8.76,15.27-12.29,23.5-7.84,4.01,2.16,6.87,5.86,8.05,10.41,1.17,4.51.57,9.31-1.72,13.54-2.28,4.22-5.97,7.37-10.38,8.86-2.19.74-4.44,1.03-6.63.87" style="fill: #000073;"></path>
    <path d="M121.58,138.96c-3.16,5.86-1.37,12.96,4,15.86,5.37,2.9,12.3.5,15.46-5.36,3.16-5.86,1.37-12.96-4.01-15.86-5.37-2.9-12.29-.5-15.46,5.36" style="fill: #4a4a9e;"></path>
    <path d="M132.96,155.77h0c.27-.06.54-.14.8-.22-.27.08-.53.16-.8.22" style="fill: #343491;"></path>
    <path d="M129.72,156.03c-1.11-.08-2.2-.34-3.26-.78h0c1.05.44,2.15.7,3.26.78s2.17-.01,3.23-.26h0c-1.07.25-2.16.34-3.24.26" style="fill: #242488;"></path>
    <path d="M120.55,148.61c-.94-3.01-.67-6.51,1.03-9.65.5-.91,1.08-1.75,1.73-2.48h0c-.66.74-1.24,1.57-1.73,2.48-1.69,3.14-1.97,6.63-1.03,9.64h0" style="fill: #908fbf;"></path>
    <path d="M123.37,153.22c-1.32-1.26-2.28-2.86-2.82-4.61h0c.55,1.75,1.5,3.35,2.82,4.61,0,0,0,0,0,0" style="fill: #6564a8;"></path>
    <path d="M126.47,155.25c-.3-.13-.6-.27-.89-.43-.82-.44-1.56-.98-2.21-1.61,0,0,0,0,0,0,.65.62,1.39,1.16,2.21,1.61.29.16.59.3.89.42h0" style="fill: #000073;"></path>
    <path d="M142.03,147.1c.05-.15.09-.3.13-.45,0,0,0,0,0,0-.04.15-.09.3-.14.46" style="fill: #343491;"></path>
    <path d="M129.73,156.03c-1.11-.08-2.21-.34-3.26-.78-.3-.13-.59-.27-.89-.42-.82-.44-1.56-.99-2.21-1.61-1.32-1.27-2.28-2.86-2.82-4.61-.94-3.01-.66-6.51,1.03-9.64.49-.91,1.08-1.74,1.73-2.48-1.4,5.16.59,10.6,5.12,13.05,1.32.71,2.73,1.1,4.15,1.2,1.91.14,3.85-.25,5.62-1.1-.18.46-.4.91-.64,1.36-1.07,1.99-2.58,3.57-4.3,4.7,3.14-.82,6.02-3,7.77-6.23-1.65,3.06-4.33,5.18-7.27,6.09-.26.08-.53.16-.8.22-1.06.24-2.15.34-3.23.26M141.04,149.46c.21-.38.39-.77.56-1.16-.16.39-.35.78-.56,1.16M141.82,147.73c.13-.36.24-.72.34-1.08t0,0c-.04.15-.09.3-.13.45-.07.21-.14.42-.21.63" style="fill: #343491;"></path>
    <path d="M142.16,140.13h0c-.6-2.13-1.79-4.04-3.5-5.44,1.72,1.4,2.91,3.31,3.51,5.44M125.87,134.27c2.13-1.38,4.59-2.04,7.01-1.87,1.35.1,2.68.45,3.93,1.09-1.25-.64-2.59-.99-3.93-1.09-2.42-.17-4.88.49-7.01,1.87,0,0,0,0,0,0" style="fill: #e9e8f1;"></path>
    <path d="M142.47,141.59c-.07-.5-.18-.98-.31-1.46h0c.13.48.24.96.31,1.46" style="fill: #8c8cc0;"></path>
    <path d="M138.21,149.64c2.23-5.56.32-11.83-4.64-14.5-1.32-.71-2.72-1.11-4.15-1.21-1.18-.08-2.38.03-3.54.34,2.12-1.38,4.59-2.04,7.01-1.87,1.34.1,2.68.45,3.93,1.09.07.04.14.07.22.11.58.32,1.13.68,1.62,1.09,1.71,1.4,2.91,3.31,3.5,5.44.13.48.24.96.31,1.46.24,1.64.15,3.37-.31,5.06-1.14,1.29-2.49,2.29-3.95,2.99M141.59,148.3c.08-.19.15-.38.22-.57-.07.19-.15.38-.22.57" style="fill: #adadd3;"></path>
    <path d="M133.27,155.69c1.73-1.12,3.23-2.71,4.3-4.7.24-.45.45-.9.64-1.36,1.46-.7,2.82-1.71,3.95-2.99-.1.36-.21.72-.34,1.08-.07.19-.15.38-.22.57-.16.39-.35.78-.56,1.16h0c-1.75,3.23-4.63,5.41-7.77,6.23" style="fill: #a3a3cd;"></path>
    <path d="M132.75,134.16c-1.22-.09-2.47.08-3.7.51-2.5.87-4.6,2.69-5.92,5.13h0c-1.32,2.44-1.69,5.2-1.04,7.77.63,2.51,2.17,4.54,4.33,5.7,2.16,1.17,4.7,1.34,7.14.49,2.5-.87,4.6-2.69,5.92-5.13,1.32-2.44,1.69-5.2,1.04-7.77-.63-2.51-2.17-4.54-4.33-5.7-1.07-.58-2.24-.91-3.44-1h0ZM129.61,157.8c-1.69-.12-3.34-.6-4.86-1.42-3.04-1.64-5.2-4.46-6.08-7.94-.86-3.43-.38-7.09,1.36-10.31h0c1.74-3.22,4.54-5.63,7.87-6.79,3.39-1.18,6.93-.92,9.97.72,3.04,1.64,5.2,4.46,6.08,7.94.86,3.43.38,7.09-1.36,10.31-1.74,3.22-4.54,5.63-7.87,6.79-1.69.59-3.42.82-5.11.7h0Z" style="fill: #000073;"></path>
    <path d="M127.03,148.2c1.6.28,2.99-.01,4.13-.63,1.15-.62,2.04-1.56,2.65-2.67.59-1.11.89-2.38.77-3.68-.11-1.3-.62-2.62-1.73-3.81,1.62.27,3.05,1.68,3.6,3.38.58,1.7.37,3.67-.5,5.26-.86,1.6-2.38,2.85-4.13,3.3-1.72.47-3.68.05-4.8-1.16h0Z" style="fill: #000073;"></path>
    <path d="M136.7,161.22c-1.05-.08-2.09-.36-3.07-.89-1.49-.81-2.66-2.07-3.37-3.64l3.22-1.45c.39.87,1.02,1.55,1.83,1.99,2.22,1.19,5.1.14,6.44-2.35,1.18-2.19.8-4.81-.91-6.23l2.26-2.71c2.99,2.49,3.73,6.95,1.76,10.62-1.7,3.16-4.97,4.9-8.16,4.67h0Z" style="fill: #000073;"></path>
    <path d="M81.25,125.35c-4.28,7.92-1.76,17.58,5.62,21.56,7.38,3.98,16.83.79,21.11-7.13,4.28-7.92,1.76-17.57-5.62-21.56-7.38-3.98-16.83-.79-21.11,7.13" style="fill: #4a4a9e;"></path>
    <path d="M92.77,146.84c-1.77-.13-3.48-.62-5.07-1.47-4.87-2.63-7.33-8.11-6.67-13.65,1.12.43,2.27.68,3.44.76s2.43,0,3.62-.27c.84,4.29,3.41,8.09,7.39,10.24,1.84.99,3.8,1.54,5.78,1.68.2.01.4.02.6.03-1.18.85-2.47,1.52-3.86,1.99-1.74.59-3.52.82-5.25.69" style="fill: #343491;"></path>
    <path d="M104.56,141.67c.05-.08.09-.17.14-.25,4.27-7.9,1.77-17.52-5.56-21.53.04-.36.08-.71.1-1.07.78.24,1.54.55,2.28.95,3.13,1.69,5.38,4.6,6.31,8.2.95,3.64.45,7.54-1.41,10.97-.53.98-1.16,1.9-1.86,2.73" style="fill: #adadd3;"></path>
    <path d="M82.8,126.19c-3.81,7.05-1.6,15.65,4.91,19.17,3.13,1.69,6.8,1.97,10.32.78,3.56-1.2,6.55-3.76,8.4-7.2,1.86-3.44,2.36-7.33,1.41-10.97-.94-3.59-3.18-6.5-6.31-8.2-6.51-3.51-14.91-.64-18.72,6.42M92.52,150.36c-2.26-.16-4.46-.8-6.49-1.89-8.23-4.44-11.07-15.18-6.34-23.95,4.73-8.77,15.27-12.29,23.5-7.85,4.01,2.16,6.87,5.86,8.05,10.41,1.17,4.51.57,9.31-1.72,13.54-2.28,4.23-5.97,7.37-10.38,8.86-2.19.74-4.44,1.03-6.63.87" style="fill: #000073;"></path>
    <path d="M76.47,113.65c-3.16,5.86-1.37,12.96,4,15.86,5.37,2.9,12.3.5,15.46-5.36,3.16-5.86,1.37-12.96-4-15.86-5.37-2.9-12.29-.5-15.46,5.36" style="fill: #4a4a9e;"></path>
    <path d="M84.74,128.96c-1.18-.08-2.35-.41-3.43-.99-2.16-1.17-3.7-3.19-4.33-5.7-.6-2.39-.32-4.96.79-7.28.16,3.85,2.14,7.39,5.55,9.24,1.32.71,2.73,1.1,4.15,1.2,1.91.14,3.85-.25,5.62-1.1-.18.46-.4.91-.64,1.36-.09.17-.18.33-.28.49-2.09,1.96-4.8,2.97-7.44,2.78" style="fill: #343491;"></path>
    <path d="M93.1,124.33c2.23-5.56.32-11.83-4.64-14.5-.79-.43-1.61-.74-2.46-.94.55-.06,1.1-.08,1.65-.04,1.2.09,2.37.42,3.44,1,2.16,1.17,3.7,3.19,4.33,5.7.65,2.57.28,5.33-1.04,7.77-.09.16-.18.32-.27.47-.33.2-.67.38-1.01.54" style="fill: #adadd3;"></path>
    <path d="M92.19,126.17c.09-.16.19-.32.28-.49.24-.45.45-.9.64-1.36.34-.16.68-.34,1.01-.54-.54.9-1.19,1.7-1.92,2.39" style="fill: #a3a3cd;"></path>
    <path d="M87.65,108.85c-1.22-.09-2.47.08-3.7.51-2.5.87-4.6,2.69-5.92,5.13h0c-1.32,2.44-1.69,5.2-1.04,7.77.63,2.51,2.17,4.54,4.33,5.7,4.51,2.43,10.37.35,13.07-4.64,1.32-2.44,1.69-5.2,1.04-7.77-.63-2.51-2.17-4.54-4.33-5.7-1.07-.58-2.24-.91-3.44-1M84.48,132.47c-1.66-.12-3.31-.58-4.85-1.41-3.04-1.64-5.2-4.46-6.08-7.94-.86-3.43-.38-7.09,1.36-10.31h0c1.74-3.22,4.54-5.63,7.88-6.79,3.39-1.18,6.93-.92,9.97.72,3.04,1.64,5.2,4.46,6.08,7.94.86,3.42.38,7.09-1.36,10.31-2.72,5.05-7.94,7.84-13,7.48" style="fill: #000073;"></path>
    <path d="M81.92,122.89c1.6.28,2.99-.01,4.13-.63,1.15-.62,2.04-1.56,2.65-2.67.59-1.11.88-2.38.77-3.68-.11-1.3-.62-2.62-1.73-3.8,1.62.27,3.05,1.68,3.6,3.38.58,1.7.37,3.67-.5,5.26-.86,1.6-2.38,2.85-4.13,3.3-1.72.47-3.68.05-4.8-1.16h0Z" style="fill: #000073;"></path>
    <path d="M91.6,135.9c-1.05-.08-2.09-.36-3.07-.89-1.49-.81-2.66-2.07-3.37-3.64l3.22-1.45c.39.87,1.02,1.55,1.83,1.99,2.21,1.19,5.1.13,6.44-2.35,1.18-2.19.8-4.81-.91-6.23l2.26-2.71c2.99,2.49,3.73,6.95,1.76,10.62-1.7,3.16-4.97,4.9-8.16,4.67h0Z" style="fill: #000073;"></path>
    <path d="M125.97,59.09l-4.5-1.87,2.34-5.64c.85-2.06,0-4.4-1.97-5.43l-17.48-9.7c-1.15-.64-2.59-.49-3.58.37l-4.29,3.69-3.18-3.69,4.28-3.69c2.53-2.18,6.2-2.56,9.12-.94l17.43,9.67c4.17,2.19,5.98,7.18,4.16,11.59l-2.34,5.65h0Z" style="fill: #000073;"></path>
    <path d="M119.15,51.82l-2.33-2.27c1.27-1.3,1.89-2.6,1.86-3.85-.05-1.79-1.41-3.07-1.43-3.08l2.17-2.42c.1.09,2.39,2.17,2.5,5.35.08,2.19-.86,4.3-2.78,6.27h0Z" style="fill: #000073;"></path>
    <path d="M252.61,125.64l-4.8-.87,1.08-5.91c.29-1.59-.4-3.18-1.77-4.05l-19.2-12.25c-1.29-.82-2.95-.83-4.24-.01l-6.42,4.03-2.59-4.13,6.42-4.03c2.88-1.81,6.59-1.8,9.45.03l19.2,12.25c3.04,1.94,4.59,5.49,3.94,9.03l-1.08,5.91h0Z" style="fill: #000073;"></path>
    <path d="M245.47,120.77l-3.09-1.02,1.39-4.22c.61-1.86-.11-3.91-1.77-4.96l1.75-2.74c2.91,1.86,4.19,5.44,3.11,8.72l-1.39,4.22h0Z" style="fill: #000073;"></path>
    <path d="M66.69,112.79l-11.14-5.62-3.51-1.77-.12-.51,4.38-6.47.91-1.35.2,1.01c.1.53.45.99.94,1.24l13.02,6.57-4.67,6.9M81.5,106.54l-4.52-2.28,4.67-6.9,6.76,3.4-3.15,4.65c-.83.12-1.66.32-2.48.6-.44.15-.87.33-1.28.52M56.6,93.99l-4.26-2.15-3.86-1.94,8.64-12.77,4.3,2.16-5.57,8.23c-.27.41-.37.91-.26,1.39l.11.46.9,4.61" style="fill: #908fbf;"></path>
    <path d="M83.75,107.67l-2.24-1.13c.42-.19.85-.37,1.28-.52.82-.28,1.65-.48,2.48-.6l-1.52,2.25" style="fill: #000073;"></path>
    <polyline points="57.73 75.46 64 78.62 61.68 82.04 57.31 88.51 57.43 89.02 60.94 90.8 72.08 96.41 79 86.18 89.13 91.28 97.07 79.55 99.38 76.13 93.11 72.97 89.25 71.03 93.86 64.21 96.17 60.8 81.17 53.23 74.25 63.46 64.12 58.36 53.87 73.52 57.73 75.46" style="fill: #3d3d93;"></polyline>
    <path d="M95.79,78.29l-5.5-2.77-3.85-1.95,1.21-1.79c.17.35.45.65.8.82l8.34,4.2-1.01,1.49M92.58,62.96l-11.82-5.97,1-1.48,11.82,5.96-1.01,1.49" style="fill: #a8a8ce;"></path>
    <polyline points="71.44 66.01 63.71 62.11 64.71 60.63 72.45 64.53 71.44 66.01" style="fill: #a8a8ce;"></polyline>
    <polygon points="89.25 71.03 95.08 73.96 98.77 68.76 96.17 60.8 93.86 64.21 89.25 71.03 89.25 71.03" style="fill: #3d3d93;"></polygon>
    <polyline points="57.43 89.02 59.14 97.75 74.14 105.32 81.06 95.09 91.19 100.19 101.44 85.03 99.38 76.13 97.07 79.55 89.13 91.28 79 86.18 72.08 96.41 60.94 90.8 57.43 89.02" style="fill: #3d3d93;"></polyline>
    <polygon points="53.87 73.52 55.11 80.89 60.51 83.78 64 78.62 57.73 75.46 53.87 73.52 53.87 73.52" style="fill: #3d3d93;"></polygon>
    <path d="M59.67,88.18l11.82,5.96,6.05-8.94c.5-.73,1.46-.99,2.25-.59l8.75,4.4,8.26-12.21-8.34-4.2c-.45-.23-.79-.64-.91-1.13-.13-.49-.04-1.01.25-1.43l5.79-8.57-11.82-5.96-6.05,8.95c-.5.73-1.46.99-2.26.59l-8.75-4.4-8.26,12.21,2.06,1.04h0s6.27,3.16,6.27,3.16c.45.23.79.64.91,1.13.13.49.04,1.01-.25,1.43l-5.8,8.57M71.95,98.17c-.23-.02-.45-.08-.67-.18l-14.66-7.4c-.47-.24-.8-.67-.92-1.17l-.12-.51c-.11-.48-.02-.98.26-1.39l5.57-8.23-8.34-4.2c-.45-.23-.79-.64-.91-1.13-.13-.49-.04-1.01.25-1.43l10.25-15.16c.5-.73,1.46-.99,2.26-.59l8.75,4.4,6.05-8.95c.5-.73,1.46-.99,2.26-.59l15,7.57c.45.23.78.64.91,1.13.13.49.04,1.01-.25,1.43l-5.79,8.57,8.34,4.2c.45.23.79.64.91,1.13.13.49.04,1.01-.25,1.43l-10.25,15.16c-.5.73-1.46.99-2.26.59l-8.75-4.41-6.05,8.95c-.36.54-.98.82-1.59.77" style="fill: #000073;"></path>
    <path d="M91.84,70.35l2.68,1.35,2.29-3.24-1.2-3.69-3.77,5.58h0ZM94.96,75.72c-.23-.02-.45-.08-.66-.18l-5.83-2.93c-.45-.23-.79-.64-.91-1.13-.13-.49-.04-1.01.25-1.43l6.92-10.23c.38-.56,1.04-.86,1.71-.76.67.09,1.22.56,1.43,1.2l2.6,7.96c.17.53.09,1.11-.24,1.57l-3.68,5.2c-.37.52-.97.78-1.57.74h0Z" style="fill: #000073;"></path>
    <path d="M60.7,96.57l12.84,6.48,6.05-8.94c.5-.73,1.46-.99,2.26-.59l8.75,4.4,8.95-13.23-.97-4.21-.05.07-7.93,11.73c-.5.73-1.46.99-2.26.59l-8.75-4.41-6.05,8.95c-.5.74-1.46.99-2.26.59l-11.43-5.77.85,4.34M74.01,107.08c-.23-.02-.45-.08-.67-.18l-15-7.57c-.49-.25-.83-.7-.94-1.24l-1.71-8.73c-.13-.66.13-1.34.67-1.75.54-.41,1.26-.47,1.86-.17l13.27,6.69,6.05-8.94c.5-.73,1.46-.99,2.25-.59l8.75,4.4,9.38-13.87c.39-.58,1.1-.87,1.78-.75.69.13,1.24.65,1.4,1.34l2.06,8.9c.11.48.02.98-.26,1.39l-10.25,15.16c-.5.73-1.46.99-2.26.59l-8.75-4.4-6.05,8.95c-.36.54-.98.81-1.59.77" style="fill: #000073;"></path>
    <path d="M56.71,79.75l3.23,1.73,1.48-2.18-5.23-2.63.52,3.09h0ZM60.38,85.54c-.24-.02-.48-.08-.71-.21l-5.4-2.88c-.48-.26-.82-.72-.91-1.26l-1.24-7.38c-.11-.66.16-1.32.69-1.71.54-.4,1.25-.45,1.84-.16l10.13,5.1c.45.23.79.64.91,1.13.13.49.04,1.01-.25,1.43l-3.49,5.16c-.36.54-.98.82-1.59.77h0Z" style="fill: #000073;"></path>
    <path d="M90.59,97.91l-8.74-4.4c-.21-.11-.44-.17-.67-.18-.24-.02-.48.02-.71.09l-.98-4.82.1-.15,8.75,4.41c.22.11.44.17.67.18.1,0,.2,0,.29,0l1.29,4.87" style="fill: #2b2b89;"></path>
    <path d="M91.39,100.45l-10.37-4.37-.54-2.65c.23-.08.47-.11.71-.09.23.02.45.08.67.18l8.74,4.4.6,2.28.2.26M89.01,93.04c-.23-.02-.45-.08-.67-.18l-8.75-4.41-.1.15-.49-2.42,9.92,5.44.37,1.42c-.1,0-.19.01-.29,0" style="fill: #000073;"></path>
    <path d="M73.12,102.83l-12.42-6.26-.85-4.34,11.43,5.77c.06.03.12.05.17.08.05.02.11.04.17.05,0,0,0,0,0,0,0,0,0,0,0,0,.1.03.21.04.32.05.04,0,.08,0,.11,0,.1,0,.2,0,.29-.02l.76,4.67" style="fill: #2b2b89;"></path>
    <path d="M72.07,98.18c.1,0,.2,0,.29-.02h0c-.1.02-.2.02-.29.02M71.64,98.12s0,0,0,0c0,0,0,0,0,0M71.62,98.12c-.06-.01-.11-.03-.17-.05.05.02.11.04.17.05" style="fill: #000073;"></path>
    <path d="M73.49,105.1l-15.08-7.88-.98-8.21,14.65,7.39.28,1.74c-.1.02-.2.02-.29.02-.04,0-.08,0-.11,0-.11,0-.21-.02-.32-.05,0,0,0,0,0,0,0,0,0,0,0,0-.06-.01-.11-.03-.17-.05-.06-.02-.12-.05-.17-.08l-11.43-5.77.85,4.34,12.42,6.26.37,2.28" style="fill: #000073;"></path>
    <path d="M18.25,130.02c-.62-.04-1.24-.25-1.78-.63l-8.26-5.76c-1.91-1.33-2.31-4-.86-5.82,4.65-5.8,9.51-10.95,14.77-14.82,1.12-.83,2.47-1.2,3.8-1.1.87.06,1.74.33,2.52.8l5.52,3.33c3.33,2.01,3.86,6.63,1.07,9.34l-14.05,13.67c-.75.73-1.75,1.07-2.73,1" style="fill: #d6d4e5;"></path>
    <path d="M195.55,235.3c-.73-.05-1.46-.31-2.1-.78l-8.12-5.96c-1.37-1.01-1.84-2.85-1.11-4.39l8.41-17.71c1.1-2.33,3.47-3.55,5.8-3.38,1.19.09,2.38.53,3.39,1.38l4.93,4.15c1.77,1.48,2.45,3.89,1.75,6.09-1.97,6.23-5.27,12.49-9.26,18.76-.82,1.29-2.26,1.94-3.68,1.84" style="fill: #d6d4e5;"></path>
  </g>
  <path d="M174.09,85.69l-11.79-5.47c1.65-3.56,41.23-87.5,110.83-115.14l4.8,12.08c-64.74,25.71-103.46,107.71-103.84,108.53Z" style="fill: #000073;"></path>
</svg>