<?xml version="1.0"?>
<svg xmlns="http://www.w3.org/2000/svg" viewBox="0 0 275.47 277.29">
  <g style="isolation: isolate;">
    <g id="Layer_1" data-name="Layer 1">
      <g>
        <g>
          <g>
            <g>
              <path d="M24.1,216.33l-11.3-21.52L104.11,16.83s2.22-10.46,17.34-7.26L24.1,216.33Z" style="fill: #faa331;"></path>
              <path d="M24.1,216.74c-.2,0-.37-.1-.45-.25l-11.3-21.52c-.05-.1-.05-.22,0-.32L103.63,16.71c.12-.5,1.14-4.3,5.34-6.55,3.24-1.73,7.48-2.07,12.6-.98.14.03.25.11.32.21.06.1.07.23.02.34L24.56,216.48c-.07.15-.25.26-.45.26h0ZM13.34,194.81l10.73,20.45L120.78,9.86c-4.59-.89-8.38-.56-11.27.98-4.04,2.16-4.92,6.02-4.92,6.06,0,.03-.02.06-.03.09L13.34,194.81Z" style="fill: #bb5f26;"></path>
            </g>
            <path d="M14.27,197.6c5.16-10.37,10.28-20.76,15.44-31.13,7.67-15.39,15.46-30.72,23.71-45.91,8.21-15.11,16.49-30.19,24.11-45.51,3.8-7.64,7.37-15.35,11.4-22.91,3.71-6.97,7.86-13.83,11.17-20.94,2.29-4.92,4.31-9.95,7.36-14.6,1.84-2.79,4.13-5.59,7.17-7.57-9.01.7-10.53,7.8-10.53,7.8L12.8,194.81l1.46,2.79Z" style="fill: #d2322e; mix-blend-mode: screen;"></path>
            <path d="M108.15,11.18c1.58.02,3.3.32,4.11,1.54.93,1.39.4,3.26-.07,4.69-.99,3.03-2.54,5.98-3.99,8.87-1.86,3.69-3.89,7.33-5.97,10.94-4.19,7.27-8.43,14.51-12.27,21.91-4.07,7.84-8.06,15.7-12.01,23.58-7.81,15.6-15.45,31.26-23.18,46.89-3.9,7.88-7.83,15.76-11.81,23.61-1.85,3.65-3.66,7.29-5.34,10.99-1.59,3.51-3.22,7.03-5.26,10.38-2,3.31-4.32,6.35-7.4,9.05-3.01,2.63-6.4,4.93-9.39,7.58-.6.53-1.19,1.08-1.77,1.63l-1,1.95,11.3,21.52L121.45,9.58c-6.59-1.39-10.73-.2-13.3,1.6Z" style="fill: #ffd97e; mix-blend-mode: multiply;"></path>
            <g>
              <path d="M35,189.76l-5.01-2.74s-16.04-1.24-18.86,12.28c-2.82,13.52,14.46,22.16,24.94,23.75l-1.08-33.28Z" style="fill: #faa331;"></path>
              <path d="M36.08,223.45s-.06,0-.09,0c-10.27-1.55-28.25-10.25-25.34-24.22,2.86-13.73,19.23-12.63,19.39-12.61.08,0,.16.03.23.07l5,2.74c.13.07.22.2.22.33l1.08,33.28c0,.12-.06.24-.17.32-.09.06-.2.1-.32.1ZM28.81,187.39c-3.67,0-14.88.92-17.18,11.97-2.74,13.14,13.92,21.44,23.94,23.18l-1.05-32.56-4.68-2.57c-.18-.01-.54-.03-1.02-.03Z" style="fill: #bb5f26;"></path>
            </g>
            <path d="M16.43,192.59c2.81-1.56,6.2-2.34,9.56-1.8.25.04.28.29.1.41-.37.25-.74.49-1.11.74-2.63,1.74-5.46,3.48-7.25,5.9-1.91,2.59-2.32,5.77-1.56,8.71.38,1.45,1.04,2.84,1.95,4.12.87,1.23,1.94,2.45,3.2,3.42.97.75,2.21,1.41,2.76,2.45.44.82.05,1.67-.83,2.1,4.31,2.34,9.02,3.85,12.83,4.43l-1.08-33.28-5.01-2.74s-12.95-1-17.62,8.62c1.18-1.17,2.53-2.21,4.05-3.05Z" style="fill: #ffd97e; mix-blend-mode: multiply;"></path>
            <g>
              <g>
                <polygon points="245.4 254.71 36.08 223.04 33.4 217.83 127.53 45.6 327.23 68.47 327.3 74.35 245.4 254.71" style="fill: #faa331;"></polygon>
                <path d="M245.4,255.12s-.06,0-.09,0l-209.31-31.67c-.16-.02-.3-.12-.37-.24l-2.68-5.21c-.05-.11-.05-.22,0-.33L127.08,45.43c.09-.17.3-.27.52-.24l199.71,22.87c.24.03.42.2.43.4l.07,5.88c0,.05-.01.1-.03.15l-81.91,180.36c-.07.16-.26.26-.46.26ZM36.43,222.68l208.65,31.57,81.73-179.96-.06-5.45-198.92-22.78L33.94,217.84l2.49,4.84Z" style="fill: #bb5f26;"></path>
              </g>
              <polygon points="245.4 254.71 244.38 252.01 33.4 217.83 127.53 45.6 327.23 68.47 327.3 74.35 245.4 254.71" style="fill: #ffd97e; mix-blend-mode: multiply;"></polygon>
              <g>
                <polygon points="244.38 252.01 33.4 217.83 124.85 40.4 327.23 68.47 244.38 252.01" style="fill: #c75c25;"></polygon>
                <path d="M244.38,252.42s-.06,0-.09,0l-210.98-34.18c-.15-.02-.27-.1-.34-.21-.07-.11-.08-.24-.02-.35L124.4,40.24c.09-.17.31-.27.54-.24l202.39,28.08c.15.02.27.09.35.2.07.11.09.23.03.35l-82.85,183.54c-.07.16-.26.27-.46.27ZM34.09,217.53l209.97,34.01,82.5-182.75-201.41-27.94L34.09,217.53Z" style="fill: #bb5f26;"></path>
              </g>
              <g>
                <path d="M226.17,238.54l15.7,9.37,78.28-178.06s-1.32-16.51,2.63-24.58L124.13,14.78l102.04,223.75Z" style="fill: #cacac2;"></path>
                <path d="M241.87,248.32c-.1,0-.2-.03-.29-.08l-15.7-9.37c-.08-.05-.14-.11-.17-.19L123.67,14.93c-.06-.14-.03-.29.08-.41.11-.11.29-.17.47-.14l198.65,30.49c.15.02.27.1.34.21.07.11.08.24.02.35-3.85,7.89-2.6,24.23-2.59,24.4,0,.06,0,.11-.03.17l-78.28,178.06c-.05.12-.17.21-.32.25-.05.01-.1.02-.15.02ZM226.57,238.28l15.05,8.98,78.02-177.47c-.11-1.41-1.13-16.23,2.45-24.21L124.9,15.32l101.68,222.96Z" style="fill: #bab8a9;"></path>
              </g>
              <path d="M226.17,238.54l11.69.47,82.09-176.18s-1.11-9.48,2.83-17.55L124.13,14.78l102.04,223.75Z" style="fill: #c8c8c1; mix-blend-mode: multiply; opacity: .61;"></path>
              <g>
                <path d="M241.51,223.15s-8.96,14.54.35,24.76l-208.47-30.08s-6.65-2.57-10.11-5.33c-6.32-5.04-9.54-17.54,9.39-20.28l208.83,30.93Z" style="fill: #c46c25;"></path>
                <path d="M241.87,248.32s-.06,0-.08,0l-208.47-30.08s-.08-.02-.12-.03c-.27-.11-6.76-2.63-10.24-5.41-3.55-2.83-6.25-8.11-4.54-12.73,1.1-2.99,4.46-6.84,14.19-8.25.06,0,.11,0,.17,0l208.83,30.93c.15.02.29.1.36.22.07.12.07.25,0,.37-.09.14-8.71,14.44.31,24.33.12.13.13.32.03.46-.09.12-.25.2-.42.2ZM33.55,217.44l207.22,29.9c-7.35-9.16-1.39-21.3.02-23.88l-208.11-30.82c-7.26,1.07-11.87,3.72-13.33,7.67-1.59,4.31.95,9.25,4.28,11.9,3.19,2.54,9.26,4.97,9.92,5.23Z" style="fill: #bb5f26;"></path>
              </g>
              <g>
                <path d="M241.59,223.16s-8.89,14.56.28,24.75l-204.76-31.55s-7.29-1.91-10.7-4.66c-6.23-5.02-9.67-16.26,9.04-19.04l206.15,30.49Z" style="fill: #e3e2d8;"></path>
                <path d="M241.87,248.32s-.06,0-.09,0l-204.76-31.55s-.04,0-.06-.01c-.3-.08-7.45-1.97-10.9-4.75-3.47-2.8-6.25-7.58-4.64-11.94,1.02-2.76,4.27-6.36,13.93-7.8.06,0,.12,0,.17,0l206.15,30.49c.15.02.29.1.35.22.07.12.07.25,0,.37-.09.14-8.65,14.45.23,24.32.12.14.13.32.02.46-.09.12-.25.19-.42.19ZM37.23,215.97l203.54,31.36c-7.22-9.14-1.3-21.27.1-23.85l-205.43-30.39c-7.21,1.08-11.73,3.58-13.08,7.22-1.48,4.01,1.23,8.57,4.38,11.11,3.18,2.57,9.99,4.42,10.48,4.55Z" style="fill: #c9c7b6;"></path>
              </g>
              <path d="M220.34,244.39c-9.69-1.62-19.43-3.07-29.08-4.82-19.55-3.55-39.1-7.1-58.67-10.6-12.12-2.17-24.21-4.55-36.43-6.31-8.34-1.2-16.68-2.46-24.95-3.97-8.92-1.63-18.03-3.4-26.45-6.4-3.29-1.17-11.45-4.08-9.02-8.2.9-1.53,2.83-2.36,4.7-2.85,2.63-.69,5.44-.87,8.18-.93,6.68-.15,13.45.34,20.08.92,9.68.85,19.28,2.2,28.92,3.29,9.88,1.11,19.76,2.14,29.65,3.22,9.92,1.08,19.84,2.2,29.72,3.5,9.78,1.29,19.52,2.79,29.27,4.26,9.75,1.47,19.53,2.94,29.21,4.73,8.41,1.56,16.71,3.71,25.29,4.52.49-1,.84-1.58.84-1.58l-206.15-30.49c-18.7,2.77-15.27,14.01-9.04,19.04,3.41,2.75,10.7,4.66,10.7,4.66l194.58,29.98c-3.78-.66-7.56-1.32-11.35-1.95Z" style="fill: #c8c8c1; mix-blend-mode: multiply; opacity: .61;"></path>
              <g style="mix-blend-mode: multiply;">
                <path d="M221.62,220.21c6.1,1.15,12.22,2.19,18.43,2.73l-18.43-2.73Z" style="fill: #c8c8c1;"></path>
                <path d="M240.06,223.34s-.03,0-.05,0c-6.5-.56-12.99-1.7-18.49-2.74-.26-.05-.43-.26-.37-.48.05-.22.31-.36.57-.32l18.43,2.73c.26.04.44.24.4.46-.03.2-.25.35-.49.35Z" style="fill: #a7a699;"></path>
              </g>
              <path d="M182.39,237.55c-10.89-2.4-21.85-4.62-32.87-6.58-11-1.96-22.06-3.68-33.13-5.36-5.37-.82-10.74-1.6-16.1-2.43-5.17-.81-10.32-1.8-15.15-3.58-.23-.09-.17-.43.1-.43,4.55.12,9.1.41,13.63.81,14.85,1.3,29.52,3.72,44.36,5.09-4.58-.83-9.17-1.61-13.77-2.36-10.65-1.73-21.33-3.42-32.05-4.84-10.51-1.39-31.58-5.68-31.23-5.63,4.04.46,35.62,1.07,47.21,2.34-3.44-.68-50.69-7.85-70.69-11.56-.29-.05-.28-.44.03-.44,7.36-.05,14.72.15,22.07.54,11.5.6,22.95,1.65,34.37,2.91-5.23-.67-10.46-1.33-15.7-1.94-12.41-1.44-25.09-2.1-37.08-5.34-.33-.09-.25-.47.1-.44,14.65,1.28,29.35,1.77,43.89,3.79,13.1,1.82,26.2,3.62,39.37,5.08,4.89.54,9.78,1.07,14.66,1.6l-108.99-16.12c-18.7,2.77-15.27,14.01-9.04,19.04,3.41,2.75,10.7,4.66,10.7,4.66l162.46,25.03c-5.73-1.28-11.45-2.58-17.18-3.84Z" style="fill: #c8c8c1; mix-blend-mode: multiply; opacity: .61;"></path>
              <g>
                <g>
                  <polygon points="241.15 224.71 32.68 192.22 30 187.01 124.13 14.78 323.83 37.65 324.7 42.64 241.15 224.71" style="fill: #faa331;"></polygon>
                  <path d="M241.15,225.12s-.06,0-.09,0l-208.47-32.49c-.16-.03-.3-.12-.36-.24l-2.68-5.21c-.05-.11-.05-.22,0-.33L123.68,14.62c.09-.16.3-.26.52-.24l199.71,22.87c.22.02.39.17.42.35l.87,4.99c.01.07,0,.14-.03.2l-83.56,182.07c-.07.16-.26.26-.46.26ZM33.03,191.86l207.8,32.38,83.36-181.65-.8-4.58L124.43,15.23,30.54,187.02l2.49,4.84Z" style="fill: #bb5f26;"></path>
                </g>
                <polygon points="241.15 224.71 32.68 192.22 240.98 221.19 124.13 14.78 323.83 37.65 324.7 42.64 241.15 224.71" style="fill: #c57d57; mix-blend-mode: multiply;"></polygon>
                <g>
                  <polygon points="240.98 221.19 30 187.01 121.45 9.58 323.83 37.65 240.98 221.19" style="fill: #faa331;"></polygon>
                  <path d="M240.98,221.6s-.06,0-.1,0L29.91,187.42c-.15-.02-.27-.1-.34-.21-.07-.11-.08-.24-.02-.35L120.99,9.42c.09-.17.31-.27.54-.24l202.39,28.08c.15.02.27.09.35.2.07.11.09.23.03.35l-82.85,183.54c-.07.16-.26.27-.46.27ZM30.69,186.71l209.97,34.01,82.5-182.75L121.75,10.03,30.69,186.71Z" style="fill: #bb5f26;"></path>
                </g>
                <path d="M164.77,15.59c3.99.69,7.96,1.42,11.95,2.14,9.68,1.76,19.36,3.5,28.96,5.51,4.49.94,8.92,2.11,13.43,2.97,3.3.63,6.62,1.24,9.9,1.92,12.4,2.59,26.72,6.73,31.54,17.61,4.34,9.81.3,21.07-3.96,30.39-4.64,10.15-10.95,19.69-16.09,29.66-7.55,14.66-14.8,29.43-23.01,43.86-4.07,7.15-8.37,14.22-13.07,21.11-3.91,5.74-7.93,11.32-13.84,15.82-11.52,8.78-27.15,12.05-42.38,13.05-8.76.57-17.55.48-26.32.53-3.21.02-6.42.09-9.63.18l128.73,20.85,82.85-183.54L164.77,15.59Z" style="fill: #ecc975; mix-blend-mode: multiply;"></path>
                <path d="M265.49,29.56c1.08.28,2.15.56,3.23.85,4.16,1.1,8.3,2.25,12.42,3.44,3.72,1.07,7.52,2.04,11.09,3.42,4.47,1.72,8.75,4.13,11.43,7.64,2.46,3.23,3.22,7.06,2.97,10.83-.35,5.28-2.43,10.36-4.37,15.36-2.73,7.01-5.79,13.94-9.06,20.79-6.53,13.71-45.76,98.28-49.84,104.73-12.58,19.83-30.92,17.15-40.98,18.25-.1.01-.19.02-.29.03l38.9,6.3,82.85-183.54-58.34-8.09Z" style="fill: #ecc975; mix-blend-mode: multiply;"></path>
              </g>
            </g>
            <path d="M31.5,221.79c-4.68-2.05-9.1-4.65-12.49-8.05-3.08-3.09-5.17-6.88-5.24-10.93-.07-4,1.61-8.08,4.65-11.18,2-2.05,4.61-3.59,7.53-4.46-4.95.59-12.9,2.98-14.81,12.12-2.56,12.26,11.41,20.51,21.85,23.12-.5-.2-1-.41-1.49-.62Z" style="fill: #d2322e; mix-blend-mode: screen;"></path>
          </g>
          <path d="M230.09,235.01s-113.05-18.54-138.46-19.63c0,0,103.42,16.83,138.46,19.63Z" style="fill: #c8c8c1;"></path>
          <path d="M225.28,239.74s-76.44-13.68-93.82-14.05c0,0,69.94,12.4,93.82,14.05Z" style="fill: #c8c8c1;"></path>
          <path d="M231.41,228.39s-127.64-20.88-156.18-22.77c0,0,116.77,18.98,156.18,22.77Z" style="fill: #c8c8c1;"></path>
          <path d="M136.6,13.79s-10.35-1.24-14.49,4.7c-4.14,5.95-77.4,151.41-77.4,151.41,0,0-7.78,13.35.45,14.68,11.2,1.82,76.48,12.39,76.48,12.39l-58.28-15.43s-10.27.04-4.64-16.06c5.63-16.1,62.25-124.16,82.17-130.96,19.92-6.8,67.21-5.37,97.61-2.19,30.4,3.18,72.52,7.91,72.52,7.91L136.6,13.79Z" style="fill: #ffd9a2; mix-blend-mode: screen; opacity: .41;"></path>
        </g>
        <g>
          <g>
            <g>
              <path d="M56.34,226.86l-14.63-17.6L85.82,36.94s-.22-9.67,13.97-9l-43.45,198.91Z" style="fill: #0067ab;"></path>
              <path d="M56.34,227.27c-.16,0-.31-.06-.41-.18l-14.63-17.6c-.08-.09-.1-.21-.08-.32L85.33,36.9c0-.48.12-4.03,3.41-6.65,2.54-2.03,6.27-2.94,11.09-2.71.14,0,.27.06.36.15.09.09.12.21.1.33l-43.45,198.91c-.04.16-.19.29-.38.33-.03,0-.07,0-.1,0ZM42.24,209.17l13.83,16.64L99.21,28.33c-4.25-.12-7.54.72-9.78,2.5-3.15,2.5-3.11,6.07-3.11,6.1,0,.03,0,.06-.01.09l-44.07,172.14Z" style="fill: #263b76; mix-blend-mode: multiply;"></path>
            </g>
            <path d="M43.61,211.54c2.42-10.02,4.81-20.04,7.24-30.06,3.61-14.87,7.34-29.7,11.52-44.47,4.15-14.69,8.38-29.38,11.96-44.18,1.79-7.38,3.35-14.79,5.36-22.13,1.85-6.77,4.11-13.5,5.57-20.34,1.01-4.73,1.75-9.52,3.5-14.11,1.05-2.76,2.52-5.59,4.81-7.81-7.91,1.93-7.76,8.5-7.76,8.5l-44.11,172.31,1.9,2.28Z" style="fill: #0067ab; mix-blend-mode: screen;"></path>
            <path d="M88.24,31.3c1.41-.21,3.01-.19,4,.78,1.13,1.11,1.04,2.86.93,4.21-.25,2.85-1.01,5.71-1.7,8.51-.88,3.57-1.93,7.11-3.03,10.64-2.21,7.11-4.48,14.19-6.35,21.37-1.99,7.6-3.9,15.2-5.76,22.82-3.7,15.08-7.22,30.18-10.84,45.27-1.83,7.61-3.67,15.22-5.58,22.82-.88,3.53-1.73,7.05-2.46,10.6-.69,3.37-1.4,6.75-2.51,10.04-1.09,3.25-2.53,6.31-4.71,9.16-2.13,2.79-4.68,5.33-6.8,8.13-.43.57-.84,1.14-1.24,1.71l-.48,1.89,14.63,17.6L99.79,27.95c-6.18-.29-9.63,1.38-11.55,3.35Z" style="fill: #0067ab; mix-blend-mode: multiply;"></path>
            <g>
              <path d="M60.49,201.53l-5.05-1.73s-14.6,1.21-14.27,13.71c.33,12.49,17.6,17.72,27.3,17.62l-7.98-29.6Z" style="fill: #0067ab;"></path>
              <path d="M68.21,231.54c-9.59,0-27.2-5.21-27.53-18.02-.33-12.72,14.57-14.11,14.72-14.12.08,0,.16,0,.24.03l5.05,1.73c.15.05.26.16.29.29l7.98,29.6c.03.12,0,.25-.09.34-.09.1-.23.15-.38.16-.09,0-.18,0-.27,0ZM55.37,200.22c-1.47.15-14.01,1.77-13.71,13.28.32,12.09,16.87,17.09,26.19,17.22l-7.79-28.89-4.7-1.61Z" style="fill: #263b76; mix-blend-mode: multiply;"></path>
            </g>
            <path d="M44.48,206.75c2.19-1.8,5.05-2.99,8.16-3,.23,0,.31.22.17.35-.28.27-.56.55-.84.82-1.99,1.93-4.15,3.91-5.24,6.32-1.16,2.59-.86,5.49.44,8.01.64,1.24,1.53,2.39,2.61,3.4,1.04.97,2.25,1.91,3.58,2.59,1.02.53,2.27.94,2.99,1.79.56.67.4,1.49-.3,1.99,4.35,1.46,8.88,2.14,12.4,2.1l-7.98-29.6-5.05-1.73s-11.79.98-13.94,10.25c.81-1.21,1.8-2.34,2.98-3.31Z" style="fill: #0067ab; mix-blend-mode: multiply;"></path>
            <g>
              <g>
                <polygon points="262.25 229.12 68.47 231.12 64.97 226.86 112.82 59.27 296.16 50.8 297.46 56.04 262.25 229.12" style="fill: #0067ab;"></polygon>
                <path d="M68.47,231.53c-.16,0-.32-.07-.41-.18l-3.49-4.27c-.08-.09-.1-.21-.07-.32L112.34,59.18c.05-.18.23-.3.45-.31l183.34-8.48c.24-.03.46.13.51.33l1.3,5.24s.01.1,0,.15l-35.21,173.08c-.04.2-.24.34-.48.34l-193.78,2h0ZM65.5,226.78l3.22,3.94,193.1-2,35.13-172.67-1.2-4.82-182.54,8.44-47.71,167.11ZM262.25,229.12h0,0Z" style="fill: #263b76; mix-blend-mode: multiply;"></path>
              </g>
              <polygon points="262.25 229.12 260.77 226.86 64.97 226.86 112.82 59.27 296.16 50.8 297.46 56.04 262.25 229.12" style="fill: #0067ab; mix-blend-mode: multiply;"></polygon>
              <g>
                <polygon points="260.77 226.86 64.97 226.86 109.33 55 296.16 50.8 260.77 226.86" style="fill: #064782;"></polygon>
                <path d="M260.77,227.27H64.97c-.15,0-.29-.06-.38-.15-.09-.1-.13-.22-.1-.34L108.84,54.92c.05-.18.24-.32.47-.32l186.83-4.21c.16,0,.29.05.39.14.1.09.14.22.11.34l-35.38,176.06c-.04.2-.25.34-.49.34ZM65.58,226.45h194.77l35.22-175.23-185.84,4.19-44.14,171.04Z" style="fill: #263b76; mix-blend-mode: multiply;"></path>
              </g>
              <g>
                <path d="M241.65,217.45l16.01,6.1,32.45-170.5s-4.65-14.56-2.83-22.35l-184,1.51,138.36,185.24Z" style="fill: #cacac2;"></path>
                <path d="M257.66,223.96c-.07,0-.14-.01-.21-.04l-16.01-6.1c-.09-.03-.16-.09-.21-.16L102.87,32.43c-.09-.13-.1-.28-.01-.41s.25-.21.43-.21l184-1.51h0c.15,0,.29.05.38.15.09.09.13.22.11.34-1.78,7.6,2.78,22.02,2.83,22.17.02.05.02.11.01.17l-32.45,170.5c-.02.13-.12.24-.25.3-.07.03-.15.05-.23.05ZM241.99,217.13l15.28,5.83,32.34-169.88c-.41-1.29-4.41-14.31-2.92-21.96l-182.53,1.5,137.82,184.52Z" style="fill: #bab8a9;"></path>
              </g>
              <path d="M241.65,217.45l10.55-1.27,36.25-169.37s-2.99-8.32-1.17-16.1l-184,1.51,138.36,185.24Z" style="fill: #c8c8c1; mix-blend-mode: multiply; opacity: .61;"></path>
              <g>
                <path d="M252.13,201.47s-4.95,14.3,5.54,22.08l-192.69,3.3s-6.48-1.34-10.16-3.3c-6.71-3.59-12.23-14.3,4.12-19.49l193.19-2.59Z" style="fill: #064782;"></path>
                <path d="M64.97,227.27s-.08,0-.12-.01c-.27-.06-6.61-1.38-10.31-3.35-3.78-2.02-7.32-6.36-6.76-10.75.36-2.84,2.55-6.78,10.97-9.46.05-.02.11-.03.17-.03l193.19-2.59c.16,0,.3.06.4.16.1.1.13.24.08.36-.05.14-4.74,14.15,5.39,21.66.15.11.2.29.13.45-.07.16-.25.26-.45.27l-192.69,3.3h-.01ZM59.03,204.48c-6.25,2-9.8,5.03-10.26,8.75-.51,4.06,2.79,8.1,6.32,9.98,3.38,1.8,9.28,3.09,9.95,3.24l191.43-3.28c-8.38-7.09-5.71-18.67-4.97-21.28l-192.46,2.58Z" style="fill: #263b76; mix-blend-mode: multiply;"></path>
              </g>
              <g>
                <path d="M252.2,201.47s-4.88,14.3,5.46,22.08l-189.68,1.45s-6.92-.65-10.55-2.61c-6.63-3.59-12.07-13.14,4.06-18.33l190.7-2.59Z" style="fill: #e3e2d8;"></path>
                <path d="M67.98,225.42s-.04,0-.06,0c-.29-.03-7.08-.68-10.76-2.68-3.7-2.01-7.21-5.89-6.68-10.04.33-2.63,2.48-6.33,10.84-9.02.05-.02.11-.03.17-.03l190.7-2.59c.17,0,.3.06.4.16.1.1.13.24.08.36-.05.14-4.68,14.15,5.32,21.67.15.11.2.29.13.45-.07.16-.25.26-.46.26l-189.68,1.45h0ZM61.59,204.48c-6.2,2.01-9.7,4.88-10.13,8.31-.48,3.78,2.9,7.46,6.24,9.27,3.37,1.83,9.82,2.5,10.31,2.55l188.45-1.44c-8.26-7.1-5.62-18.66-4.89-21.26l-189.97,2.58Z" style="fill: #c9c7b6;"></path>
              </g>
              <g style="mix-blend-mode: multiply;">
                <path d="M233.73,201.72c5.69.15,11.39.19,17.05-.23l-17.05.23Z" style="fill: #c8c8c1;"></path>
                <path d="M240.71,202.24c-2.45,0-4.81-.05-7-.1-.27,0-.48-.19-.48-.41,0-.22.22-.4.49-.41l17.05-.23c.28,0,.49.17.5.39.01.22-.18.41-.45.43-3.4.25-6.83.34-10.11.34Z" style="fill: #a7a699;"></path>
              </g>
              <path d="M202.31,222.91c-10.24-.57-20.5-.96-30.77-1.12-10.25-.16-20.5-.09-30.74,0-4.97.05-9.94.13-14.91.16-4.79.03-9.61-.12-14.3-1.01-.23-.04-.24-.36,0-.39,4.1-.55,8.22-.95,12.35-1.25,13.55-.99,27.17-.95,40.72-1.88-4.27-.08-8.54-.11-12.8-.12-9.88,0-19.79.03-29.67.31-9.69.28-29.42-.5-29.1-.52,2.2-.1,13.05-1.56,23.74-2.84,1.39-.17,1.24-1.87-.17-1.87-15.09.06-35.31.12-46.5-.13-.27,0-.35-.35-.07-.4,6.57-1.11,13.19-1.99,19.84-2.71,10.41-1.13,20.87-1.85,31.34-2.37-4.82.16-9.63.33-14.44.54-5.04.23-10.1.59-15.15.84-1.79.09-2-2.13-.22-2.29,7.03-.62,14.06-1.17,21.14-1.32,12.09-.27,24.19-.56,36.26-1.16,4.48-.22,8.96-.46,13.44-.69l-100.61,1.37c-.14,0-.29.03-.42.07-15.88,5.2-10.46,14.69-3.86,18.26,3.42,1.85,9.76,2.53,10.48,2.61.05,0,.09,0,.14,0l150.42-1.15c-5.39-.31-10.78-.65-16.17-.95Z" style="fill: #c8c8c1; mix-blend-mode: multiply; opacity: .61;"></path>
              <g>
                <g>
                  <polygon points="252.13 202.92 58.93 204.07 55.44 199.8 103.29 32.21 286.62 23.74 288.45 28.07 252.13 202.92" style="fill: #0067ab;"></polygon>
                  <path d="M58.93,204.48c-.16,0-.32-.07-.41-.18l-3.49-4.27c-.08-.09-.1-.21-.07-.32L102.81,32.12c.05-.18.23-.3.45-.31l183.34-8.48c.22,0,.42.1.49.27l1.83,4.33c.03.07.03.14.02.2l-36.32,174.85c-.04.2-.24.34-.48.34l-193.19,1.15h0ZM55.97,199.72l3.22,3.94,192.52-1.14,36.23-174.41-1.66-3.94-182.6,8.44-47.71,167.11ZM252.13,202.92h0,0Z" style="fill: #263b76; mix-blend-mode: multiply;"></path>
                </g>
                <polygon points="252.13 202.92 58.93 204.07 251.24 199.8 103.29 32.21 286.62 23.74 288.45 28.07 252.13 202.92" style="fill: #931e18; mix-blend-mode: multiply;"></polygon>
                <g>
                  <polygon points="251.24 199.8 55.44 199.8 99.79 27.95 286.62 23.74 251.24 199.8" style="fill: #0067ab;"></polygon>
                  <path d="M251.24,200.21H55.44c-.15,0-.29-.06-.38-.15-.09-.1-.13-.22-.1-.34L99.31,27.86c.05-.18.24-.32.47-.32l186.83-4.21c.15,0,.29.05.39.14.1.09.14.22.11.34l-35.38,176.06c-.04.2-.25.34-.49.34ZM56.05,199.39h194.77l35.22-175.23-185.84,4.19-44.14,171.04Z" style="fill: #263b76; mix-blend-mode: multiply;"></path>
                </g>
                <path d="M139.78,27.05c3.71.04,7.42.12,11.13.19,9.02.17,18.04.32,27.05.73,4.21.19,8.42.59,12.63.71,3.09.09,6.17.15,9.26.28,11.63.52,25.31,2.15,31.9,11.18,5.94,8.14,4.71,18.79,2.87,27.74-2.01,9.74-5.64,19.18-8.13,28.84-3.66,14.2-7.03,28.45-11.32,42.53-2.13,6.98-4.49,13.92-7.23,20.76-2.28,5.7-4.71,11.27-9.04,16.15-8.45,9.52-21.73,14.7-35.14,17.8-7.71,1.78-15.58,2.97-23.42,4.28-2.87.48-5.72,1.01-8.57,1.56h119.46l35.38-176.06-146.84,3.31Z" style="fill: #0067ab; mix-blend-mode: multiply; opacity: .62;"></path>
                <path d="M232.77,24.95c1.02.09,2.04.19,3.06.29,3.95.38,7.89.81,11.83,1.27,3.55.41,7.15.74,10.63,1.45,4.36.89,8.7,2.43,11.83,5.18,2.88,2.53,4.36,5.84,4.94,9.25.8,4.77.02,9.61-.67,14.36-.96,6.67-2.24,13.3-3.72,19.9-2.95,13.2-20.19,94.48-22.49,100.83-7.06,19.55-24.03,19.81-32.79,22.25-.08.02-.17.04-.25.07h36.1l35.38-176.06-53.86,1.21Z" style="fill: #0067ab; mix-blend-mode: multiply; opacity: .62;"></path>
              </g>
            </g>
            <path d="M64.11,230.67c-4.61-1.15-9.12-2.84-12.86-5.39-3.4-2.32-6.07-5.4-6.99-9.01-.91-3.56-.26-7.45,1.8-10.67,1.36-2.12,3.36-3.88,5.8-5.07-4.3,1.24-10.91,4.53-10.68,12.98.3,11.33,14.52,16.68,24.4,17.51-.49-.11-.98-.22-1.46-.34Z" style="fill: #0067ab; mix-blend-mode: screen;"></path>
          </g>
          <path d="M244.42,213.73s-104.96-.2-127.9,2.5c0,0,95.99.06,127.9-2.5Z" style="fill: #c8c8c1;"></path>
          <path d="M241.11,218.66s-71.21-1.16-86.82,1.03c0,0,65.13.95,86.82-1.03Z" style="fill: #c8c8c1;"></path>
          <path d="M244.2,207.62s-118.5-.18-144.41,2.26c0,0,108.38.06,144.41-2.26Z" style="fill: #c8c8c1;"></path>
          <path d="M114.22,29.52s-9.52.39-11.96,6.3c-2.45,5.91-37.28,146.55-37.28,146.55,0,0-4.14,13.06,3.49,13.06h70.97l-55.35-5.35s-9.17,1.52-7.53-13.68c1.64-15.2,29.48-120,45.85-128.96,16.38-8.96,58.95-14.53,86.79-16.09,27.84-1.56,66.49-3.43,66.49-3.43l-161.47,1.6Z" style="fill: #0067ab; mix-blend-mode: screen;"></path>
        </g>
        <g>
          <g>
            <g>
              <path d="M48.72,106.03L196.05,6.12c-10.3-5.5-20.97,3.54-20.97,3.54L32.47,107.32c-2.54,1.18-5.16,3.53-4.42,9.95,1.12,9.77,11.22,17.07,15.35,20.71l13.31-9.03-5.9-22.26-2.09-.66Z" style="fill: #0067ab;"></path>
              <path d="M43.4,138.39c-.13,0-.26-.04-.36-.13-.49-.43-1.06-.91-1.69-1.44-4.78-4.02-12.79-10.75-13.79-19.51-.38-3.33-.31-8.02,4.63-10.33L174.75,9.35c.54-.44,11.27-9.08,21.57-3.58.13.07.22.19.23.32,0,.13-.06.26-.18.34L49.69,105.9l1.3.41c.16.05.27.16.31.29l5.9,22.26c.04.15-.03.31-.17.4l-13.31,9.03c-.09.06-.2.09-.31.09ZM188.96,4.77c-7.3,0-13.45,5.11-13.53,5.17-.01.01-.02.02-.04.03L32.78,107.63s-.05.03-.07.04c-2.15.99-4.91,3.07-4.17,9.56.97,8.47,8.82,15.07,13.51,19.01.51.43.97.82,1.39,1.18l12.72-8.63-5.77-21.8-1.84-.58c-.17-.05-.28-.17-.31-.32-.03-.14.04-.29.17-.38L195.2,6.17c-2.1-1-4.21-1.4-6.24-1.4Z" style="fill: #263b76; mix-blend-mode: multiply;"></path>
            </g>
            <g>
              <path d="M43.3,107.61c-3.49.03-7.1.76-9.99,2.43-.68.4-1.33.85-1.92,1.33-.61.5-1.23,1.04-1.72,1.63-.67.8-1.24,1.68-1.74,2.56.01.54.05,1.11.12,1.71,1.12,9.77,11.22,17.07,15.35,20.71l13.31-9.03-5.32-20.1c-2.59-.79-5.31-1.26-8.08-1.24Z" style="fill: #064782;"></path>
              <path d="M43.4,138.39c-.13,0-.26-.04-.36-.13-.49-.43-1.06-.91-1.69-1.44-4.78-4.02-12.79-10.75-13.79-19.51-.07-.6-.11-1.19-.12-1.74,0-.06.02-.13.05-.18.61-1.05,1.17-1.88,1.78-2.62.54-.65,1.24-1.25,1.79-1.69.63-.51,1.3-.98,1.98-1.37,3.49-2.02,7.51-2.48,10.26-2.51h0c2.64-.03,5.42.4,8.25,1.26.16.05.28.16.31.3l5.32,20.1c.04.15-.03.31-.17.4l-13.31,9.03c-.09.06-.2.09-.31.09ZM28.42,115.65c.02.5.05,1.04.12,1.58.97,8.47,8.82,15.07,13.51,19.01.51.42.97.82,1.39,1.18l12.72-8.63-5.2-19.64c-2.63-.78-5.2-1.15-7.65-1.14h0c-2.62.03-6.43.46-9.71,2.36-.64.37-1.27.81-1.86,1.29-.55.44-1.17.98-1.66,1.57-.56.68-1.09,1.45-1.66,2.42Z" style="fill: #263b76; mix-blend-mode: multiply;"></path>
            </g>
            <path d="M50.84,109.1c.24.17-.11.46-.35.29-.41-.3-.84-.57-1.3-.8-.58-.3-1.2-.52-1.83-.67-.51-.08-1.02-.14-1.54-.19-.59-.02-1.19.03-1.79.16-1.76.38-3.28,1.3-4.54,2.36-1.38,1.17-2.48,2.56-3.33,4.03-.81,1.42-1.35,2.93-1.49,4.5-.31,3.58.61,7.14,2.7,10.29,1.97,2.97,4.81,5.47,7.97,7.59l11.36-7.71-5.32-20.1c-.54-.17-1.09-.31-1.65-.45.39.21.76.45,1.11.7Z" style="fill: #064782; mix-blend-mode: multiply;"></path>
            <path d="M175.08,9.66L32.47,107.32c-1.52.7-3.06,1.83-3.9,3.99.07-.05.13-.1.19-.15,3.39-2.45,7.98-3.46,12.36-3.82.75-.06,1.51-.1,2.27-.13,4.37-3.3,8.74-6.61,13.14-9.88,6.12-4.56,12.15-9.22,18.26-13.8,6.18-4.63,12.52-9.08,18.94-13.48,12.98-8.87,26.07-17.63,39.06-26.49,12.97-8.84,25.97-17.7,38.47-27,5.28-3.93,10.3-8.09,15.51-12.07-6.57.84-11.68,5.17-11.68,5.17Z" style="fill: #0067ab; mix-blend-mode: screen;"></path>
            <g>
              <g>
                <g>
                  <path d="M195.82,205.67L43.8,135.27c-.04-.31-.4,1.19-.4,2.71l154.03,72.15,152.55-108.97v-2.77l-154.17,107.28Z" style="fill: #0067ab;"></path>
                  <path d="M197.43,210.54c-.08,0-.17-.02-.24-.05L43.16,138.34c-.16-.07-.25-.21-.25-.36,0-.94.08-3.13.86-3.16.15,0,.31.05.41.15l151.59,70.2,153.91-107.1c.15-.1.35-.13.53-.06.17.07.29.21.29.37v2.77c0,.12-.06.23-.17.31l-152.55,108.97c-.09.07-.21.1-.32.1ZM43.89,137.74l153.48,71.89,152.12-108.66v-1.7l-153.36,106.71c-.16.11-.38.13-.56.04L44.1,135.88c-.09.44-.18,1.13-.2,1.87ZM43.31,135.31s0,0,0,0c0,0,0,0,0,0Z" style="fill: #263b76; mix-blend-mode: multiply;"></path>
                </g>
                <g>
                  <path d="M196.05,35.62c-6.38,3.49-12.73,7.02-19.04,10.59-12.9,7.31-25.64,14.82-38.08,22.66-12.75,8.03-25.08,16.5-37.45,24.93-12.46,8.49-24.86,17.05-37.08,25.78-4.48,3.2-8.3,6.94-12.45,10.42-2.28,1.91-5.37,3.69-8.15,5.28l153.63,71.37,148.18-105.21,4.37-3.04-153.93-62.77Z" style="fill: #064782;"></path>
                  <path d="M197.43,207.05c-.08,0-.17-.02-.24-.05L43.56,135.63c-.15-.07-.24-.2-.25-.34,0-.14.07-.28.21-.36,2.43-1.38,5.75-3.28,8.08-5.23,1.38-1.16,2.76-2.37,4.08-3.54,2.65-2.34,5.4-4.76,8.4-6.9,10.68-7.63,22.12-15.58,37.08-25.78l3.01-2.05c11.17-7.62,22.73-15.5,34.45-22.88,11.53-7.26,23.99-14.68,38.1-22.67,5.91-3.35,12.14-6.82,19.04-10.6.15-.08.33-.09.49-.03l153.93,62.77c.15.06.25.18.27.32.02.14-.04.27-.17.36l-4.37,3.04-148.18,105.21c-.09.06-.21.1-.32.1ZM44.73,135.24l152.64,70.91,147.92-105.02,3.79-2.64-153-62.39c-6.8,3.73-12.95,7.15-18.8,10.46-14.1,7.98-26.55,15.39-38.06,22.65-11.71,7.37-23.25,15.25-34.42,22.86l-3.01,2.05c-14.96,10.2-26.39,18.14-37.07,25.77-2.96,2.12-5.69,4.52-8.32,6.84-1.33,1.17-2.71,2.39-4.1,3.55-2.19,1.83-5.19,3.6-7.57,4.96Z" style="fill: #263b76; mix-blend-mode: multiply;"></path>
                </g>
              </g>
              <g>
                <path d="M197.81,29.11c-.9-1.47-1.57-3.02-1.97-4.64-.42-1.72-.54-3.47-.5-5.22.05-2.16.26-4.31.88-6.41.45-1.5,1.05-2.96,1.67-4.42l-.07-1.09L48.65,109.82s-10.46,15.65,1.46,25.68L199.41,31.36v-.02c-.58-.72-1.12-1.46-1.59-2.23Z" style="fill: #fff;"></path>
                <path d="M50.11,135.91c-.13,0-.26-.04-.35-.12-12.04-10.14-1.65-26.01-1.54-26.17.03-.04.07-.08.12-.12L197.51,7.01c.14-.1.34-.12.51-.06.17.06.29.2.3.35l.07,1.09c0,.05,0,.11-.03.16-.56,1.31-1.2,2.84-1.66,4.38-.53,1.8-.81,3.8-.86,6.32-.04,1.91.12,3.59.5,5.13.38,1.55,1.03,3.08,1.92,4.53h0c.44.71.95,1.43,1.56,2.19.05.06.08.13.08.2,0,.13-.05.28-.17.36L50.43,135.82c-.09.06-.21.1-.32.1ZM49.04,110.08c-.7,1.1-9.54,15.48,1.11,24.86L198.76,31.27c-.53-.68-.99-1.33-1.39-1.98h0c-.94-1.52-1.61-3.12-2.01-4.74-.39-1.6-.56-3.33-.51-5.31.06-2.58.34-4.64.89-6.5.46-1.54,1.09-3.07,1.65-4.38v-.2S49.04,110.08,49.04,110.08Z" style="fill: #231f20;"></path>
              </g>
            </g>
            <g>
              <path d="M199.41,193.84l-.75,7.87L46.32,133.81s-22.99-16.82.39-25.09l150.48,67.3,2.21,17.82Z" style="fill: #e3e2d8;"></path>
              <path d="M198.66,202.11c-.08,0-.16-.02-.23-.05L46.09,134.17s-.06-.03-.09-.05c-.48-.35-11.68-8.65-10.12-16.63.75-3.83,4.33-6.91,10.65-9.15.14-.05.3-.04.43.02l150.48,67.3c.14.06.24.18.26.32l2.21,17.82s0,.05,0,.07l-.75,7.87c-.01.14-.11.26-.26.33-.07.03-.16.05-.24.05ZM46.61,133.48l151.62,67.57.68-7.2-2.18-17.57L46.69,109.18c-5.85,2.11-9.16,4.95-9.84,8.45-1.42,7.3,9.02,15.3,9.76,15.85Z" style="fill: #abab9d;"></path>
            </g>
            <path d="M88.16,152.07c-2.93-1.49-5.89-2.94-8.81-4.44-2.77-1.42-5.46-2.95-8.23-4.37-10.54-5.43-21.77-10.17-31.12-17.04-.23-.17.06-.41.3-.32,4.84,1.79,9.3,4.16,13.74,6.54,4.05,2.17,8.13,4.27,12.37,6.18,4.22,1.9,8.52,3.69,12.73,5.6-4.62-2.57-9.2-5.2-13.87-7.72-8.29-4.48-16.63-8.95-24.18-14.26-.19-.13.01-.41.24-.34.83.23,1.65.49,2.45.78,3.55,1.25,6.86,2.91,10.16,4.56,3.39,1.69,6.86,3.25,10.31,4.85,7.15,3.31,14.21,6.75,21.26,10.19,7.03,3.43,14.01,6.93,21.06,10.34,7.07,3.42,14.19,6.77,21.4,9.98,3.02,1.35,6.07,2.67,9.12,3.97-3.66-1.83-7.26-3.74-10.9-5.6-7.08-3.62-14.15-7.25-21.19-10.92-7-3.65-13.87-7.46-20.75-11.26-6.75-3.73-13.56-7.38-20.52-10.84-6.27-3.11-12.78-6-18.27-10.05-.18-.13,0-.41.24-.34,5.87,1.78,11.64,3.79,17.32,5.95,10.26,3.9,20.24,8.3,30.14,12.78,8.88,4.02,17.7,8.11,26.65,12.01-5.33-3.18-10.76-6.24-16.25-9.23-5.71-3.11-11.46-6.15-17.2-9.21-5.86-3.13-11.62-6.37-17.38-9.62-2.88-1.63-5.77-3.25-8.66-4.86-2.52-1.41-5.11-2.72-7.71-4.02l-5.9-2.64c-23.38,8.27-.39,25.09-.39,25.09l46.9,20.9c-1.67-.9-3.36-1.78-5.06-2.64Z" style="fill: #c8c8c1; mix-blend-mode: multiply; opacity: .6;"></path>
            <path d="M175.87,184.68c-1.47-.8-2.99-1.54-4.55-2.21-1.68-.73-3.44-1.35-5.19-1.94-3.54-1.2-7.16-2.24-10.83-3.13-1.77-.43-3.64-.72-5.44-1.15,2.33.87,4.62,1.81,6.88,2.78,6.14,2.65,12.15,5.55,18.55,7.77,2.99,1.04,6,2.04,8.97,3.13.03,0,.05.02.08.03-.04-.03-.08-.05-.12-.08-2.7-1.83-5.44-3.61-8.36-5.19Z" style="fill: #c8c8c1; mix-blend-mode: multiply; opacity: .6;"></path>
            <path d="M151.47,166.97c-4.03-2.19-8.14-4.25-12.4-6.12-3.86-1.7-7.84-3.22-11.64-5-1.68-.79-3.36-1.58-5.15-2.19-1.11-.38-2.32-.71-3.54-.8,3.91,2.08,7.86,4.1,11.85,6.06,4.15,2.05,8.34,4.04,12.55,6,4.2,1.96,8.42,3.9,12.65,5.82,4.1,1.87,8.21,3.74,12.3,5.62-1.42-.82-2.84-1.64-4.26-2.45-4.09-2.35-8.2-4.68-12.36-6.95Z" style="fill: #c8c8c1; mix-blend-mode: multiply; opacity: .6;"></path>
            <path d="M39.36,125.71c-.27-1.62.23-3.24,1.78-4.32,1.44-1,3.39-1.3,5.21-1.3,4.96,0,9.9,1.75,14.33,3.44,4.64,1.77,9.07,3.85,13.53,5.9,2.48,1.14,5.04,2.14,7.58,3.19,3.99,1.64,102.68,51.06,114.26,56.82l1.14-13.41L46.72,108.72c-14.3,5.06-11.26,13.32-6.73,18.97-.29-.65-.51-1.31-.62-1.98Z" style="fill: #c8c8c1; mix-blend-mode: multiply; opacity: .6;"></path>
            <g>
              <path d="M346.36,95.31c-.9-1.47-1.57-3.02-1.97-4.64-.42-1.72-.54-3.47-.5-5.22.05-2.16.26-4.31.88-6.41.45-1.5,1.6-5.51,1.6-5.51l-149.18,102.49s-10.46,15.65,1.46,25.68l149.29-104.14v-.02c-.58-.72-1.12-1.46-1.59-2.23Z" style="fill: #bfc0b8;"></path>
              <path d="M198.66,202.11c-.13,0-.26-.04-.35-.12-12.04-10.14-1.65-26.01-1.54-26.17.03-.04.07-.08.12-.12l149.18-102.49c.16-.11.4-.13.58-.03.18.09.27.27.22.44,0,0-1.16,4.01-1.6,5.52-.53,1.8-.81,3.8-.86,6.32-.04,1.91.12,3.59.5,5.13.38,1.55,1.03,3.08,1.92,4.53h0c.44.71.95,1.43,1.56,2.19.05.06.08.13.08.2,0,.13-.05.28-.17.36l-149.29,104.14c-.09.06-.21.1-.32.1ZM197.58,176.28c-.7,1.1-9.54,15.48,1.11,24.86l148.62-103.67c-.53-.68-.99-1.33-1.39-1.98h0c-.94-1.52-1.61-3.12-2.01-4.74-.39-1.6-.56-3.34-.51-5.31.06-2.58.34-4.64.89-6.5.29-.98.88-3.01,1.26-4.32l-147.96,101.66Z" style="fill: #abab9d;"></path>
            </g>
            <g style="mix-blend-mode: multiply; opacity: .6;">
              <path d="M232.25,164.23c-3.27,2.25-6.51,4.52-9.72,6.82-3.12,2.25-6.23,4.51-9.23,6.88-2.95,2.33-5.83,4.71-8.73,7.07-.93.75-1.86,1.5-2.8,2.24,1.76-.97,3.49-1.97,5.19-3,3.78-2.3,7.42-4.75,10.98-7.28,1.75-1.24,3.47-2.5,5.18-3.78,1.73-1.29,3.44-2.59,5.06-3.98,3.29-2.82,6.32-5.85,9.62-8.67.2-.17.4-.34.61-.51-2.06,1.4-4.11,2.79-6.16,4.2Z" style="fill: #c8c8c1;"></path>
              <path d="M230.93,172.15s.1-.02.15-.03c3.68-.98,25.02-16.82,28.26-19.18,3.21-2.33,6.35-4.73,9.37-7.23-6.81,3.91-13.37,8.12-19.7,12.56-6.27,4.4-12.3,9.04-18.08,13.88Z" style="fill: #c8c8c1;"></path>
              <path d="M263.41,142.59c-2.85,2.17-5.69,4.34-8.55,6.5,1.18-.78,2.37-1.55,3.54-2.34,5.58-3.74,11.05-7.59,16.31-11.63,2.68-2.06,5.3-4.16,7.86-6.33-1.69,1.11-3.37,2.24-5.02,3.39-4.83,3.36-9.49,6.88-14.13,10.42Z" style="fill: #c8c8c1;"></path>
            </g>
            <path d="M220.81,166.95c11.97-8.62,24.09-17.1,36.3-25.48,12.17-8.36,24.41-16.64,36.64-24.94,12.32-8.36,24.71-16.63,37.12-24.89,4.39-2.92,8.79-5.84,13.18-8.77.13-1.29.35-2.57.73-3.83.45-1.5,1.6-5.51,1.6-5.51l-149.18,102.49s-3.6,5.39-4.17,11.87c9.82-6.43,18.34-14.14,27.78-20.94Z" style="fill: #c8c8c1; mix-blend-mode: multiply; opacity: .6;"></path>
            <g>
              <g>
                <path d="M195.82,176.17L48.3,106.69c-.04-.31-.56,2.17-.56,3.95l149.69,69.99,152.55-108.97v-2.77l-154.17,107.28Z" style="fill: #064782;"></path>
                <path d="M197.43,181.03c-.08,0-.17-.02-.24-.05L47.5,110.99c-.16-.07-.25-.21-.25-.36,0-.99.15-2.1.25-2.67.24-1.52.32-1.7.77-1.72.14,0,.26.04.36.12l147.14,69.3,153.91-107.1c.15-.1.35-.13.53-.06.17.07.29.21.29.37v2.77c0,.12-.06.23-.17.31l-152.55,108.97c-.09.07-.21.1-.32.1ZM48.24,110.4l149.13,69.73,152.12-108.66v-1.7l-153.36,106.71c-.16.11-.38.13-.56.04L48.62,107.3c-.14.7-.35,2-.37,3.1Z" style="fill: #263b76; mix-blend-mode: multiply;"></path>
              </g>
              <g>
                <path d="M196.05,6.12c-6.38,3.49-144.96,98.98-147.75,100.57l149.13,70.45,148.18-105.21,4.37-3.04L196.05,6.12Z" style="fill: #0067ab;"></path>
                <path d="M197.43,177.55c-.08,0-.17-.02-.24-.05L48.06,107.04c-.15-.07-.24-.2-.25-.34,0-.14.07-.27.21-.35,1.03-.59,22.17-15.07,46.64-31.84C135.65,46.43,191.79,7.96,195.78,5.78c.15-.08.33-.09.49-.03l153.93,62.77c.15.06.25.18.27.32.02.14-.04.27-.17.36l-4.37,3.04-148.18,105.21c-.09.06-.21.1-.32.1ZM49.19,106.63l148.19,70.01,147.92-105.02,3.79-2.64L196.1,6.59c-5.52,3.26-60.49,40.93-100.8,68.55-23.48,16.09-42.41,29.06-46.1,31.49Z" style="fill: #263b76; mix-blend-mode: multiply;"></path>
              </g>
              <path d="M196.05,6.12c-6.38,3.49-144.96,98.98-147.75,100.57l149.13,70.45,148.18-105.21,4.37-3.04L196.05,6.12ZM271.72,86.87c-4.98,6.53-11.31,12.3-18.1,17.57-6.67,5.18-13.84,9.85-21.08,14.46-7.75,4.93-15.96,9.36-24.7,12.99-17.31,7.18-36.89,11.18-56.31,9.6-19.52-1.59-38.04-8.48-53.87-17.89-6.22-3.7-12.39-7.72-17.21-12.69-4.35-4.49-8-10.51-4.8-16.21,1.66-2.95,4.31-5.49,7.1-7.74,3.16-2.57,6.64-4.85,10.14-7.09,3.33-2.13,6.73-4.2,9.89-6.51,4.15-3.02,8.32-6.01,12.55-8.94,8.55-5.92,17.35-11.57,26.02-17.36,8.34-5.57,16.6-11.23,25.15-16.57,4.16-2.6,8.48-5,12.69-7.54,2.71-1.64,5.41-3.27,8.26-4.73,4.38-2.25,10.76-5.23,16.22-4.13,7.25.26,14.31,3.04,20.9,5.27,9.47,3.19,18.77,6.85,27.27,11.59,7.64,4.25,14.71,9.29,19.95,15.61,4.82,5.82,8,12.66,8.09,19.77.1,7.48-3.43,14.35-8.18,20.56Z" style="fill: #0067ab; mix-blend-mode: multiply; opacity: .62;"></path>
              <path d="M314.68,54.49c2.42,1.54,4.58,3.28,5.85,5.61,3.71,6.83-1.99,13.81-7.28,18.77-6.57,6.15-14.14,11.52-21.77,16.75-7.99,5.47-16.01,10.9-23.99,16.38-8.47,5.82-16.88,11.71-25.27,17.61-8.02,5.64-16.1,11.23-24.08,16.91-6.38,4.54-12.62,9.34-19.91,12.88-3.45,1.67-7.16,3.06-11.09,3.74-3.63.63-7.23.47-10.87.02-5-.61-9.95-1.66-14.76-3l35.92,16.97,148.18-105.21,4.37-3.04-35.31-14.4Z" style="fill: #0067ab; mix-blend-mode: multiply; opacity: .62;"></path>
            </g>
            <g>
              <path d="M48.3,106.69s-9.72-2.71-16.71,1.63c-6.99,4.34-6.96,19.51,11.8,29.67l.4-2.71s-10.9-5.19-12.21-13.36c-1.31-8.17,3.26-16.01,16.15-11.28l.56-3.95Z" style="fill: #0067ab;"></path>
              <path d="M43.4,138.39c-.09,0-.19-.02-.27-.07-9.91-5.36-16-13.11-16.3-20.72-.16-4.18,1.51-7.77,4.47-9.62,7.11-4.42,16.75-1.8,17.16-1.69.22.06.36.24.33.43l-.56,3.95c-.02.13-.11.24-.25.31-.14.06-.3.07-.44.02-4.91-1.81-8.97-1.85-11.73-.14-3.13,1.94-4.52,6.05-3.73,10.99,1.26,7.87,11.86,13.01,11.96,13.06.17.08.27.24.24.41l-.4,2.71c-.02.14-.13.26-.28.32-.07.03-.14.04-.21.04ZM41.44,106.27c-3.01,0-6.56.52-9.55,2.37-2.71,1.68-4.23,5.02-4.08,8.94.28,7.18,5.94,14.5,15.19,19.7l.27-1.79c-1.78-.9-10.94-5.89-12.17-13.52-.84-5.24.7-9.63,4.12-11.75,2.07-1.28,5.83-2.33,12.11-.17l.43-3.07c-.91-.21-3.36-.71-6.33-.71Z" style="fill: #263b76; mix-blend-mode: multiply;"></path>
            </g>
          </g>
          <path d="M200.95,10.6c-1.91-.26-3.85-.37-5.72.06-1.9.44-3.61,1.26-5.26,2.15L60.38,103.76s-4.59,4.08,0,4.96c4.59.88,132.57,63.43,132.57,63.43l-121.43-63.43s-7.53-2.86-1.31-7.1c6.22-4.24,121.02-85.82,121.02-85.82,0,0,2.95-3.53,12.45-1.09,9.5,2.44,131.83,52.26,131.83,52.26L200.95,10.6Z" style="fill: #0067ab; mix-blend-mode: screen;"></path>
        </g>
        <g>
          <g>
            <g>
              <path d="M26.03,83.66L173.37-16.25c-10.3-5.5-20.97,3.54-20.97,3.54L9.78,84.95c-2.54,1.18-5.16,3.53-4.42,9.96,1.12,9.77,11.21,17.07,15.35,20.71l13.31-9.03-5.9-22.26-2.09-.66Z" style="fill: #d2322e;"></path>
              <path d="M20.71,116.02c-.13,0-.26-.04-.36-.13-.49-.43-1.06-.91-1.69-1.44-4.78-4.02-12.79-10.75-13.79-19.51-.38-3.33-.31-8.02,4.63-10.33L152.06-13.01c.54-.44,11.27-9.08,21.57-3.58.13.07.22.19.23.32,0,.13-.06.26-.18.34L27,83.53l1.3.41c.16.05.27.16.31.29l5.9,22.26c.04.15-.03.31-.17.4l-13.31,9.03c-.09.06-.2.09-.31.09ZM166.28-17.6c-7.3,0-13.45,5.11-13.53,5.17-.01.01-.02.02-.04.03L10.1,85.27s-.05.03-.07.04c-2.15.99-4.91,3.07-4.17,9.56.97,8.47,8.82,15.07,13.51,19.01.51.42.97.82,1.39,1.18l12.72-8.63-5.77-21.8-1.84-.58c-.17-.05-.28-.17-.31-.32-.03-.14.04-.29.17-.38L172.52-16.2c-2.1-1-4.21-1.4-6.24-1.4Z" style="fill: #610400;"></path>
            </g>
            <g>
              <path d="M20.62,85.24c-3.49.03-7.1.76-9.99,2.43-.69.4-1.33.85-1.92,1.33-.62.5-1.23,1.04-1.72,1.63-.67.8-1.24,1.68-1.74,2.56.01.54.05,1.11.12,1.71,1.12,9.77,11.21,17.07,15.35,20.71l13.31-9.03-5.32-20.1c-2.59-.79-5.31-1.26-8.08-1.24Z" style="fill: #911e18;"></path>
              <path d="M20.71,116.02c-.13,0-.26-.04-.36-.13-.49-.43-1.06-.91-1.69-1.44-4.78-4.02-12.79-10.75-13.79-19.51-.07-.6-.11-1.19-.12-1.74,0-.06.02-.13.05-.18.61-1.05,1.17-1.88,1.78-2.62.54-.65,1.24-1.25,1.79-1.69.63-.51,1.3-.98,1.99-1.37,3.49-2.02,7.51-2.48,10.26-2.51h0c2.64-.03,5.42.4,8.25,1.26.16.05.28.16.31.3l5.32,20.1c.04.15-.03.31-.17.4l-13.31,9.03c-.09.06-.2.09-.31.09ZM5.74,93.28c.01.5.05,1.04.12,1.58.97,8.47,8.82,15.07,13.51,19.01.51.42.97.82,1.39,1.18l12.72-8.63-5.2-19.64c-2.63-.78-5.21-1.16-7.65-1.14h0c-2.62.03-6.43.46-9.71,2.36-.64.37-1.27.8-1.86,1.29-.51.42-1.17.97-1.66,1.57-.56.68-1.09,1.45-1.66,2.42ZM20.62,85.24h0,0Z" style="fill: #610400;"></path>
            </g>
            <path d="M28.16,86.73c.24.17-.11.46-.35.29-.41-.3-.84-.57-1.3-.8-.58-.3-1.2-.52-1.83-.67-.51-.08-1.02-.14-1.54-.19-.59-.02-1.19.03-1.79.16-1.76.38-3.28,1.3-4.54,2.36-1.38,1.17-2.48,2.56-3.33,4.03-.81,1.42-1.35,2.93-1.49,4.5-.31,3.58.61,7.14,2.7,10.29,1.97,2.97,4.81,5.47,7.97,7.59l11.36-7.71-5.32-20.1c-.54-.17-1.09-.31-1.65-.45.39.21.76.45,1.11.7Z" style="fill: #911e18; mix-blend-mode: multiply;"></path>
            <path d="M152.4-12.71L9.78,84.95c-1.52.7-3.06,1.83-3.9,3.99.07-.05.13-.1.19-.15,3.39-2.45,7.98-3.46,12.36-3.82.75-.06,1.51-.1,2.27-.13,4.37-3.3,8.74-6.61,13.14-9.88,6.12-4.56,12.15-9.22,18.26-13.8,6.18-4.63,12.52-9.08,18.94-13.48,12.98-8.87,26.07-17.63,39.06-26.49,12.97-8.84,25.97-17.7,38.47-27,5.28-3.93,10.3-8.09,15.51-12.07-6.57.84-11.68,5.17-11.68,5.17Z" style="fill: #d2322e; mix-blend-mode: screen;"></path>
            <g>
              <g>
                <g>
                  <path d="M173.13,183.3L21.12,112.9c-.04-.31-.4,1.19-.4,2.71l154.03,72.15,152.55-108.97v-2.77l-154.17,107.28Z" style="fill: #d2322e;"></path>
                  <path d="M174.75,188.17c-.08,0-.17-.02-.24-.05L20.47,115.97c-.16-.07-.25-.21-.25-.36,0-.94.08-3.13.86-3.16.15-.01.31.05.41.15l151.59,70.2,153.91-107.1c.15-.1.35-.13.53-.06.17.07.29.21.29.37v2.77c0,.12-.06.23-.17.31l-152.55,108.97c-.09.07-.21.1-.32.1ZM21.21,115.38l153.48,71.89,152.12-108.66v-1.7l-153.36,106.71c-.16.11-.38.13-.56.04L21.41,113.51c-.09.44-.18,1.13-.2,1.87ZM20.63,112.94s0,0,0,0c0,0,0,0,0,0Z" style="fill: #610400;"></path>
                </g>
                <g>
                  <path d="M173.37,13.25c-6.38,3.49-12.73,7.02-19.04,10.59-12.9,7.31-25.64,14.82-38.08,22.66-12.75,8.03-25.08,16.5-37.45,24.93-12.46,8.49-24.86,17.05-37.08,25.78-4.48,3.2-8.3,6.94-12.45,10.42-2.28,1.9-5.37,3.69-8.15,5.28l153.63,71.37,148.18-105.21,4.37-3.04L173.37,13.25Z" style="fill: #911e18;"></path>
                  <path d="M174.75,184.68c-.08,0-.17-.02-.24-.05L20.88,113.26c-.15-.07-.24-.2-.25-.34,0-.14.07-.28.21-.36,2.43-1.38,5.75-3.28,8.08-5.23,1.39-1.16,2.76-2.37,4.08-3.54,2.65-2.34,5.39-4.76,8.4-6.9,10.67-7.62,22.11-15.58,37.08-25.78l2.98-2.03c11.18-7.63,22.75-15.51,34.48-22.9,11.52-7.26,23.99-14.67,38.1-22.67,5.92-3.35,12.15-6.82,19.04-10.6.15-.08.33-.09.49-.03l153.93,62.77c.15.06.25.18.27.32.02.14-.04.27-.17.36l-4.37,3.04-148.18,105.21c-.09.06-.21.1-.32.1ZM22.05,112.87l152.64,70.91,147.92-105.03,3.79-2.64L173.4,13.72c-6.8,3.72-12.95,7.15-18.8,10.46-14.1,7.99-26.55,15.4-38.06,22.65-11.72,7.38-23.27,15.26-34.45,22.88l-2.98,2.03c-14.97,10.2-26.4,18.15-37.07,25.77-2.96,2.12-5.69,4.52-8.32,6.84-1.33,1.17-2.71,2.39-4.1,3.56-2.19,1.83-5.19,3.6-7.57,4.96Z" style="fill: #610400;"></path>
                </g>
              </g>
              <g>
                <path d="M175.13,6.74c-.9-1.47-1.57-3.02-1.97-4.64-.42-1.72-.54-3.47-.5-5.22.05-2.16.26-4.31.88-6.41.45-1.5,1.05-2.96,1.67-4.42l-.07-1.09L25.96,87.45s-10.46,15.65,1.46,25.68L176.72,8.99v-.02c-.58-.72-1.12-1.46-1.59-2.23Z" style="fill: #fff;"></path>
                <path d="M27.43,113.54c-.13,0-.26-.04-.35-.12-12.04-10.14-1.65-26.01-1.54-26.17.03-.04.07-.08.12-.12L174.82-15.35c.14-.1.34-.12.51-.06.17.06.29.2.3.35l.07,1.09c0,.05,0,.11-.03.16-.56,1.31-1.2,2.85-1.66,4.38-.53,1.8-.81,3.8-.86,6.32-.04,1.91.12,3.59.5,5.13.38,1.55,1.03,3.08,1.92,4.53h0c.44.71.95,1.43,1.56,2.19.05.06.08.13.08.2,0,.13-.05.28-.17.36L27.74,113.45c-.09.06-.21.1-.32.1ZM26.35,87.71c-.7,1.1-9.54,15.48,1.11,24.86L176.08,8.91c-.53-.68-.99-1.33-1.39-1.98h0c-.94-1.52-1.61-3.12-2.01-4.74-.39-1.6-.56-3.33-.51-5.31.06-2.58.34-4.64.89-6.5.46-1.54,1.09-3.07,1.65-4.38v-.2S26.35,87.71,26.35,87.71Z" style="fill: #231f20;"></path>
              </g>
            </g>
            <g>
              <path d="M176.72,171.47l-.75,7.87L23.64,111.45s-22.99-16.82.39-25.09l150.48,67.3,2.21,17.82Z" style="fill: #e3e2d8;"></path>
              <path d="M175.97,179.74c-.08,0-.16-.02-.23-.05L23.4,111.81s-.06-.03-.09-.05c-.48-.35-11.68-8.65-10.12-16.63.75-3.83,4.33-6.91,10.65-9.15.14-.05.3-.04.43.02l150.48,67.3c.14.06.24.18.26.32l2.21,17.82s0,.05,0,.07l-.75,7.87c-.01.14-.11.26-.26.33-.07.03-.16.05-.24.05ZM23.92,111.11l151.62,67.57.68-7.2-2.18-17.57L24.01,86.81c-5.85,2.11-9.16,4.95-9.84,8.45-1.42,7.3,9.02,15.3,9.76,15.85Z" style="fill: #abab9d;"></path>
            </g>
            <path d="M65.48,129.7c-2.93-1.49-5.89-2.94-8.81-4.44-2.77-1.42-5.46-2.95-8.23-4.37-10.54-5.43-21.77-10.17-31.12-17.04-.23-.17.06-.41.3-.32,4.84,1.79,9.3,4.16,13.74,6.54,4.05,2.17,8.13,4.27,12.37,6.18,4.22,1.9,8.52,3.69,12.73,5.6-4.62-2.57-9.2-5.2-13.87-7.72-8.29-4.48-16.63-8.94-24.18-14.26-.19-.13.01-.41.24-.34.83.23,1.65.49,2.45.78,3.55,1.25,6.86,2.91,10.16,4.55,3.39,1.69,6.86,3.25,10.31,4.85,7.15,3.31,14.21,6.75,21.26,10.19,7.03,3.43,14.01,6.93,21.06,10.34,7.07,3.42,14.19,6.77,21.4,9.98,3.02,1.35,6.07,2.67,9.12,3.97-3.66-1.83-7.26-3.74-10.9-5.6-7.08-3.62-14.15-7.25-21.19-10.92-7-3.65-13.87-7.46-20.75-11.26-6.75-3.73-13.56-7.38-20.52-10.84-6.27-3.11-12.78-6-18.27-10.05-.18-.13,0-.41.24-.34,5.87,1.78,11.64,3.79,17.32,5.95,10.26,3.9,20.23,8.3,30.14,12.78,8.88,4.02,17.7,8.11,26.65,12.01-5.33-3.18-10.76-6.24-16.25-9.23-5.71-3.11-11.46-6.15-17.2-9.21-5.86-3.13-11.62-6.37-17.38-9.62-2.88-1.63-5.77-3.25-8.66-4.86-2.52-1.41-5.11-2.72-7.71-4.02l-5.9-2.64c-23.38,8.27-.39,25.09-.39,25.09l46.9,20.9c-1.67-.9-3.36-1.78-5.06-2.64Z" style="fill: #c8c8c1; mix-blend-mode: multiply; opacity: .6;"></path>
            <path d="M153.18,162.32c-1.47-.8-2.99-1.54-4.55-2.21-1.68-.73-3.44-1.35-5.19-1.94-3.54-1.2-7.16-2.24-10.83-3.13-1.77-.43-3.64-.72-5.44-1.15,2.33.87,4.62,1.81,6.88,2.78,6.14,2.65,12.15,5.55,18.55,7.77,2.99,1.04,6,2.04,8.97,3.13.03,0,.05.02.08.03-.04-.03-.08-.05-.12-.08-2.7-1.83-5.44-3.61-8.36-5.19Z" style="fill: #c8c8c1; mix-blend-mode: multiply; opacity: .6;"></path>
            <path d="M128.79,144.6c-4.03-2.19-8.14-4.25-12.4-6.12-3.86-1.7-7.84-3.22-11.64-5-1.68-.79-3.36-1.58-5.15-2.19-1.11-.38-2.32-.71-3.54-.8,3.91,2.08,7.86,4.1,11.85,6.06,4.15,2.05,8.34,4.04,12.55,6,4.2,1.96,8.42,3.9,12.65,5.82,4.1,1.87,8.21,3.74,12.3,5.62-1.42-.82-2.84-1.64-4.26-2.45-4.09-2.35-8.2-4.68-12.36-6.95Z" style="fill: #c8c8c1; mix-blend-mode: multiply; opacity: .6;"></path>
            <g>
              <path d="M323.68,72.94c-.9-1.47-1.57-3.02-1.97-4.64-.42-1.72-.54-3.47-.5-5.22.05-2.16.26-4.31.88-6.41.45-1.5,1.6-5.51,1.6-5.51l-149.18,102.49s-10.46,15.65,1.46,25.68l149.29-104.14v-.02c-.58-.72-1.12-1.46-1.59-2.23Z" style="fill: #bfc0b8;"></path>
              <path d="M175.97,179.74c-.13,0-.26-.04-.35-.12-12.04-10.14-1.65-26.01-1.54-26.17.03-.04.07-.08.12-.12l149.18-102.49c.16-.11.4-.13.58-.03.18.09.27.27.22.44,0,0-1.16,4.01-1.6,5.52-.53,1.8-.81,3.8-.86,6.32-.04,1.91.12,3.59.49,5.13.38,1.55,1.03,3.08,1.92,4.53h0c.44.72.95,1.43,1.56,2.19.05.06.08.13.08.21,0,.13-.06.27-.17.36l-149.29,104.14c-.09.06-.21.1-.32.1ZM174.9,153.91c-.7,1.1-9.54,15.48,1.11,24.86l148.62-103.67c-.53-.68-.99-1.33-1.39-1.98h0c-.94-1.52-1.61-3.12-2.01-4.74-.39-1.6-.56-3.33-.51-5.31.06-2.58.34-4.64.89-6.5.29-.98.88-3.01,1.26-4.32l-147.96,101.66Z" style="fill: #abab9d;"></path>
            </g>
            <g style="mix-blend-mode: multiply; opacity: .6;">
              <path d="M209.56,141.86c-3.27,2.25-6.51,4.52-9.72,6.82-3.12,2.25-6.23,4.51-9.23,6.88-2.95,2.33-5.83,4.71-8.73,7.07-.93.75-1.86,1.5-2.8,2.24,1.76-.97,3.49-1.97,5.19-3,3.78-2.3,7.42-4.75,10.98-7.28,1.75-1.24,3.47-2.5,5.18-3.78,1.73-1.29,3.44-2.59,5.06-3.98,3.29-2.82,6.32-5.85,9.62-8.67.2-.17.4-.34.61-.51-2.06,1.4-4.11,2.79-6.16,4.2Z" style="fill: #c8c8c1;"></path>
              <path d="M208.25,149.78s.1-.02.15-.03c3.68-.98,25.02-16.82,28.25-19.18,3.21-2.33,6.35-4.73,9.37-7.23-6.81,3.91-13.37,8.12-19.7,12.56-6.27,4.4-12.3,9.04-18.08,13.88Z" style="fill: #c8c8c1;"></path>
              <path d="M259.02,114.05c1.37-.5,2.53-1.39,3.59-2.23,1.4-1.1,2.84-2.16,4.29-3.22,2.99-2.18,5.95-4.38,8.93-6.55,2.72-1.99,5.44-3.97,8.09-6.02,1.39-1.08,2.78-2.18,4.12-3.32-2.35,1.39-4.74,2.74-7.07,4.16-1.38.83-17.98,12.71-21.96,17.18Z" style="fill: #c8c8c1;"></path>
              <path d="M240.72,120.23c-2.85,2.17-5.69,4.34-8.55,6.5,1.18-.78,2.37-1.55,3.54-2.34,5.58-3.74,11.05-7.59,16.31-11.64,2.68-2.06,5.3-4.16,7.86-6.33-1.69,1.11-3.37,2.24-5.02,3.39-4.83,3.36-9.49,6.88-14.13,10.42Z" style="fill: #c8c8c1;"></path>
            </g>
            <path d="M198.12,144.58c11.97-8.62,24.09-17.1,36.3-25.48,12.17-8.36,24.41-16.64,36.64-24.94,12.32-8.36,24.71-16.63,37.12-24.89,4.39-2.92,8.79-5.84,13.18-8.77.13-1.29.35-2.57.73-3.83.45-1.5,1.6-5.51,1.6-5.51l-149.18,102.49s-3.6,5.39-4.17,11.87c9.82-6.43,18.34-14.14,27.78-20.94Z" style="fill: #c8c8c1; mix-blend-mode: multiply; opacity: .6;"></path>
            <g>
              <g>
                <path d="M173.13,153.8L25.62,84.32c-.04-.31-.56,2.17-.56,3.95l149.69,69.99,152.55-108.97v-2.77l-154.17,107.28Z" style="fill: #911e18;"></path>
                <path d="M174.75,158.67c-.08,0-.17-.02-.24-.05L24.82,88.63c-.16-.07-.25-.21-.25-.36,0-.99.15-2.1.25-2.67.24-1.52.32-1.7.77-1.72.14,0,.26.04.36.12l147.14,69.3,153.91-107.1c.15-.1.35-.13.53-.06.17.07.29.21.29.37v2.77c0,.12-.06.23-.17.31l-152.55,108.97c-.09.07-.21.1-.32.1ZM25.56,88.03l149.13,69.73,152.12-108.66v-1.7l-153.36,106.71c-.16.11-.38.13-.56.04L25.93,84.94c-.14.7-.35,2-.37,3.1Z" style="fill: #610400;"></path>
              </g>
              <g>
                <path d="M173.37-16.25c-6.38,3.49-144.96,98.98-147.75,100.57l149.13,70.45,148.18-105.21,4.37-3.04L173.37-16.25Z" style="fill: #d2322e;"></path>
                <path d="M174.75,155.18c-.08,0-.17-.02-.24-.05L25.37,84.67c-.15-.07-.24-.2-.25-.34,0-.14.07-.27.21-.35,1.03-.59,22.18-15.08,46.66-31.85C112.98,24.05,169.1-14.4,173.1-16.59c.15-.08.33-.09.49-.03l153.93,62.77c.15.06.25.18.27.32.02.14-.04.27-.17.36l-4.37,3.04-148.18,105.21c-.09.06-.21.1-.32.1ZM26.5,84.27l148.19,70.01,147.92-105.02,3.79-2.64L173.41-15.78c-5.52,3.26-60.48,40.92-100.79,68.54-23.49,16.09-42.43,29.07-46.12,31.5Z" style="fill: #610400;"></path>
              </g>
              <path d="M173.37-16.25c-6.38,3.49-144.96,98.98-147.75,100.57l149.13,70.45,148.18-105.21,4.37-3.04L173.37-16.25ZM249.04,64.5c-4.99,6.53-11.31,12.3-18.1,17.57-6.67,5.18-13.84,9.85-21.08,14.46-7.75,4.93-15.96,9.36-24.7,12.99-17.31,7.18-36.89,11.18-56.31,9.6-19.52-1.59-38.04-8.48-53.87-17.89-6.22-3.7-12.39-7.72-17.21-12.69-4.35-4.49-8-10.51-4.8-16.21,1.66-2.95,4.31-5.48,7.1-7.74,3.16-2.57,6.64-4.85,10.14-7.09,3.33-2.13,6.73-4.2,9.89-6.51,4.15-3.02,8.32-6.01,12.55-8.94,8.55-5.92,17.35-11.56,26.02-17.36,8.34-5.57,16.6-11.23,25.15-16.57,4.16-2.6,8.48-5,12.69-7.54,2.71-1.64,5.41-3.27,8.26-4.73,4.38-2.25,10.76-5.23,16.22-4.13,7.25.26,14.31,3.04,20.9,5.27,9.47,3.19,18.77,6.85,27.27,11.59,7.64,4.25,14.71,9.29,19.95,15.61,4.82,5.82,8,12.66,8.09,19.77.1,7.48-3.43,14.35-8.18,20.56Z" style="fill: #d2322e; mix-blend-mode: multiply;"></path>
              <path d="M291.99,32.12c2.42,1.54,4.58,3.28,5.84,5.61,3.71,6.83-1.99,13.81-7.28,18.77-6.57,6.15-14.14,11.52-21.76,16.75-7.99,5.47-16.01,10.9-23.99,16.38-8.47,5.82-16.88,11.71-25.27,17.61-8.02,5.64-16.1,11.23-24.08,16.91-6.38,4.54-12.62,9.34-19.91,12.88-3.45,1.67-7.16,3.06-11.09,3.74-3.63.63-7.23.47-10.87.02-5-.61-9.95-1.66-14.76-3l35.92,16.97,148.18-105.21,4.37-3.04-35.31-14.4Z" style="fill: #d2322e; mix-blend-mode: multiply;"></path>
            </g>
            <g>
              <path d="M25.62,84.32s-9.72-2.72-16.71,1.63c-6.99,4.34-6.96,19.51,11.8,29.67l.4-2.71s-10.9-5.19-12.21-13.36c-1.31-8.17,3.26-16.01,16.15-11.28l.56-3.95Z" style="fill: #d2322e;"></path>
              <path d="M20.71,116.02c-.09,0-.19-.02-.27-.07-9.91-5.36-16-13.11-16.3-20.72-.16-4.18,1.51-7.77,4.47-9.62,7.11-4.42,16.75-1.8,17.16-1.69.22.06.36.24.33.43l-.56,3.95c-.02.13-.11.24-.25.31-.14.07-.3.07-.44.02-4.91-1.81-8.97-1.85-11.73-.14-3.13,1.94-4.52,6.05-3.73,10.99,1.26,7.87,11.86,13.01,11.96,13.06.17.08.27.24.24.41l-.4,2.71c-.02.14-.13.26-.28.32-.07.03-.14.04-.21.04ZM18.75,83.9c-3.01,0-6.56.52-9.55,2.37-2.71,1.68-4.23,5.02-4.08,8.94.28,7.18,5.94,14.5,15.19,19.69l.27-1.79c-1.78-.9-10.94-5.89-12.17-13.52-.84-5.24.7-9.63,4.12-11.75,2.07-1.28,5.83-2.33,12.11-.17l.43-3.07c-.91-.21-3.36-.71-6.33-.71Z" style="fill: #610400;"></path>
            </g>
          </g>
          <path d="M178.27-11.77c-1.91-.26-3.85-.37-5.72.06-1.9.44-3.61,1.26-5.26,2.15L37.7,81.39s-4.59,4.08,0,4.96c4.59.88,132.57,63.43,132.57,63.43l-121.43-63.43s-7.53-2.86-1.31-7.1c6.22-4.24,121.02-85.82,121.02-85.82,0,0,2.95-3.53,12.45-1.09,9.5,2.44,131.83,52.26,131.83,52.26L178.27-11.77Z" style="fill: #d2322e; mix-blend-mode: screen;"></path>
        </g>
        <g>
          <g>
            <g>
              <path d="M54.1,141.05l-10.95-16.96L103.51-26.35s.97-8.67,13.59-6.88l-62.99,174.28Z" style="fill: #00925d;"></path>
              <path d="M54.1,141.46c-.18,0-.35-.08-.44-.22l-10.95-16.96c-.06-.1-.08-.22-.03-.32L103.02-26.44c.06-.45.61-3.62,3.87-5.69,2.53-1.61,5.99-2.12,10.28-1.51.14.02.26.09.34.19.07.1.09.22.05.33l-62.99,174.28c-.06.16-.22.27-.42.29-.02,0-.03,0-.05,0ZM43.69,124.05l10.29,15.93L116.46-32.9c-3.75-.45-6.76.03-8.96,1.42-3.1,1.97-3.5,5.14-3.51,5.17,0,.03-.01.06-.02.09L43.69,124.05Z" style="fill: #114521;"></path>
            </g>
            <path d="M44.57,126.29c3.38-8.76,6.74-17.53,10.13-26.28,5.03-13,10.17-25.95,15.7-38.81,5.5-12.8,11.06-25.58,16.06-38.51,2.49-6.45,4.79-12.95,7.48-19.35,2.48-5.9,5.31-11.74,7.45-17.73,1.48-4.15,2.72-8.37,4.85-12.33,1.28-2.38,2.93-4.79,5.25-6.58-7.31,1.07-7.98,6.96-7.98,6.96L43.15,124.09l1.42,2.2Z" style="fill: #b7c3b8; mix-blend-mode: screen; opacity: .41;"></path>
            <path d="M106.36-31.19c1.29-.07,2.72.08,3.48,1.03.87,1.09.59,2.64.32,3.84-.57,2.53-1.59,5.02-2.55,7.47-1.22,3.12-2.59,6.2-4,9.27-2.84,6.17-5.73,12.32-8.28,18.58-2.7,6.63-5.33,13.27-7.92,19.93-5.13,13.18-10.12,26.39-15.19,39.58-2.56,6.66-5.13,13.31-7.76,19.94-1.22,3.08-2.41,6.16-3.48,9.28-1.02,2.96-2.07,5.92-3.46,8.77-1.37,2.81-3.02,5.43-5.32,7.8-2.25,2.32-4.83,4.38-7.07,6.71-.45.47-.89.95-1.32,1.43l-.66,1.65,10.95,16.96L117.1-33.23c-5.49-.78-8.78.43-10.74,2.04Z" style="fill: #79a499; mix-blend-mode: multiply;"></path>
            <g>
              <path d="M60.89,118.74l-4.31-1.97s-13.2-.13-14.43,11.07c-1.22,11.2,13.59,17.31,22.28,18.03l-3.54-27.14Z" style="fill: #00925d;"></path>
              <path d="M64.43,146.29s-.03,0-.05,0c-8.55-.71-23.99-6.85-22.72-18.48,1.25-11.45,14.77-11.44,14.92-11.44.08,0,.16.02.23.05l4.31,1.97c.14.06.24.18.25.31l3.54,27.14c.02.12-.04.24-.14.33-.09.08-.22.12-.35.12ZM56.45,117.19c-1.38.01-12.69.45-13.81,10.7-1.18,10.79,12.92,16.62,21.23,17.53l-3.45-26.41-3.97-1.81Z" style="fill: #114521;"></path>
            </g>
            <path d="M45.93,122.08c2.18-1.43,4.88-2.25,7.67-2,.2.02.25.22.11.33-.28.22-.57.44-.85.66-2.01,1.56-4.19,3.15-5.45,5.22-1.36,2.22-1.43,4.84-.58,7.2.42,1.16,1.08,2.26,1.92,3.26.81.95,1.78,1.89,2.89,2.62.85.56,1.92,1.03,2.45,1.85.42.65.17,1.36-.51,1.76,3.71,1.67,7.68,2.65,10.84,2.91l-3.54-27.14-4.31-1.97s-10.66-.1-13.71,8.01c.87-1.02,1.89-1.94,3.07-2.71Z" style="fill: #79a499; mix-blend-mode: multiply;"></path>
            <g>
              <g>
                <polygon points="237.99 160.24 64.43 145.88 61.82 141.77 124.95 -4.13 289.95 3.57 290.48 8.37 237.99 160.24" style="fill: #00925d;"></polygon>
                <path d="M237.99,160.65s-.03,0-.05,0l-173.56-14.36c-.17-.01-.31-.1-.39-.22l-2.61-4.11c-.06-.1-.07-.22-.03-.33L124.48-4.27c.07-.17.28-.28.49-.27l165,7.7c.24.01.44.17.46.37l.53,4.8c0,.05,0,.1-.02.15l-52.49,151.87c-.06.18-.26.3-.47.3ZM64.74,145.49l172.89,14.31L289.98,8.33l-.48-4.37L125.29-3.7l-62.93,145.44,2.38,3.75Z" style="fill: #114521;"></path>
              </g>
              <polygon points="237.99 160.24 236.95 158.09 61.82 141.77 124.95 -4.13 289.95 3.57 290.48 8.37 237.99 160.24" style="fill: #79a499; mix-blend-mode: multiply;"></polygon>
              <g>
                <polygon points="236.95 158.09 61.82 141.77 122.34 -8.24 289.95 3.57 236.95 158.09" style="fill: #007a4d;"></polygon>
                <path d="M236.95,158.5s-.04,0-.06,0l-175.12-16.32c-.15-.01-.28-.08-.36-.19-.08-.1-.1-.23-.05-.35L121.87-8.37c.07-.18.28-.3.51-.28L289.99,3.17c.15.01.28.07.36.18.08.1.11.23.07.34l-53.01,154.52c-.06.18-.26.3-.47.3ZM62.48,141.42l174.1,16.23L289.31,3.94,122.69-7.8l-60.2,149.22Z" style="fill: #114521;"></path>
              </g>
              <g>
                <path d="M220.98,148.09l13.58,6.79L284.27,5.09s-2.4-13.41.18-20.23l-164.75-13.99,101.28,177.21Z" style="fill: #cacac2;"></path>
                <path d="M234.56,155.29c-.09,0-.18-.02-.25-.06l-13.58-6.79c-.08-.04-.15-.1-.19-.18L119.26-28.95c-.08-.13-.06-.29.04-.41.1-.12.27-.19.45-.17l164.75,13.99c.15.01.28.08.36.18.08.1.1.23.06.35-2.51,6.64-.18,19.91-.16,20.04,0,.06,0,.11-.01.17l-49.71,149.79c-.04.12-.15.22-.29.27-.06.02-.12.03-.18.03ZM221.37,147.8l12.89,6.45L283.77,5.06c-.21-1.23-2.19-13.13.04-19.84l-163.29-13.86,100.84,176.44Z" style="fill: #bab8a9;"></path>
              </g>
              <path d="M220.98,148.09l9.59-.26L283.54-.64s-1.66-7.69.91-14.5l-164.75-13.99,101.28,177.21Z" style="fill: #c8c8c1; mix-blend-mode: multiply; opacity: .61;"></path>
              <g>
                <path d="M232.29,134.67s-6.16,12.38,2.27,20.21l-172.74-13.11s-5.64-1.74-8.69-3.8c-5.57-3.77-9.2-13.81,6.05-17.09l173.11,13.78Z" style="fill: #007147;"></path>
                <path d="M234.56,155.29s-.03,0-.05,0l-172.74-13.11s-.09-.01-.13-.02c-.23-.07-5.75-1.78-8.83-3.87-3.15-2.13-5.79-6.32-4.76-10.22.67-2.52,3.11-5.88,11-7.58.06-.01.11-.02.17-.01l173.11,13.79c.16.01.29.09.38.2.08.11.09.25.03.37-.06.12-5.94,12.23,2.18,19.78.13.13.16.31.07.46-.08.14-.26.22-.44.22ZM61.93,141.37l171.49,13.02c-6.51-7.01-2.83-17-1.82-19.36l-172.38-13.73c-5.81,1.26-9.33,3.66-10.2,6.94-.94,3.58,1.51,7.44,4.42,9.41,2.78,1.88,7.87,3.52,8.49,3.71Z" style="fill: #114521;"></path>
              </g>
              <g>
                <path d="M232.36,134.68s-6.1,12.38,2.21,20.21l-169.83-14.51s-6.11-1.16-9.12-3.22c-5.49-3.76-9.2-12.76,5.86-16.05l170.88,13.58Z" style="fill: #e3e2d8;"></path>
                <path d="M234.56,155.29s-.03,0-.05,0l-169.83-14.51s-.04,0-.06,0c-.25-.05-6.26-1.2-9.32-3.3-3.08-2.11-5.75-5.89-4.78-9.57.62-2.34,3-5.48,10.82-7.19.06-.01.12-.02.17-.01l170.88,13.58c.16.01.29.08.38.2.08.11.09.25.03.37-.06.12-5.89,12.24,2.12,19.78.13.13.16.31.07.46-.09.14-.26.22-.44.22ZM64.82,139.96l168.61,14.41c-6.4-7-2.75-16.98-1.75-19.34l-170.15-13.52c-5.76,1.28-9.23,3.54-10.03,6.56-.88,3.33,1.68,6.88,4.44,8.77,2.78,1.9,8.44,3.04,8.89,3.13Z" style="fill: #c9c7b6;"></path>
              </g>
              <path d="M185.13,149.69c-9.09-1.36-18.22-2.57-27.38-3.57-9.15-.99-18.32-1.79-27.5-2.56-4.45-.37-8.91-.71-13.35-1.1-4.29-.37-8.58-.9-12.66-2.09-.2-.06-.17-.34.05-.35,3.73-.15,7.47-.17,11.2-.09,12.24.25,24.42,1.42,36.65,1.72-3.81-.43-7.62-.81-11.44-1.17-8.84-.83-17.7-1.62-26.57-2.19-8.7-.56-26.26-2.9-25.97-2.89,3.34.15,29.19-1.08,38.76-.68-2.87-.37-42.05-3.63-58.68-5.56-.24-.03-.27-.35,0-.36,6.01-.44,12.04-.68,18.07-.77,9.45-.14,18.89.08,28.32.49-4.33-.26-8.66-.51-12.98-.72-10.26-.49-20.66-.34-30.72-2.32-.28-.05-.24-.37.05-.37,12.07.24,24.12-.17,36.17.69,10.85.77,21.7,1.52,32.57,1.99,4.04.17,8.07.33,12.11.5l-90.34-7.18c-15.06,3.3-11.35,12.29-5.86,16.05,3.01,2.06,9.12,3.22,9.12,3.22l134.74,11.52c-4.78-.73-9.56-1.48-14.35-2.19Z" style="fill: #c8c8c1; mix-blend-mode: multiply; opacity: .61;"></path>
              <g style="mix-blend-mode: multiply;">
                <path d="M215.8,133.36c5.08.61,10.16,1.12,15.28,1.21l-15.28-1.21Z" style="fill: #c8c8c1;"></path>
                <path d="M231.08,134.98h-.01c-5.36-.1-10.76-.67-15.34-1.22-.27-.03-.45-.23-.42-.45.03-.22.27-.38.54-.36l15.28,1.21c.26.02.46.21.45.43-.02.22-.23.39-.49.39Z" style="fill: #a7a699;"></path>
              </g>
              <g>
                <g>
                  <polygon points="232.12 135.97 59.18 120.89 56.58 116.78 119.7 -29.12 284.71 -21.42 285.82 -17.39 232.12 135.97" style="fill: #00925d;"></polygon>
                  <path d="M232.12,136.37s-.03,0-.05,0l-172.93-15.08c-.16-.01-.31-.1-.39-.22l-2.61-4.11c-.06-.1-.07-.22-.03-.33L119.24-29.26c.07-.17.28-.27.49-.27l165,7.7c.22,0,.4.14.45.32l1.11,4.03c.02.07.02.14,0,.2l-53.7,153.36c-.06.18-.26.3-.47.3ZM59.5,120.5l172.26,15.02,53.55-152.93-1-3.63-164.27-7.67L57.11,116.75l2.38,3.75Z" style="fill: #114521;"></path>
                </g>
                <polygon points="232.12 135.97 59.18 120.89 231.7 133.1 119.7 -29.12 284.71 -21.42 285.82 -17.39 232.12 135.97" style="fill: #79a499; mix-blend-mode: multiply;"></polygon>
                <g>
                  <polygon points="231.7 133.1 56.58 116.78 117.1 -33.23 284.71 -21.42 231.7 133.1" style="fill: #00925d;"></polygon>
                  <path d="M231.7,133.51s-.04,0-.06,0l-175.12-16.32c-.15-.01-.28-.08-.36-.19-.08-.1-.1-.23-.05-.35L116.63-33.36c.07-.18.28-.3.51-.28l167.61,11.81c.15.01.28.07.36.18s.11.23.07.34l-53.01,154.52c-.06.18-.26.3-.47.3ZM57.24,116.43l174.1,16.23,52.73-153.71-166.63-11.74L57.24,116.43Z" style="fill: #114521;"></path>
                </g>
                <path d="M152.97-30.7c3.31.34,6.62.72,9.94,1.1,8.05.9,16.1,1.79,24.1,2.91,3.74.52,7.46,1.23,11.21,1.69,2.75.34,5.5.65,8.25,1.03,10.34,1.43,22.37,4.03,27.18,12.65,4.33,7.77,1.93,17.2-.8,25.05-2.98,8.55-7.37,16.69-10.77,25.12-5,12.39-9.74,24.86-15.29,37.1-2.75,6.07-5.7,12.08-8.99,17.97-2.73,4.9-5.58,9.69-10.04,13.69-8.71,7.81-21.22,11.34-33.59,12.99-7.11.95-14.3,1.36-21.47,1.88-2.62.19-5.24.43-7.85.68l106.85,9.96,53.01-154.52-131.73-9.28Z" style="fill: #70ba9a; mix-blend-mode: multiply;"></path>
              </g>
            </g>
            <path d="M60.59,145.11c-3.99-1.41-7.81-3.3-10.85-5.89-2.76-2.35-4.77-5.34-5.16-8.64-.38-3.26.67-6.69,2.91-9.39,1.47-1.78,3.48-3.19,5.8-4.05-4,.75-10.3,3.14-11.13,10.72-1.11,10.15,10.96,16.13,19.7,17.69-.43-.14-.85-.28-1.27-.43Z" style="fill: #b7c3b8; mix-blend-mode: screen; opacity: .41;"></path>
          </g>
          <path d="M223.91,144.99s-93.85-8.93-114.7-8.43c0,0,85.85,8.06,114.7,8.43Z" style="fill: #c8c8c1;"></path>
          <path d="M220.36,149.12s-63.55-6.97-77.78-6.32c0,0,58.13,6.28,77.78,6.32Z" style="fill: #c8c8c1;"></path>
          <path d="M224.45,139.51s-105.97-10.04-129.43-10.01c0,0,96.93,9.09,129.43,10.01Z" style="fill: #c8c8c1;"></path>
          <path d="M129.81-30.62s-8.56-.44-11.47,4.64c-2.91,5.09-51.12,127.97-51.12,127.97,0,0-5.29,11.34,1.54,11.97,9.3.87,63.48,5.92,63.48,5.92l-48.86-9.4s-8.39.6-5.08-12.86c3.31-13.46,40.92-104.87,56.66-111.52,15.73-6.65,54.49-8.09,79.58-7.16,25.09.93,59.89,2.47,59.89,2.47l-144.61-12.03Z" style="fill: #b7c3b8; mix-blend-mode: screen; opacity: .41;"></path>
        </g>
      </g>
    </g>
  </g>
</svg>