<?xml version="1.0"?>
<svg xmlns="http://www.w3.org/2000/svg" xmlns:xlink="http://www.w3.org/1999/xlink" viewBox="0 0 275.47 277.29">
  <defs>
    <linearGradient id="linear-gradient" x1="57.2" y1="21.7" x2="57.2" y2="104.9" gradientTransform="translate(250.87 124.17) rotate(-127.33) scale(1 -1)" gradientUnits="userSpaceOnUse">
      <stop offset="0" stop-color="#54463e"></stop>
      <stop offset=".46" stop-color="#584b44"></stop>
      <stop offset="1" stop-color="#70655f"></stop>
    </linearGradient>
    <linearGradient id="linear-gradient-2" x1="49.19" y1="-57.67" x2="49.19" y2="41.77" gradientTransform="translate(250.87 124.17) rotate(-127.33) scale(1 -1)" gradientUnits="userSpaceOnUse">
      <stop offset=".1" stop-color="#79652b"></stop>
      <stop offset=".77" stop-color="#84723e"></stop>
      <stop offset=".79" stop-color="#8b7b4a"></stop>
      <stop offset=".84" stop-color="#a1936b"></stop>
      <stop offset=".9" stop-color="#c3baa1"></stop>
      <stop offset=".98" stop-color="#f2f0eb"></stop>
      <stop offset="1" stop-color="#fff"></stop>
    </linearGradient>
    <linearGradient id="linear-gradient-3" x1="16.52" y1="-66.75" x2="61.39" y2="-66.75" gradientTransform="translate(250.87 124.17) rotate(-127.33) scale(1 -1)" gradientUnits="userSpaceOnUse">
      <stop offset="0" stop-color="#cfbeb4"></stop>
      <stop offset=".99" stop-color="#6b3817"></stop>
    </linearGradient>
    <linearGradient id="linear-gradient-4" x1="18.1" y1="-52.9" x2="63.81" y2="-52.9" xlink:href="#linear-gradient-3"></linearGradient>
    <linearGradient id="linear-gradient-5" x1="19.44" y1="-41.23" x2="65.84" y2="-41.23" xlink:href="#linear-gradient-3"></linearGradient>
    <linearGradient id="linear-gradient-6" x1="20.74" y1="-29.64" x2="67.88" y2="-29.64" xlink:href="#linear-gradient-3"></linearGradient>
    <linearGradient id="linear-gradient-7" x1="22.05" y1="-17.87" x2="69.95" y2="-17.87" xlink:href="#linear-gradient-3"></linearGradient>
    <linearGradient id="linear-gradient-8" x1="23.2" y1="-7.85" x2="71.7" y2="-7.85" xlink:href="#linear-gradient-3"></linearGradient>
    <linearGradient id="linear-gradient-9" x1="24.35" y1="2.3" x2="73.46" y2="2.3" xlink:href="#linear-gradient-3"></linearGradient>
    <linearGradient id="linear-gradient-10" x1="25.17" y1="11.36" x2="75.23" y2="11.36" xlink:href="#linear-gradient-3"></linearGradient>
    <linearGradient id="linear-gradient-11" x1="38.77" y1="178.74" x2="109.2" y2="178.74" gradientTransform="translate(250.87 124.17) rotate(-127.33) scale(1 -1)" gradientUnits="userSpaceOnUse">
      <stop offset="0" stop-color="#4d1902"></stop>
      <stop offset="1" stop-color="#4d1b00"></stop>
    </linearGradient>
    <linearGradient id="linear-gradient-12" x1="38.73" y1="178.37" x2="109.15" y2="178.37" gradientTransform="translate(250.87 124.17) rotate(-127.33) scale(1 -1)" gradientUnits="userSpaceOnUse">
      <stop offset="0" stop-color="#fdd777"></stop>
      <stop offset=".03" stop-color="#fcd77a"></stop>
      <stop offset=".33" stop-color="#fadf99"></stop>
      <stop offset=".5" stop-color="#fae2a5"></stop>
      <stop offset=".66" stop-color="#fae1a1"></stop>
      <stop offset=".8" stop-color="#fade96"></stop>
      <stop offset=".94" stop-color="#fcda84"></stop>
      <stop offset="1" stop-color="#fdd879"></stop>
    </linearGradient>
    <linearGradient id="linear-gradient-13" x1="39.26" y1="177.33" x2="108.87" y2="177.33" gradientTransform="translate(250.87 124.17) rotate(-127.33) scale(1 -1)" gradientUnits="userSpaceOnUse">
      <stop offset="0" stop-color="#fde998"></stop>
      <stop offset=".12" stop-color="#fcefaa"></stop>
      <stop offset=".36" stop-color="#fafac9"></stop>
      <stop offset=".5" stop-color="#faffd5"></stop>
      <stop offset=".64" stop-color="#fafdd1"></stop>
      <stop offset=".76" stop-color="#faf9c6"></stop>
      <stop offset=".88" stop-color="#fbf2b4"></stop>
      <stop offset="1" stop-color="#fce99b"></stop>
      <stop offset="1" stop-color="#fde99b"></stop>
    </linearGradient>
  </defs>
  <g style="isolation: isolate;">
    <g id="Layer_1" data-name="Layer 1">
      <g>
        <g>
          <path d="M-14.63,107.04c-27.62,42.2-30.52,96.47-10.36,142.72,5.26,12.95,4.86,27.84,13.57,38.94,19.53,24.87,54.51,40.52,86.42,42.43,21.37,1.28,42.78-7.74,62.85-26.12,17.09-15.64,32.88-37.95,45.88-64.31,14.89-30.19,29.33-31.45,47.58-33.16,12.34-1.15,26.36-2.48,43.03-13.13,19.89-12.71,30.69-30.2,32.4-51.86,1.03-13-1.43-25.79-4.83-38.27-1.48-5.43-9.83-24.59-9.83-24.59l238.51-141.54c2.56.57,4.21,1.46,4.24,1.48.09.04.15.07.23.11.1-.04.14-.05.23-.08.14-.05,3.14-1.18,7.88-2.96,1,1.89,1.91,3.6,3.22,6.07-2.75,2.71-3.72,5.85-2.48,8.18,1.69,3.16,6.85,3.44,11.72.64,4.88-2.81,7.36-7.48,5.67-10.64-1.25-2.33-4.31-3.13-7.99-2.16-1.05-1.97-1.83-3.44-2.61-4.91,5.73-2.15,12.57-4.71,19.69-7.37.77,1.44,1.55,2.89,2.57,4.81-2.74,2.72-3.73,5.86-2.48,8.19,1.7,3.16,6.85,3.44,11.73.63,4.88-2.82,7.37-7.52,5.67-10.68-1.25-2.33-4.32-3.13-8-2.14-.76-1.41-1.36-2.55-1.94-3.63,6.58-2.45,13.12-4.87,19.01-7.05.4.75.82,1.53,1.3,2.44-2.75,2.73-3.73,5.88-2.48,8.21,1.7,3.16,6.85,3.43,11.73.6,4.88-2.83,7.36-7.54,5.67-10.7-1.25-2.33-4.33-3.13-8-2.13-.24-.44-.42-.8-.64-1.19,5.58-2.04,10.05-3.65,12.58-4.51.89-.3,1.46-.77,1.71-1.4.26-.68.13-1.45-.43-2.33-.81-1.28-1.59-2.59-2.28-3.9-7.7-14.54-5.54-26.82-4.27-31.44.56-2.06-.19-3.5-2.14-4.13-5.38-1.7-15.49-6.65-22.42-20.64-.55-1.11-1.09-2.28-1.57-3.46-.56-1.36-1.31-1.78-1.81-1.87-.4-.07-1.05-.03-1.79.63-2.03,1.78-5.8,4.93-10.54,8.85-.12-.26-.23-.47-.36-.74,2.79-2.73,3.85-5.87,2.74-8.17-1.53-3.13-6.52-3.35-11.39-.53-4.87,2.83-7.52,7.5-6,10.63,1.11,2.31,4.1,3.09,7.73,2.09.36.72.66,1.33.95,1.95-4.92,4.05-10.39,8.53-15.9,13.03-.46-.94-.95-1.92-1.53-3.11,2.79-2.72,3.85-5.84,2.73-8.14-1.53-3.14-6.5-3.39-11.37-.58-4.87,2.8-7.51,7.45-5.99,10.59,1.12,2.31,4.09,3.1,7.71,2.12.83,1.7,1.47,3.01,2.1,4.29-5.98,4.88-11.72,9.55-16.53,13.46-.66-1.32-1.32-2.68-2.17-4.44,2.78-2.71,3.84-5.82,2.72-8.13-1.52-3.15-6.51-3.42-11.37-.63-4.86,2.78-7.5,7.41-5.98,10.56,1.12,2.32,4.1,3.13,7.73,2.17,1.11,2.27,1.9,3.9,2.75,5.61-3.98,3.23-6.5,5.27-6.62,5.37l-.2.15c-.01.11-.02.17-.03.28,0,.07-.51,4.49-3.45,8.98-25.96,14.75-51.95,29.43-77.99,44.05-54.34,28.46-108.8,56.68-163.3,84.86-6.37-8.68-12.97-15.64-19.92-20.5-4.19-2.93-30.59-13.55-35.05-15.07-12.5-4.26-4.02,5.43-18.99,12.59-17.04,8.14-26.51,19.64-34.83,29.81-12.31,15.05-22.34,27.22-50.51,22.03-24.6-4.53-47.6-4.36-67.64,1.3C18.09,72.19-.97,86.18-14.63,107.04ZM22.39,74.59c6.05-3.16,12.44-5.78,19.26-7.71.94-.27,1.91-.46,2.86-.7-7.68,2.02-15.1,4.82-22.12,8.41Z" style="fill: #88320c;"></path>
          <path d="M-22.28,265.41c-1.14-5.03-2.33-10.23-4.26-14.98-20.7-47.49-16.68-102.8,10.5-144.32,13.87-21.2,33.11-35.39,57.2-42.19,19.81-5.6,42.83-6.05,68.4-1.34,27.27,5.02,36.81-6.65,48.91-21.44,8.4-10.27,17.93-21.92,35.4-30.27,6.53-3.13,8.19-6.69,9.4-9.3,1.76-3.79,3.37-5.91,10.86-3.36,4.62,1.58,31.03,12.17,35.48,15.29,6.6,4.63,12.98,11.08,19.45,19.73,51.71-26.73,107.07-55.41,161.98-84.17,25.91-14.55,51.78-29.16,77.62-43.84,2.52-4.02,2.96-7.85,2.99-8.17.04-.44.47-1.01.82-1.29l5.57-4.52-1.58-3.22c-3.82.62-7-.64-8.31-3.36-1.93-4,.94-9.48,6.66-12.75,5.75-3.3,11.71-2.79,13.72,1.36,1.32,2.7.47,6.14-2.2,9.18l.73,1.48,13.84-11.27-.93-1.9c-3.81.63-6.99-.59-8.3-3.32-1.93-3.99.93-9.49,6.66-12.79,5.75-3.32,11.76-2.82,13.72,1.31,1.32,2.69.46,6.14-2.21,9.18l.07.15c4.32-3.52,8.57-7.01,12.53-10.27-3.41.33-6.23-.96-7.41-3.41-1.93-3.98.94-9.49,6.67-12.83,5.76-3.35,11.75-2.94,13.75,1.25.56,1.15.72,2.44.52,3.78,2.14-1.79,3.86-3.25,5.01-4.26,1.31-1.16,2.58-1.14,3.21-1.03.84.15,2.28.98,3.06,2.89.47,1.15.99,2.27,1.52,3.35,1.35,2.73,2.91,5.26,4.62,7.51,6.09,7.99,13.14,11.12,16.79,12.27,1.13.36,2.01.94,2.62,1.74s1.25,2.25.65,4.44c-1.22,4.43-3.26,16.25,4.14,30.21.67,1.28,1.42,2.54,2.21,3.78,1.05,1.66.9,3,.58,3.84-.3.78-1.01,1.82-2.74,2.4-1.58.54-3.91,1.36-6.78,2.4,1.66.52,2.98,1.55,3.78,3.04,2.17,4.04-.55,9.61-6.31,12.95-5.69,3.31-11.9,2.82-14.06-1.26-1.46-2.72-.72-6.19,1.92-9.27l-.05-.09c-4.98,1.84-10.37,3.83-15.82,5.86l.43.8c3.87-.66,7.14.51,8.6,3.26,2.17,4.04-.54,9.6-6.31,12.93-5.7,3.29-11.92,2.78-14.06-1.29-1.46-2.71-.72-6.17,1.91-9.25l-1.31-2.45c-5.9,2.2-11.56,4.32-16.51,6.18l1.11,2.09c3.87-.65,7.09.52,8.58,3.28,2.16,4.04-.55,9.59-6.31,12.9-5.7,3.27-11.88,2.78-14.05-1.31-1.46-2.71-.71-6.18,1.91-9.24l-1.96-3.7-6.73,2.52c-.45.17-1.22,0-1.65-.22-.01,0-1.22-.65-3.14-1.15l-236.64,140.43c1.95,4.52,8.04,18.77,9.32,23.46,2.87,10.54,6.03,24.47,4.89,38.85-1.77,22.32-12.94,40.21-33.18,53.14-17.06,10.9-31.26,12.22-43.94,13.41-18.37,1.71-31.64,2.95-46.06,32.2-13.22,26.8-29.21,49.21-46.25,64.81-20.67,18.93-42.23,27.87-64.09,26.56-34.3-2.06-68.7-18.97-87.64-43.08l-.28-.36h0c-5.42-7.1-7.36-15.67-9.25-23.95ZM542.58-64.88c.79-.3,1.67.07,2.09.79l3.22,6.06c.35.66.22,1.47-.3,1.99-2.18,2.16-3.04,4.58-1.95,6.54,1.45,1.91,5.49,1.74,9.17-.38,4.01-2.3,6.26-6.06,5.02-8.38-.88-1.59-3.22-2.08-6.08-1.32-.76.2-1.53-.14-1.92-.84l-2.61-4.91c-.23-.43-.26-.93-.09-1.39.17-.45.53-.81.98-.98,5.73-2.15,12.57-4.71,19.7-7.37.79-.3,1.68.06,2.08.79l2.57,4.81c.35.65.23,1.46-.3,1.99-2.19,2.17-3.04,4.6-1.96,6.54,1.46,1.91,5.49,1.74,9.18-.39,3.95-2.28,6.26-6.14,5.03-8.42-.89-1.6-3.23-2.07-6.08-1.31-.75.21-1.55-.14-1.93-.83l-1.94-3.64c-.23-.43-.26-.93-.09-1.39.17-.45.53-.81.99-.98,6.57-2.45,13.12-4.87,19.02-7.05.79-.29,1.65.05,2.07.79l1.3,2.43c.35.66.23,1.47-.3,2-2.19,2.18-3.04,4.61-1.96,6.56,1.46,1.91,5.49,1.73,9.17-.41,3.95-2.29,6.26-6.16,5.03-8.44-.88-1.6-3.23-2.08-6.08-1.31-.76.2-1.56-.14-1.92-.83l-.64-1.19c-.23-.43-.27-.94-.1-1.4.18-.46.54-.82,1-.99,5.59-2.04,10.07-3.65,12.62-4.52.43-.15.63-.31.66-.4.06-.16-.04-.47-.28-.83-.84-1.32-1.64-2.67-2.35-4.02-7.96-15.02-5.73-27.85-4.41-32.68.32-1.19.04-1.73-1.03-2.07-4.03-1.27-11.8-4.72-18.45-13.45-1.85-2.43-3.53-5.13-4.97-8.05-.57-1.15-1.12-2.35-1.62-3.57-.1-.26-.2-.47-.53-.85,0,0-.14.01-.4.24-2.04,1.79-5.82,4.95-10.57,8.88-.4.33-1,.28-1.51.18-.5-.11-1.01-.6-1.24-1.07l-.2-.42c-.31-.65-.18-1.43.34-1.93,2.23-2.19,3.17-4.63,2.4-6.23-.97-1.94-4.71-2.31-9.03.19-4.4,2.56-6.31,6.43-5.33,8.44.76,1.51,3,1.96,5.76,1.2.78-.21,1.6.13,1.96.88l.96,1.96c.34.7.16,1.54-.45,2.03-4.92,4.05-10.39,8.54-15.9,13.03-.4.33-.93.45-1.43.34-.5-.11-.93-.44-1.16-.9l-1.53-3.11c-.32-.65-.18-1.44.34-1.94,2.22-2.17,3.16-4.6,2.39-6.2-.97-1.96-4.7-2.34-9.01.14-4.39,2.52-6.29,6.38-5.31,8.4.76,1.52,3,1.97,5.76,1.22.78-.21,1.58.15,1.96.89l2.1,4.28c.35.7.17,1.55-.44,2.05l-16.53,13.46c-.4.32-.92.45-1.42.34-.51-.11-.94-.44-1.15-.9l-2.18-4.45c-.32-.65-.18-1.43.34-1.94,2.22-2.16,3.15-4.59,2.38-6.19-.97-1.97-4.71-2.37-9.02.1-4.37,2.5-6.27,6.35-5.3,8.37.75,1.55,3.01,2.01,5.77,1.27.78-.21,1.59.16,1.95.89l2.75,5.6c.35.71.16,1.56-.45,2.05l-6.3,5.1c-.21,1.39-1.03,5.29-3.65,9.29-.15.23-.34.41-.58.54-25.96,14.75-51.96,29.43-78.04,44.08-55.41,29.02-111.23,57.94-163.31,84.86-.73.38-1.58.34-2.13-.5-6.52-8.83-12.94-15.51-19.53-20.12-3.86-2.7-29.53-13.12-34.63-14.86-5.15-1.76-5.42-1.18-6.71,1.6-1.34,2.89-3.38,7.27-11,10.92-16.8,8.03-26.07,19.36-34.25,29.36-12.29,15.02-22.9,28-52.13,22.61-23.3-4.29-44.38-4.22-62.75.19.04.78-.46,1.51-1.25,1.72-7.67,2.03-15,4.81-21.78,8.29-.71.36-1.55.17-2.04-.4-13.73,7.55-25.23,18.35-34.34,32.27-26.56,40.58-30.48,94.66-10.21,141.16,2.05,5.05,3.26,10.38,4.44,15.55,1.88,8.3,3.66,16.13,8.64,22.65h0l.26.33c18.37,23.39,51.8,39.79,85.19,41.79,20.91,1.25,41.64-7.39,61.61-25.68,16.74-15.32,32.47-37.39,45.51-63.81,15.26-30.95,30.8-32.4,48.93-34.09,12.15-1.13,25.91-2.41,42.28-12.87,19.3-12.34,29.95-29.35,31.63-50.57,1.1-13.85-1.98-27.42-4.78-37.69-1.43-5.25-9.66-24.18-9.74-24.37-.34-.78-.04-1.69.69-2.12l238.51-141.54c.37-.22.81-.29,1.23-.2,1.91.43,3.37,1.02,4.21,1.4l7.42-2.79Z" style="fill: #4f1300;"></path>
        </g>
        <path d="M220.62,14.22c-6.38-2.11-12.67-4.5-18.92-6.94,5.06-5.75,2.25-10.75,11.89-7.47,4.46,1.52,30.86,12.14,35.05,15.07,3.53,2.47,6.97,5.5,10.34,9.01-13.09-1.16-25.99-5.56-38.36-9.66Z" style="fill: #88320c; mix-blend-mode: multiply;"></path>
        <path d="M188.12,232.65c-16.57-6.95-32.95-15.58-48.42-24.68,8.25-8.31,17.13-16.39,26.74-23.25,15.45,8.51,30.48,17.86,46.12,26.01-8.56,2.87-16.5,8.67-24.43,21.91Z" style="fill: #88320c; mix-blend-mode: multiply;"></path>
        <path d="M244.57,154.6c9.08,2.76,18.18,5.46,27.37,7.81,8.94,2.28,17.86,4.59,26.8,6.85-2.34,4.18-5.19,8.12-8.53,11.8-9.92-3.85-19.5-8.53-28.86-13.67-6.79-3.72-14.31-7.06-21.46-10.89,1.6-.58,3.15-1.21,4.68-1.9Z" style="fill: #88320c; mix-blend-mode: screen;"></path>
        <g>
          <g>
            <g>
              <g>
                <path d="M86.76,53.78c47.15,9.2,44.83-31.51,85.63-51.89,44.5-22.23,78.7,24.41,94.15,58.79,17.36,38.64,29.08,94.68-14.87,122.08-40.79,25.42-66.25-4.41-90.82,46.53-20.38,42.26-58.19,91.72-108.22,90.11-45.13-1.46-82.11-39.96-99.47-81.04-19.38-45.86-17.37-99.79,10.22-142.03C-9.61,54.99,41.15,44.89,86.76,53.78Z" style="fill: #d68919;"></path>
                <path d="M-48.4,239.02c-20.53-48.57-16.65-102.26,10.36-143.6C-9.11,51.15,45.56,44.03,87.08,52.13c27.43,5.35,37.38-6.62,49.99-21.79,8.45-10.17,18.03-21.7,34.57-29.96,33.96-16.97,60.63,5.08,77.01,26.56,9.22,12.08,15.65,24.64,19.43,33.05,12.09,26.9,34.76,92.86-15.52,124.21-16.63,10.37-30.74,11.73-43.19,12.93-18.25,1.76-32.66,3.16-47,32.89-40.55,84.08-90.29,91.69-109.8,91.06-29.61-.96-58.26-17.66-80.66-47.03h0c-8.19-10.74-15.02-22.53-20.3-35.04ZM173.14,3.4c-15.9,7.94-25.24,19.19-33.48,29.1-12.79,15.38-23.83,28.67-53.22,22.94-52.39-10.22-97.86,5.41-121.65,41.82-26.4,40.41-30.16,92.91-10.08,140.45,5.18,12.25,11.87,23.79,19.88,34.3h0c21.77,28.55,49.51,44.78,78.09,45.71,18.85.6,66.96-6.86,106.65-89.16,15.17-31.44,31.18-32.99,49.71-34.78,12.08-1.17,25.78-2.49,41.73-12.44,48.03-29.94,25.95-93.87,14.23-119.96-3.7-8.24-10.01-20.55-19.03-32.38-15.61-20.47-40.92-41.53-72.83-25.59Z" style="fill: #8f4d14;"></path>
              </g>
              <g style="mix-blend-mode: multiply;">
                <path d="M36.45,58.24c-24.74,4.64-47.94,17.36-63.97,41.87-26.17,40.03-27.62,91.12-9.18,134.46,16.6,39.05,50.68,74.34,94.86,76.69,13.12.7,25.9-2.82,37.69-9.09-13.61,8.51-28.6,13.47-44.11,12.71-44.65-2.18-79.23-37.56-95.96-77.06-18.62-43.95-16.68-95.61,9.96-136.04C-16.64,75.04,9.2,62.11,36.45,58.24Z" style="fill: #d68919; opacity: .4;"></path>
              </g>
              <g>
                <g style="mix-blend-mode: screen; opacity: .4;">
                  <path d="M165.59,208.54c-25.14-5.81-48.36-21.34-62.55-43.78-14.73-23.28-18.96-53.66-15.72-82.9.75-6.83,1.93-13.77,3.54-20.66,41.46,3.27,40.64-32.1,78.98-51.61,42.29-21.52,76.09,19.64,91.19,53.47,16.81,37.65,25.08,90-16.94,115.93-34.51,21.3-56.67,3.98-78.5,29.56Z" style="fill: #d68919;"></path>
                </g>
                <g>
                  <g>
                    <path d="M149.98,75.97c-19.87,11.04-29.27,38.39-19.61,60.49,9.66,22.09,34.68,30.5,54.73,19.2,20.06-11.31,27.49-37.94,17.65-59.77-9.84-21.84-32.89-30.97-52.77-19.91Z" style="fill: #3f2200;"></path>
                    <path d="M149.76,75.4c20.12-11.18,43.53-1.9,53.49,20.21,9.96,22.1,2.43,49.14-17.88,60.6-20.3,11.45-45.73,2.9-55.51-19.46-9.78-22.37-.21-50.16,19.9-61.35ZM150.19,76.53c-19.56,10.87-28.83,37.89-19.31,59.64,9.51,21.74,34.21,30.07,53.96,18.94,19.75-11.14,27.09-37.44,17.41-58.94-9.69-21.5-32.48-30.52-52.05-19.64Z" style="fill: #752b05;"></path>
                  </g>
                  <path d="M149.98,75.97c-19.87,11.04-29.27,38.39-19.61,60.49,9.66,22.09,34.68,30.5,54.73,19.2,20.06-11.31,27.49-37.94,17.65-59.77-9.84-21.84-32.89-30.97-52.77-19.91ZM147.61,82.09c16.73-9.31,36.2-1.65,44.39,16.77,8.2,18.41,1.81,40.83-15.05,50.33-16.85,9.49-37.74,2.37-45.81-16.22-8.07-18.59-.26-41.57,16.47-50.88Z" style="fill: url(#linear-gradient); mix-blend-mode: multiply; opacity: .4;"></path>
                </g>
                <path d="M125.14,100.51c4.24-12.71,12.55-23,23.18-28.91,10.64-5.91,22.36-6.75,33.27-2.54,10.92,4.22,19.77,12.97,25.06,24.66,5.27,11.69,6.32,24.94,2.72,37.42-3.59,12.47-11.43,22.69-22.19,28.76-10.74,6.06-23.11,7.25-34.67,3.27-11.56-3.99-20.88-12.66-26.06-24.5-5.17-11.84-5.57-25.43-1.33-38.15ZM181.37,69.73c-10.76-4.15-22.32-3.32-32.81,2.51-10.48,5.83-18.65,15.96-22.83,28.5-4.18,12.53-3.8,25.92,1.3,37.59,5.1,11.67,14.3,20.23,25.69,24.15,11.39,3.93,23.57,2.77,34.17-3.21,10.6-5.98,18.32-16.06,21.86-28.35,3.55-12.3,2.52-25.37-2.68-36.88-5.2-11.53-13.94-20.16-24.7-24.31ZM126.65,101.1c4.07-12.24,12.05-22.15,22.29-27.85,10.25-5.7,21.55-6.5,32.08-2.45,10.52,4.05,19.06,12.48,24.14,23.74,5.08,11.26,6.08,24.03,2.61,36.05-3.47,12.01-11.02,21.85-21.37,27.69-10.35,5.84-22.25,6.98-33.37,3.15-11.13-3.84-20.11-12.21-25.09-23.6-4.98-11.4-5.36-24.49-1.29-36.73ZM180.81,71.45c-10.38-4-21.53-3.18-31.63,2.43-10.1,5.61-17.96,15.37-21.97,27.44-4.01,12.06-3.62,24.95,1.29,36.19,4.92,11.24,13.76,19.48,24.72,23.26,10.96,3.78,22.69,2.66,32.88-3.09,10.2-5.75,17.65-15.45,21.07-27.29,3.42-11.85,2.44-24.43-2.57-35.53-5-11.1-13.41-19.41-23.79-23.4Z" style="fill: #ed1c24;"></path>
                <path d="M278.34,80.87s-10.25-27.96-19.95-42.88c-30.22,14.67-45.33,21.99-75.52,36.69,8.64,21.05,13.37,31.41,23.32,52.06,28.87-18.4,43.3-27.56,72.15-45.87Z" style="fill: url(#linear-gradient-2); mix-blend-mode: multiply; opacity: .8;"></path>
              </g>
              <path d="M26.11,129.04c12.25,36.82,27.71,72.51,45.1,107.18,9.44-5.41,14.15-8.12,23.6-13.51-17.39-34.61-32.88-70.22-45.26-106.95-9.37,5.3-14.06,7.95-23.44,13.28Z" style="fill: #d68919; mix-blend-mode: multiply; opacity: .5;"></path>
              <g>
                <g>
                  <path d="M515.47-62.46c-5.46-10.5-8.16-15.74-13.39-26.22C399.47-34.32,296.25,18.86,193.09,72.17c7.85,18.84,12.1,28.14,20.99,46.67C314.62,58.52,415.3-1.55,515.47-62.46Z" style="fill: #82360d;"></path>
                  <path d="M501.84-89.22c.2-.11.3-.16.49-.27,5.43,10.89,8.23,16.34,13.9,27.24C415.74-1.12,314.73,59.16,213.85,119.68c-9.12-18.98-13.47-28.49-21.49-47.8,103.32-53.39,206.71-106.65,309.48-161.09ZM514.7-62.68c-5.25-10.09-7.83-15.13-12.86-25.21C399.54-33.7,296.67,19.31,193.83,72.46c7.68,18.37,11.82,27.45,20.49,45.53C314.52,57.89,414.86-1.98,514.7-62.68Z" style="fill: #3a0500;"></path>
                </g>
                <g>
                  <path d="M269.89,32.46c7.32,16.66,11.22,24.92,19.31,41.38.63-.35.94-.52,1.57-.87-8.1-16.47-11.98-24.73-19.31-41.38-.62.35-.94.52-1.56.87Z" style="fill: url(#linear-gradient-3); mix-blend-mode: multiply; opacity: .7;"></path>
                  <path d="M257.53,38.85c7.41,17,11.36,25.44,19.58,42.24.63-.35.94-.53,1.57-.88-8.22-16.79-12.19-25.21-19.59-42.21-.62.35-.93.51-1.55.85Z" style="fill: url(#linear-gradient-4); mix-blend-mode: multiply; opacity: .7;"></path>
                  <path d="M247.12,44.24c7.48,17.29,11.49,25.85,19.81,42.92.63-.35.94-.53,1.57-.88-8.33-17.07-12.33-25.63-19.82-42.92-.62.35-.94.53-1.56.87Z" style="fill: url(#linear-gradient-5); mix-blend-mode: multiply; opacity: .7;"></path>
                  <path d="M236.77,49.56c7.56,17.6,11.61,26.31,20.04,43.67.63-.35.95-.52,1.57-.88-8.44-17.36-12.49-26.06-20.06-43.65-.62.34-.93.51-1.56.85Z" style="fill: url(#linear-gradient-6); mix-blend-mode: multiply; opacity: .7;"></path>
                  <path d="M226.26,54.97c7.64,17.92,11.74,26.77,20.29,44.45.63-.35.94-.53,1.57-.88-8.56-17.66-12.67-26.52-20.31-44.44-.62.35-.93.52-1.55.87Z" style="fill: url(#linear-gradient-7); mix-blend-mode: multiply; opacity: .7;"></path>
                  <path d="M217.32,59.59c7.7,18.17,11.84,27.15,20.49,45.05.63-.35.94-.53,1.56-.88-8.65-17.89-12.8-26.87-20.5-45.03-.62.34-.93.52-1.55.86Z" style="fill: url(#linear-gradient-8); mix-blend-mode: multiply; opacity: .7;"></path>
                  <path d="M208.26,64.28c7.76,18.43,11.94,27.53,20.69,45.67.63-.35.93-.52,1.56-.88-8.74-18.14-12.93-27.24-20.69-45.66-.62.35-.94.52-1.56.87Z" style="fill: url(#linear-gradient-9); mix-blend-mode: multiply; opacity: .7;"></path>
                  <path d="M200.11,68.27c7.87,18.81,12.13,28.1,21.04,46.61.62-.35.92-.53,1.55-.87-8.91-18.51-13.17-27.79-21.05-46.59-.62.34-.92.51-1.55.86Z" style="fill: url(#linear-gradient-10); mix-blend-mode: multiply; opacity: .7;"></path>
                </g>
                <path d="M260.05,60.92c-1.23.68-1.73,2.31-1.11,3.64.61,1.33,2.11,1.85,3.34,1.17,1.23-.69,1.71-2.32,1.1-3.64-.61-1.33-2.1-1.84-3.33-1.16Z" style="fill: #ffcb92;"></path>
                <path d="M199.18,69.27c7.88,18.81,12.14,28.11,21.05,46.62.14.3.49.42.77.26.27-.16.38-.52.23-.82-8.91-18.51-13.17-27.79-21.05-46.6-.13-.31-.46-.43-.74-.27-.28.15-.39.52-.26.82Z" style="fill: #b1b3b6;"></path>
                <path d="M207.43,65.52c7.69,18.24,11.84,27.25,20.5,45.22.15.3.5.42.77.27.28-.16.39-.54.25-.84-8.66-17.96-12.82-26.97-20.51-45.21-.13-.3-.47-.42-.74-.27-.27.15-.39.53-.26.84Z" style="fill: #b1b3b6;"></path>
                <path d="M216.55,60.76c7.64,18.01,11.75,26.91,20.32,44.66.14.3.5.41.77.25.28-.16.38-.52.24-.82-8.58-17.74-12.69-26.64-20.33-44.64-.13-.31-.45-.43-.73-.28-.28.15-.4.52-.27.83Z" style="fill: #b1b3b6;"></path>
                <path d="M224.8,56.97c7.46,17.46,11.46,26.1,19.8,43.33.15.3.49.41.77.25.27-.16.39-.52.24-.81-8.34-17.22-12.33-25.86-19.8-43.32-.13-.3-.47-.42-.74-.27-.28.15-.39.52-.26.83Z" style="fill: #b1b3b6;"></path>
                <path d="M236.04,51.38c7.32,17,11.24,25.42,19.38,42.2.15.3.49.41.77.26.28-.15.39-.52.25-.82-8.15-16.78-12.07-25.19-19.4-42.19-.13-.3-.45-.42-.73-.27-.27.15-.4.52-.27.83Z" style="fill: #b1b3b6;"></path>
                <path d="M246.65,46.24c7.16,16.47,10.97,24.64,18.89,40.92.15.3.49.42.77.26.28-.16.39-.53.24-.82-7.93-16.28-11.74-24.44-18.89-40.91-.14-.3-.47-.42-.75-.27-.28.16-.39.52-.26.82Z" style="fill: #b1b3b6;"></path>
                <path d="M256.94,40.81c7.11,16.26,10.89,24.32,18.73,40.39.15.3.5.41.78.26.28-.16.38-.53.23-.83-7.84-16.07-11.63-24.13-18.74-40.37-.13-.31-.46-.43-.74-.27-.27.15-.39.52-.26.82Z" style="fill: #b1b3b6;"></path>
                <path d="M268.98,33.44c7.26,16.51,11.11,24.7,19.12,41.02.15.3.49.41.77.25.28-.16.39-.51.23-.81-8.01-16.32-11.87-24.52-19.13-41.03-.13-.3-.47-.41-.74-.26-.28.15-.39.52-.26.82Z" style="fill: #b1b3b6;"></path>
              </g>
            </g>
            <path d="M155.31,65.67s-20.22,6.27-28.6,23.97c-8.38,17.7-7.35,26.31-5.49,32.06s-6.37,20.77-29.61,28.66c-23.24,7.89-40.95-40.55-5.87-66.79,35.08-26.25,88.34-33.16,69.58-17.89Z" style="fill: #231f20;"></path>
          </g>
          <g>
            <path d="M65.05,191.62c.42.93.63,1.4,1.05,2.33C224.01,104.16,383.16,16.62,540.87-73.52c-.46-.88-.69-1.31-1.14-2.19C382.06,14.41,222.92,101.88,65.05,191.62Z" style="fill: #fff;"></path>
            <path d="M62.52,185.9c.42.93.62,1.4,1.04,2.33C221.98,97.93,381.76,10.03,539.97-80.65c11.1-1.97,16.68-2.96,27.8-4.95-.15-.99-.24-1.48-.39-2.46-11.36,2.07-17.04,3.09-28.37,5.13C380.78,7.75,220.97,95.62,62.52,185.9Z" style="fill: #fff;"></path>
            <path d="M60.47,181.24C219.49,91.24,379.9,3.73,538.67-86.72c21.97-4.27,33.01-6.45,55.07-10.86-.17-.98-.26-1.48-.43-2.46-22.28,4.48-33.41,6.69-55.59,11.04C378.94,1.43,218.5,88.91,59.47,178.89c.4.94.61,1.41,1.01,2.34Z" style="fill: #fff;"></path>
            <path d="M51.65,160.16c.38.94.57,1.42.95,2.36C209.94,73.35,368.75-13.19,525.85-102.78c-.44-.87-.65-1.3-1.08-2.17C367.71-15.42,208.94,71.04,51.65,160.16Z" style="fill: #fff;"></path>
            <path d="M55.12,168.63C213.46,78.91,373.28-8.15,531.34-98.36c7.72-8.88,11.59-13.32,19.34-22.22-.69-.66-1.03-.98-1.72-1.64-7.64,8.77-11.46,13.15-19.07,21.9C371.96-10.29,212.34,76.7,54.16,166.28c.39.94.57,1.42.96,2.35Z" style="fill: #fff;"></path>
            <path d="M57.7,174.8C216.38,84.8,376.49-2.64,534.91-93.1c15.67-17.59,23.52-26.4,39.28-44.11-.68-.66-1.02-.99-1.7-1.66-15.67,17.58-23.48,26.33-39.04,43.79C375.18-4.75,215.22,82.56,56.71,172.45c.39.94.59,1.41.99,2.35Z" style="fill: #fff;"></path>
          </g>
          <g>
            <g>
              <g>
                <path d="M90.08,220.85c.15.32.24.47.4.78-7.06,4.03-10.59,6.06-17.64,10.1-16.23-32.62-30.77-66.12-42.51-100.63,7.01-3.99,10.51-5.97,17.52-9.94,13.96,41.14,22.96,60.59,42.23,99.69Z" style="fill: #723015;"></path>
                <path d="M48.16,120.3c11.93,34.84,26.66,68.66,43.1,101.59-7.46,4.26-11.2,6.4-18.66,10.67-16.45-32.97-31.14-66.85-42.98-101.76,7.42-4.21,11.13-6.31,18.54-10.5ZM89.7,221.37c-19.22-38.97-28.21-58.35-42.16-99.34-6.6,3.74-9.9,5.61-16.51,9.37,13.86,41.1,22.83,60.48,42.04,99.48,6.65-3.81,9.98-5.71,16.63-9.51Z" style="fill: #60270b;"></path>
              </g>
              <g>
                <path d="M54.43,139.62c10.1,27,15.94,40.1,28.38,66.22-7.05,4.03-10.57,6.04-17.63,10.08-12.42-26.14-18.25-39.25-28.3-66.32,7.03-4,10.53-6,17.55-9.98Z" style="fill: #8d3f22;"></path>
                <path d="M54.73,138.76c10.25,27.47,16.19,40.79,28.86,67.35-7.46,4.25-11.2,6.39-18.66,10.66-12.65-26.58-18.59-39.91-28.78-67.45,7.44-4.23,11.15-6.34,18.58-10.56ZM82.04,205.58c-12.21-25.68-17.94-38.57-27.9-65.11-6.62,3.76-9.93,5.64-16.55,9.41,9.9,26.59,15.64,39.49,27.83,65.19,6.65-3.81,9.97-5.7,16.62-9.49Z" style="fill: #60270b;"></path>
              </g>
              <path d="M52.52,140.62s-1.18-9.19-4.67-19.45c13.96,41.14,22.96,60.59,42.23,99.69-1.42-2.84-6.37-12.62-9.28-14.16-12.4-26.06-18.22-39.12-28.29-66.07Z" style="fill: #330600;"></path>
              <path d="M66.88,214.44s.77,6.75,5.57,16.51c-19.27-39.13-28.26-58.6-42.12-99.85,1.02,3,5.66,15.53,8.33,17.17,10.02,27,15.83,40.09,28.22,66.17Z" style="fill: #330600;"></path>
            </g>
            <g>
              <path d="M48.74,141c10.06,27.17,15.89,40.34,28.34,66.58.78-.45,1.17-.67,1.96-1.12-12.45-26.24-18.29-39.41-28.35-66.57-.78.44-1.17.66-1.94,1.1Z" style="fill: url(#linear-gradient-11);"></path>
              <path d="M49.06,140.82c10.06,27.17,15.89,40.34,28.34,66.58.78-.45,1.18-.67,1.96-1.12-12.45-26.24-18.28-39.4-28.35-66.56-.78.44-1.18.66-1.96,1.1Z" style="fill: url(#linear-gradient-12);"></path>
              <path d="M79.36,206.28c-.49-.53-.73-.8-1.21-1.34-11.79-24.96-17.33-37.49-26.97-63.29-.07-.77-.1-1.16-.16-1.93,10.07,27.16,15.9,40.32,28.35,66.56Z" style="fill: url(#linear-gradient-13); mix-blend-mode: screen;"></path>
            </g>
          </g>
        </g>
      </g>
    </g>
  </g>
</svg>